<svg width="30" height="30" viewBox="0 0 30 30" fill="none" xmlns="http://www.w3.org/2000/svg">
<g clip-path="url(#clip0_169_129)">
<path d="M9.45973 11.9679H0.713379M9.45973 9.46896H0.713379M9.45973 14.4669H0.713379M18.2561 22.0012V12.0054H24.9283C25.4437 11.9947 25.9471 12.1614 26.3542 12.4776C26.7614 12.7938 27.0475 13.2402 27.1649 13.7422L28.8391 22.0012H23.7163M5.72378 22.0012H3.22483V7.46979C3.22483 7.00585 3.40914 6.56092 3.73719 6.23287C4.06525 5.90482 4.51015 5.72052 4.97409 5.72052H16.4693C16.9332 5.72052 17.3782 5.90482 17.7062 6.23287C18.0343 6.56092 18.2186 7.00585 18.2186 7.46979V22.0012H11.2965M18.6559 22.3761C18.6559 23.7562 19.7747 24.875 21.1549 24.875C22.535 24.875 23.6538 23.7562 23.6538 22.3761C23.6538 20.9959 22.535 19.8771 21.1549 19.8771C19.7747 19.8771 18.6559 20.9959 18.6559 22.3761ZM6.07365 22.3761C6.07365 23.7562 7.19247 24.875 8.5726 24.875C9.95274 24.875 11.0716 23.7562 11.0716 22.3761C11.0716 20.9959 9.95274 19.8771 8.5726 19.8771C7.19247 19.8771 6.07365 20.9959 6.07365 22.3761Z" stroke="#1A1A1A" stroke-width="1.5" stroke-linecap="round" stroke-linejoin="round"/>
</g>
<defs>
<clipPath id="clip0_169_129">
<rect width="30" height="29.9875" fill="white" transform="matrix(-1 0 0 1 30 0.0133667)"/>
</clipPath>
</defs>
</svg>
