<svg width="31" height="31" viewBox="0 0 31 31" fill="none" xmlns="http://www.w3.org/2000/svg">
<path d="M7.18742 13.8435L6.00294 12.5948C5.9812 12.572 5.95481 12.5538 5.92544 12.5414C5.89606 12.529 5.86433 12.5226 5.83226 12.5226C5.80019 12.5226 5.76846 12.529 5.73909 12.5414C5.70971 12.5538 5.68332 12.572 5.66158 12.5948C2.79424 15.2109 1.35147 18.2972 1.33326 21.8535C1.32871 24.351 2.63836 25.8414 5.26221 26.3246C5.31319 26.3304 5.35996 26.3548 5.39296 26.3928C5.42595 26.4308 5.44267 26.4795 5.43971 26.5289V27.781C5.43645 27.809 5.43977 27.8374 5.44943 27.864C5.45908 27.8906 5.47483 27.9148 5.49549 27.9347C5.51614 27.9547 5.54119 27.9699 5.56876 27.9792C5.59633 27.9885 5.62572 27.9917 5.65476 27.9886H5.90053C5.92925 27.9924 5.9585 27.9897 5.98598 27.9808C6.01347 27.9719 6.03844 27.957 6.05894 27.9372C6.07944 27.9174 6.09492 27.8933 6.10415 27.8668C6.11339 27.8402 6.11613 27.812 6.11217 27.7843V26.552C6.10902 26.5053 6.12408 26.4591 6.1544 26.4225C6.18471 26.3859 6.22809 26.3616 6.27602 26.3543L7.53219 26.0479C7.57863 26.0334 7.62892 26.0354 7.67398 26.0535C7.71904 26.0716 7.75592 26.1047 7.77796 26.1467C8.73033 27.7085 9.96943 28.0083 11.8912 28.0149C13.887 28.0149 15.885 28.0149 17.8853 28.0149C18.5606 28.0171 19.2245 27.8478 19.8106 27.524C19.856 27.4998 19.9071 27.4871 19.959 27.4871C20.011 27.4871 20.0621 27.4998 20.1075 27.524C22.8383 28.7464 24.8216 27.6591 26.5522 25.4779C28.4593 23.0971 29.4402 20.1458 29.324 17.1384C29.3231 17.0775 29.2976 17.0194 29.253 16.9763C29.2084 16.9332 29.1481 16.9087 29.085 16.9078C26.5759 16.8305 24.094 17.4283 21.9167 18.6343C21.8177 18.6871 21.7699 18.6607 21.7665 18.552C21.6868 16.485 21.647 14.4234 21.647 12.3674C21.647 9.84353 21.0974 8.13347 18.4076 7.61947C18.3828 7.61824 18.3584 7.61217 18.3361 7.60163C18.3138 7.59109 18.2938 7.57629 18.2776 7.55813C18.2613 7.53997 18.249 7.51881 18.2415 7.49595C18.2339 7.47308 18.2312 7.44897 18.2335 7.42507V6.3707C18.2316 6.34928 18.2344 6.32772 18.2416 6.30738C18.2488 6.28704 18.2603 6.26838 18.2754 6.25257C18.2905 6.23676 18.3088 6.22416 18.3292 6.21557C18.3496 6.20698 18.3717 6.20258 18.394 6.20266L18.8514 6.16312C18.8828 6.16324 18.9138 6.15704 18.9426 6.14489C18.9713 6.13275 18.9972 6.11494 19.0184 6.0926C19.0396 6.07027 19.0557 6.0439 19.0658 6.01519C19.0758 5.98648 19.0795 5.95606 19.0767 5.92588C19.1347 4.01484 19.7901 1.03954 16.7316 1.00988C15.3298 0.996705 13.9268 0.996705 12.5227 1.00988C9.15018 1.03954 9.86361 3.7183 9.89092 5.92588C9.88859 5.95282 9.89192 5.97993 9.9007 6.00559C9.90948 6.03125 9.92353 6.05494 9.94201 6.07524C9.96049 6.09555 9.98303 6.11204 10.0083 6.12374C10.0335 6.13544 10.0609 6.14211 10.0889 6.14335L10.5873 6.21254C10.6091 6.21378 10.6305 6.21924 10.6501 6.22858C10.6697 6.23792 10.6872 6.25096 10.7015 6.26693C10.7158 6.2829 10.7267 6.30147 10.7335 6.32156C10.7402 6.34165 10.7427 6.36283 10.7409 6.38388V7.37235C10.7467 7.43326 10.728 7.494 10.6886 7.54189C10.6491 7.58978 10.592 7.62112 10.5292 7.62935C7.21814 8.35423 7.08502 11.1055 7.27276 13.8139C7.27959 13.8996 7.25228 13.9094 7.18742 13.8435ZM18.3564 5.46789H10.6351C10.617 5.46789 10.5996 5.46095 10.5868 5.44859C10.574 5.43623 10.5668 5.41947 10.5668 5.40199V3.03955C10.5681 2.85695 10.6067 2.67639 10.6803 2.50819C10.754 2.33999 10.8612 2.18743 10.9959 2.05923C11.1306 1.93104 11.2902 1.82971 11.4655 1.76103C11.6408 1.69236 11.8284 1.65768 12.0175 1.65898H16.9739C17.1631 1.65768 17.3507 1.69236 17.526 1.76103C17.7013 1.82971 17.8608 1.93104 17.9955 2.05923C18.1302 2.18743 18.2375 2.33999 18.3111 2.50819C18.3847 2.67639 18.4233 2.85695 18.4247 3.03955V5.40199C18.4247 5.41947 18.4175 5.43623 18.4047 5.44859C18.3919 5.46095 18.3745 5.46789 18.3564 5.46789ZM11.4065 6.38388C11.4065 6.35242 11.4195 6.32225 11.4425 6.3C11.4655 6.27776 11.4968 6.26526 11.5294 6.26526H17.445C17.4776 6.26526 17.5088 6.27776 17.5319 6.3C17.5549 6.32225 17.5679 6.35242 17.5679 6.38388V7.47779C17.5679 7.50924 17.5549 7.53941 17.5319 7.56166C17.5088 7.5839 17.4776 7.5964 17.445 7.5964H11.5465C11.5139 7.5964 11.4826 7.5839 11.4596 7.56166C11.4365 7.53941 11.4236 7.50924 11.4236 7.47779L11.4065 6.38388ZM20.8039 15.6294L8.18416 11.0495C8.1571 11.0431 8.13169 11.0314 8.10956 11.0151C8.08743 10.9987 8.06904 10.9782 8.05556 10.9546C8.04209 10.9311 8.03382 10.9051 8.03128 10.8783C8.02874 10.8516 8.03198 10.8246 8.0408 10.7991C8.48114 8.64748 9.97625 8.2455 12.137 8.24879C13.7004 8.24879 15.2649 8.24879 16.8306 8.24879C18.5168 8.24879 19.9027 8.39377 20.6161 9.86989C21.2511 11.1483 20.9575 13.8238 20.9575 15.5075C20.9643 15.6327 20.9234 15.6623 20.8039 15.6294ZM20.7151 19.3164C18.9947 20.5124 18.5749 21.089 17.8922 22.5816C17.8827 22.6105 17.8669 22.637 17.8457 22.6593C17.8245 22.6816 17.7986 22.6992 17.7696 22.7108C17.7407 22.7224 17.7095 22.7278 17.6782 22.7265C17.6469 22.7253 17.6162 22.7174 17.5884 22.7035L10.3825 20.0907C10.3258 20.074 10.2745 20.0434 10.2338 20.0018C10.1931 19.9602 10.1644 19.909 10.1503 19.8535C9.6588 18.3773 9.41302 17.0824 8.51527 15.603C7.86329 14.5322 8.05445 13.089 8.10907 11.8963C8.10907 11.7974 8.16368 11.7645 8.25926 11.7974L20.7527 16.3213C20.7958 16.3344 20.8333 16.3608 20.8592 16.3966C20.8852 16.4324 20.8981 16.4754 20.896 16.519V18.9869C20.8941 19.0515 20.8767 19.1149 20.8454 19.172C20.814 19.2291 20.7694 19.2785 20.7151 19.3164ZM5.83909 17.8765C5.80837 17.9424 5.77423 17.9424 5.74351 17.8765C5.3513 17.0903 4.6752 16.4693 3.84219 16.1302C3.67493 16.061 3.64421 15.9556 3.75685 15.8007L5.58649 13.4646C5.60036 13.4374 5.62135 13.4141 5.64739 13.3971C5.67343 13.38 5.70362 13.3699 5.73499 13.3675C5.76635 13.3652 5.79779 13.3708 5.82623 13.3838C5.85466 13.3968 5.87909 13.4167 5.89712 13.4416C6.64386 14.1647 7.25485 15.0076 7.70286 15.9325C7.71655 15.954 7.72506 15.9782 7.72775 16.0033C7.73043 16.0284 7.72723 16.0537 7.71838 16.0775C7.70952 16.1012 7.69525 16.1227 7.67661 16.1404C7.65796 16.1581 7.63544 16.1715 7.61069 16.1796C6.83273 16.5278 6.20585 17.1283 5.83909 17.8765ZM5.26221 21.5371C4.56464 20.6325 3.52822 20.0271 2.37438 19.8502C2.24809 19.8304 2.20712 19.7645 2.24808 19.6459L3.20045 16.8551C3.20454 16.8188 3.2186 16.7843 3.24119 16.7551C3.26378 16.7258 3.29406 16.703 3.32889 16.6888C3.36373 16.6747 3.40184 16.6699 3.43928 16.6748C3.47672 16.6797 3.51212 16.6941 3.5418 16.7167C5.67524 17.6261 5.5899 19.5767 5.44654 21.4877C5.41581 21.6459 5.35778 21.6624 5.26221 21.5371ZM9.11946 19.8436C7.90084 20.2093 7.13622 20.5355 6.3477 21.5306C6.27602 21.6228 6.22823 21.6096 6.21116 21.4976C5.90736 19.6294 6.02683 17.5437 8.0408 16.7431C8.06253 16.7304 8.08712 16.723 8.11246 16.7215C8.1378 16.7201 8.16313 16.7245 8.18629 16.7346C8.20944 16.7446 8.22973 16.7599 8.24541 16.7792C8.2611 16.7985 8.2717 16.8211 8.27633 16.8452L9.26624 19.5602C9.2814 19.588 9.28933 19.619 9.28936 19.6505C9.28939 19.6819 9.28151 19.7129 9.26641 19.7408C9.2513 19.7686 9.22942 19.7925 9.20264 19.8104C9.17585 19.8283 8.94699 19.9022 8.91465 19.9061L9.11946 19.8436ZM28.1327 20.9144C27.2979 20.5534 26.3562 20.4949 25.4804 20.7497C25.3336 20.7958 25.2824 20.7497 25.3268 20.5981C25.5895 19.799 25.5484 18.9356 25.2107 18.1632C25.1527 18.0248 25.2107 17.9457 25.3507 17.9259L28.474 17.4943C28.5309 17.4876 28.5882 17.5024 28.634 17.5356C28.6798 17.5687 28.7105 17.6177 28.7198 17.6722C28.7232 17.6919 28.7232 17.7119 28.7198 17.7315L28.2385 20.865C28.2372 20.8737 28.2342 20.8821 28.2296 20.8896C28.2249 20.8971 28.2188 20.9037 28.2114 20.9089C28.2041 20.9142 28.1958 20.9179 28.187 20.92C28.1781 20.9221 28.169 20.9224 28.16 20.921L28.1327 20.9144ZM22.2615 23.0825C22.462 21.9753 22.1993 20.8365 21.531 19.9161C21.4983 19.8624 21.4876 19.7989 21.5009 19.7379C21.5141 19.677 21.5504 19.6231 21.6026 19.5866H21.6265L24.2276 18.295C24.2877 18.2668 24.3566 18.262 24.4202 18.2816C24.4838 18.3013 24.5371 18.3438 24.569 18.4004C25.4633 20.5124 23.777 21.8963 22.3604 23.1582C22.2785 23.2406 22.241 23.2077 22.2615 23.0825ZM19.2576 25.8403C17.841 23.7777 18.7729 21.5569 20.8312 20.3147C20.8481 20.3013 20.868 20.2918 20.8894 20.2872C20.9108 20.2825 20.933 20.2828 20.9542 20.2879C20.9755 20.293 20.9952 20.3029 21.0117 20.3167C21.0283 20.3305 21.0413 20.3479 21.0497 20.3675C22.4424 22.6113 21.2749 24.3213 19.5341 25.8732C19.517 25.8924 19.4959 25.9078 19.4722 25.9185C19.4485 25.9291 19.4227 25.9348 19.3966 25.9351C19.3704 25.9354 19.3445 25.9304 19.3205 25.9203C19.2966 25.9102 19.2751 25.8953 19.2576 25.8765V25.8403ZM8.91465 20.5256C9.00384 20.4895 9.10424 20.4889 9.19383 20.5241C9.28343 20.5593 9.35489 20.6274 9.39254 20.7134C9.40362 20.7388 9.41164 20.7653 9.41644 20.7925C9.84654 23.3032 8.83956 24.9452 6.39549 25.7184C6.37796 25.7282 6.35808 25.7333 6.33784 25.7334C6.31759 25.7335 6.29768 25.7284 6.28008 25.7188C6.26248 25.7091 6.24781 25.6952 6.23751 25.6783C6.22722 25.6615 6.22166 25.6424 6.2214 25.6228C5.71848 23.156 6.61623 21.457 8.91465 20.5256ZM5.22124 25.6624C2.66453 25.3559 1.64048 22.8353 2.20029 20.6574C2.20273 20.6374 2.20979 20.6181 2.22094 20.6011C2.23208 20.584 2.24705 20.5696 2.26472 20.5589C2.2824 20.5481 2.30234 20.5413 2.32309 20.539C2.34384 20.5367 2.36486 20.5389 2.38462 20.5454C4.94134 21.0297 5.75375 23.2406 5.39192 25.547C5.39009 25.5661 5.38399 25.5845 5.37403 25.6011C5.36408 25.6176 5.35051 25.6319 5.33426 25.6429C5.31802 25.6539 5.2995 25.6613 5.27998 25.6646C5.26046 25.668 5.24042 25.6672 5.22124 25.6624ZM17.7556 23.6492C17.7527 24.7412 18.1534 25.7985 18.8855 26.6311C19.2951 27.0989 19.1813 27.3362 18.5441 27.3428C15.918 27.3735 13.3727 27.3735 10.9081 27.3428C9.82947 27.3428 8.99999 26.8222 8.42311 25.8073C8.40963 25.7886 8.40017 25.7675 8.39528 25.7451C8.39038 25.7228 8.39015 25.6998 8.3946 25.6774C8.39906 25.655 8.4081 25.6337 8.4212 25.6147C8.4343 25.5957 8.4512 25.5794 8.4709 25.5668C9.96374 24.3807 10.5327 22.843 10.1777 20.954C10.1696 20.9129 10.1788 20.8704 10.2031 20.8359C10.2274 20.8013 10.2649 20.7774 10.3074 20.7694C10.3363 20.7612 10.3671 20.7612 10.3961 20.7694L17.5713 23.3922C17.6264 23.4104 17.674 23.4452 17.7072 23.4915C17.7403 23.5377 17.7573 23.593 17.7556 23.6492ZM27.9449 21.7447L26.5795 24.3807C26.5716 24.4107 26.5554 24.4381 26.5326 24.4599C26.5098 24.4818 26.4813 24.4973 26.4501 24.5047C26.4189 24.5121 26.3862 24.5113 26.3555 24.5022C26.3248 24.4931 26.2972 24.4762 26.2757 24.4531C25.8014 24.124 25.2645 23.8886 24.6957 23.7602C24.1269 23.6319 23.5375 23.6132 22.9612 23.7052C22.8338 23.725 22.8133 23.6887 22.8998 23.5965C24.3778 22.0116 25.7432 20.6047 27.863 21.524C27.9031 21.5413 27.9346 21.573 27.9512 21.6122C27.9677 21.6515 27.9679 21.6954 27.9518 21.7348L27.9449 21.7447ZM25.8627 24.977C25.8788 24.9845 25.893 24.9954 25.904 25.009C25.9151 25.0226 25.9227 25.0385 25.9263 25.0554C25.93 25.0723 25.9295 25.0898 25.925 25.1065C25.9205 25.1232 25.912 25.1386 25.9002 25.1517C24.5895 27.099 22.2512 28.1599 20.0973 26.6574C20.0771 26.6472 20.0596 26.6326 20.0462 26.6147C20.0329 26.5969 20.024 26.5762 20.0204 26.5545C20.0167 26.5327 20.0184 26.5105 20.0252 26.4894C20.0321 26.4684 20.0439 26.4492 20.0597 26.4334C21.548 24.4795 23.6781 23.6228 25.8627 24.977Z" fill="black" stroke="black" stroke-width="0.5" stroke-miterlimit="10"/>
</svg>
