<svg width="31" height="30" viewBox="0 0 31 30" fill="none" xmlns="http://www.w3.org/2000/svg">
<g clip-path="url(#clip0_620_9005)">
<path d="M15.3748 29.9254C15.5132 30.0045 15.8684 29.9342 16.0266 29.8427C20.1697 27.4643 24.3105 25.0825 28.4492 22.6973C28.7495 22.5237 28.7957 22.1701 28.7957 21.8107C28.7957 17.1754 28.7957 12.5404 28.7957 7.90557C28.7957 7.56513 28.6484 7.34843 28.3423 7.17199C24.2568 4.81799 20.1711 2.46423 16.0852 0.110718C15.7161 -0.101595 15.4282 -0.0269196 15.0532 0.189055C11.0176 2.51816 6.9834 4.84995 2.95068 7.18443C2.65112 7.35794 2.48413 7.59295 2.48413 7.93412C2.48315 12.6714 2.48291 17.4084 2.4834 22.1452C2.4834 22.3978 2.67895 22.6394 2.9126 22.7741C7.06494 25.1608 11.219 27.5446 15.3748 29.9254ZM19.4287 3.85184C19.4333 3.85447 19.4371 3.85826 19.4397 3.86282C19.4423 3.86738 19.4437 3.87256 19.4437 3.87783C19.4437 3.88309 19.4423 3.88827 19.4397 3.89283C19.4371 3.89739 19.4333 3.90118 19.4287 3.90382L8.70605 10.0785C8.7014 10.0813 8.69609 10.0827 8.69067 10.0827C8.68526 10.0827 8.67994 10.0813 8.67529 10.0785L4.92969 7.888C4.92512 7.88536 4.92134 7.88157 4.9187 7.87701C4.91607 7.87245 4.91468 7.86727 4.91468 7.86201C4.91468 7.85674 4.91607 7.85156 4.9187 7.847C4.92134 7.84244 4.92512 7.83865 4.92969 7.83602L15.6479 1.66134C15.6526 1.65857 15.6579 1.65711 15.6633 1.65711C15.6687 1.65711 15.6741 1.65857 15.6787 1.66134L19.4287 3.85184ZM10.2734 10.9995C10.2675 10.9961 10.2626 10.9912 10.2591 10.9853C10.2557 10.9794 10.2539 10.9727 10.2539 10.9658C10.2539 10.959 10.2557 10.9523 10.2591 10.9464C10.2626 10.9404 10.2675 10.9355 10.2734 10.9321L20.9756 4.76918C20.9816 4.76564 20.9884 4.76377 20.9954 4.76377C21.0023 4.76377 21.0091 4.76564 21.0151 4.76918L26.3882 7.8858C26.3941 7.88919 26.3991 7.8941 26.4025 7.90001C26.4059 7.90593 26.4077 7.91264 26.4077 7.91948C26.4077 7.92631 26.4059 7.93303 26.4025 7.93894C26.3991 7.94486 26.3941 7.94976 26.3882 7.95315L15.6831 14.1176C15.6771 14.1211 15.6703 14.123 15.6633 14.123C15.6564 14.123 15.6495 14.1211 15.6436 14.1176L10.2734 10.9995ZM16.436 15.4229C16.436 15.4191 16.437 15.4153 16.439 15.412C16.4409 15.4086 16.4437 15.4058 16.447 15.4039L27.1704 9.2307C27.1738 9.22877 27.1775 9.22776 27.1814 9.22776C27.1853 9.22776 27.189 9.22877 27.1924 9.2307C27.1957 9.23263 27.1985 9.23541 27.2004 9.23875C27.2024 9.24209 27.2034 9.24588 27.2034 9.24973L27.2026 21.6752C27.2026 21.6791 27.2016 21.6829 27.1997 21.6862C27.1978 21.6896 27.195 21.6923 27.1917 21.6943L16.469 27.8667C16.4657 27.8687 16.4619 27.8697 16.458 27.8697C16.4541 27.8697 16.4504 27.8687 16.447 27.8667C16.4437 27.8648 16.4409 27.862 16.439 27.8587C16.437 27.8553 16.436 27.8516 16.436 27.8477V15.4229ZM7.93262 11.5852C7.9375 11.5964 7.93994 11.6084 7.93994 11.6211C7.93896 13.7623 7.93945 15.9037 7.94141 18.0454C7.94214 18.9173 9.05908 19.1919 9.38208 18.4063C9.43481 18.2784 9.46118 18.0581 9.46118 17.7452C9.46021 15.9452 9.45923 14.1491 9.45825 12.3568C9.45817 12.3526 9.45923 12.3485 9.46132 12.3448C9.46341 12.3411 9.46646 12.3381 9.47016 12.3359C9.47386 12.3338 9.47809 12.3326 9.48243 12.3326C9.48676 12.3325 9.49105 12.3336 9.49487 12.3356L14.865 15.3966C14.887 15.4088 14.8979 15.4273 14.8979 15.4522V27.8382C14.8979 27.8728 14.8831 27.8816 14.8533 27.8645L4.16504 21.7082C4.15483 21.7024 4.14634 21.694 4.14042 21.6837C4.1345 21.6734 4.13137 21.6616 4.13135 21.6496L4.13061 9.27755C4.13061 9.23558 4.14892 9.22509 4.18554 9.24607C5.40478 9.95915 6.62451 10.6722 7.84473 11.3853C7.91797 11.4283 7.94629 11.481 7.92969 11.5435C7.92578 11.5576 7.92676 11.5715 7.93262 11.5852Z" fill="#1A1A1A"/>
</g>
<defs>
<clipPath id="clip0_620_9005">
<rect width="30" height="29.9875" fill="white" transform="matrix(-1 0 0 1 30.6667 0.0133667)"/>
</clipPath>
</defs>
</svg>
