<svg width="30" height="30" viewBox="0 0 30 30" fill="none" xmlns="http://www.w3.org/2000/svg">
<path d="M3.80565 10.3512C4.45055 10.3512 5.06903 10.0951 5.52504 9.63927C5.98105 9.18345 6.23723 8.5652 6.23723 7.92058M6.23723 22.2199C6.22893 21.5807 5.96908 20.9706 5.51397 20.5216C5.05886 20.0726 4.44511 19.8208 3.80565 19.8209M25.9741 10.3512C25.3292 10.3512 24.7107 10.0951 24.2547 9.63927C23.7987 9.18345 23.5425 8.5652 23.5425 7.92058M23.5425 22.2199C23.5508 21.5807 23.8106 20.9706 24.2658 20.5216C24.7209 20.0726 25.3346 19.8208 25.9741 19.8209M17.1004 17.122C17.1161 17.544 17.0052 17.961 16.7818 18.3194C16.5584 18.6777 16.2327 18.961 15.8468 19.1328C15.4609 19.3046 15.0324 19.357 14.6165 19.2833C14.2006 19.2095 13.8162 19.013 13.513 18.719C13.2098 18.425 13.0015 18.047 12.9151 17.6337C12.8286 17.2204 12.8679 16.7906 13.0279 16.3998C13.1879 16.009 13.4613 15.675 13.8128 15.4409C14.1644 15.2067 14.578 15.0832 15.0004 15.086C15.4189 15.086 15.8279 14.962 16.1759 14.7296C16.5238 14.4972 16.795 14.1669 16.9551 13.7804C17.1153 13.394 17.1572 12.9688 17.0755 12.5585C16.9939 12.1483 16.7924 11.7714 16.4965 11.4756C16.2006 11.1798 15.8236 10.9784 15.4132 10.8968C15.0027 10.8152 14.5773 10.8571 14.1907 11.0172C13.8041 11.1772 13.4737 11.4483 13.2412 11.7961C13.0087 12.1439 12.8846 12.5528 12.8846 12.9711M14.9372 9.67249V10.7773M14.9372 19.2369V20.3417M0.789885 7.90481V22.1094C0.789885 23.8527 2.20372 25.266 3.94778 25.266H26.053C27.7971 25.266 29.2109 23.8527 29.2109 22.1094V7.90481C29.2109 6.16148 27.7971 4.74823 26.053 4.74823H3.94778C2.20372 4.74823 0.789885 6.16148 0.789885 7.90481Z" stroke="#1A1A1A" stroke-width="1.5" stroke-linecap="round" stroke-linejoin="round"/>
</svg>
