<svg width="144" height="154" viewBox="0 0 144 154" fill="none" xmlns="http://www.w3.org/2000/svg">
<g clip-path="url(#clip0_857_12614)">
<path d="M34.3255 26.2375C32.6718 23.7882 29.2447 22.7532 26.4616 22.1471C23.2269 21.4477 19.9781 20.8214 16.7153 20.2685C12.4438 19.5419 6.30398 18.2481 3.86213 14.4023C1.1775 10.1772 3.20065 5.67557 7.3912 3.21919C11.7331 0.674205 16.9651 -0.0134395 21.7995 0.993214C28.3968 2.3685 34.6492 6.22852 36.419 13.2219C36.4589 13.3779 36.4002 13.4441 36.2431 13.4204L32.0244 12.7789C31.9047 12.76 31.832 12.6902 31.8062 12.5697C29.959 3.98482 19.3823 3.16957 12.486 4.99856C8.54528 6.0442 4.62213 9.28393 8.38694 13.5587C8.9499 14.1967 9.94565 14.8075 11.3742 15.3912C18.9742 18.4998 27.7423 17.7519 34.9306 21.7182C36.3662 22.5087 37.7771 24.1037 38.4386 25.6633C40.789 31.207 35.9334 33.8512 31.3664 34.8366C21.0853 37.0555 2.35972 37.6191 1.77565 22.3917C1.77096 22.2665 1.83077 22.2074 1.95509 22.2145L6.85287 22.5087C6.98423 22.5158 7.04873 22.5866 7.04639 22.7213C6.90565 34.3404 24.0338 33.1884 30.9653 31.3346C33.1432 30.7497 36.1762 28.981 34.3255 26.2375Z" fill="#1A1A1A"/>
<path d="M118.01 19.6801C121.538 19.4249 125.063 19.048 128.584 18.5494C130.452 18.2836 131.603 17.1316 132.633 15.6499C132.648 15.6286 132.669 15.6125 132.693 15.6042C132.718 15.5958 132.744 15.5956 132.769 15.6036C132.793 15.6115 132.815 15.6272 132.829 15.6484C132.844 15.6695 132.852 15.6949 132.852 15.7208L132.711 24.3057C132.709 24.4404 132.656 24.4653 132.553 24.3802C131.149 23.2282 130.66 22.3031 128.573 22.6115C125.038 23.1337 121.493 23.5815 117.937 23.9548C117.887 23.9599 117.841 23.9832 117.807 24.0203C117.772 24.0574 117.752 24.1059 117.75 24.1569C117.649 27.2501 117.55 30.3386 117.451 33.4223C117.37 35.9177 118.264 37.5907 120.952 37.2044C125.866 36.4931 130.728 35.5373 135.536 34.3368C136.975 33.9753 137.816 32.8765 138.583 31.7174C139.787 29.8932 140.893 28.0866 141.901 26.2978C142.07 26 142.119 26.019 142.049 26.3545L139.903 36.7259C139.875 36.8535 139.798 36.9338 139.674 36.9669C130.378 39.5143 120.94 41.3054 111.36 42.3404C111.332 42.343 111.304 42.3369 111.28 42.323C111.255 42.3092 111.235 42.2882 111.223 42.263C111.21 42.2378 111.206 42.2096 111.211 42.1822C111.215 42.1548 111.228 42.1296 111.248 42.1101C113.007 40.3342 113.567 38.7711 113.669 36.1375C114.035 26.6948 114.128 17.2544 113.95 7.81648C113.901 5.03755 113.187 3.20856 111.368 1.2945C111.255 1.17635 111.28 1.11609 111.441 1.11373L138.615 1.00031C138.667 1.00052 138.718 1.01849 138.759 1.05129C138.8 1.08409 138.828 1.12982 138.84 1.18108L140.842 10.3154C140.843 10.3236 140.842 10.3321 140.838 10.3394C140.834 10.3467 140.828 10.3526 140.82 10.3562C140.813 10.3598 140.805 10.3608 140.796 10.3592C140.788 10.3576 140.781 10.3534 140.775 10.3473C139.837 9.13269 138.859 7.937 137.841 6.76021C137.032 5.82799 136.103 4.96312 134.766 5.03046C130.64 5.23841 126.516 5.39437 122.395 5.49834C121.201 5.52906 120.32 5.70984 119.752 6.04066C118.109 6.99769 117.789 8.61401 117.806 10.5741C117.837 13.5445 117.842 16.5207 117.82 19.5029C117.82 19.6305 117.884 19.6896 118.01 19.6801Z" fill="#1A1A1A"/>
<path d="M51.1934 25.6208L48.7269 32.8481C48.6847 32.9734 48.6812 33.0998 48.7164 33.2274C49.1702 34.8685 50.8802 36.1836 52.073 37.3072C52.1715 37.4017 52.154 37.4419 52.0202 37.4277L40.1945 36.219C40.1728 36.2181 40.1521 36.2097 40.1358 36.1953C40.1195 36.1809 40.1086 36.1612 40.1049 36.1397C40.1012 36.1182 40.1049 36.096 40.1155 36.0769C40.126 36.0578 40.1427 36.0429 40.1628 36.0347C42.939 34.7906 44.2197 33.0608 45.2401 30.0515C48.4067 20.7128 50.3525 11.1141 51.0773 1.25552C51.0867 1.13028 51.1535 1.06766 51.2778 1.06766L59.8173 1.08538C59.9557 1.08538 60.0589 1.14564 60.1269 1.26615C66.0286 11.8147 71.2501 23.1774 75.7914 35.3541C76.5795 37.4667 77.9365 39.3323 79.8623 40.951C80.0546 41.114 80.0265 41.179 79.7778 41.1459L69.5741 39.7458C69.3888 39.7198 69.3689 39.6478 69.5143 39.5296C70.8865 38.4166 72.7302 36.9988 72.0688 35.0989C71.1399 32.4358 70.1125 29.814 68.9865 27.2336C68.9467 27.1414 68.8763 27.0906 68.7754 27.0811L51.408 25.4826C51.3001 25.4707 51.2286 25.5168 51.1934 25.6208ZM67.1112 22.7993C64.4911 16.965 61.6235 11.2571 58.5084 5.67558C58.4795 5.62378 58.4377 5.58049 58.3871 5.55002C58.3365 5.51955 58.2788 5.50296 58.2199 5.5019L55.0532 5.43455C54.889 5.42982 54.8011 5.51017 54.7893 5.67558C54.4633 11.094 53.6223 16.4274 52.2665 21.6757C52.229 21.8222 52.2841 21.9014 52.4319 21.9132L66.9352 23.0474C67.1323 23.064 67.1909 22.9813 67.1112 22.7993Z" fill="#1A1A1A"/>
<path d="M81.4599 7.299C81.1397 4.72211 80.0384 3.24403 78.2721 1.3087C78.1478 1.17165 78.1783 1.10312 78.3636 1.10312L84.0847 1.11021C84.2184 1.11021 84.2958 1.17755 84.317 1.31225C85.9284 12.0806 86.828 22.9021 87.0157 33.7768C87.0368 35.0741 87.1799 35.991 87.4449 36.5274C88.1134 37.8921 89.0881 38.4202 90.6538 38.5691C95.1411 38.9897 99.6319 39.083 104.126 38.8491C104.24 38.8422 104.349 38.7974 104.436 38.7215C106.54 36.9067 108.028 33.7945 109.362 31.3842C109.368 31.3728 109.377 31.3639 109.389 31.3592C109.401 31.3545 109.414 31.3542 109.426 31.3586C109.438 31.3629 109.449 31.3715 109.455 31.3827C109.461 31.394 109.463 31.4071 109.46 31.4197L107.479 42.3759C107.454 42.5153 107.37 42.5898 107.23 42.5992C98.6092 43.2053 90.0029 42.5141 81.474 41.348C81.4484 41.344 81.4244 41.3326 81.4049 41.3154C81.3854 41.2982 81.3712 41.2758 81.3641 41.251C81.357 41.2262 81.3573 41.2 81.3649 41.1757C81.3726 41.1514 81.3873 41.1299 81.4071 41.114C83.0397 39.7494 83.5394 38.2536 83.4971 36.0099C83.3259 26.4018 82.6468 16.8315 81.4599 7.299Z" fill="#1A1A1A"/>
<path d="M15.5046 87.9872C19.2624 87.8242 32.573 86.0767 33.3541 81.1179C33.8502 77.9668 28.1361 77.1373 26.1552 76.9601C21.3606 76.5371 17.8022 76.2642 15.48 76.1413C12.2078 75.9712 7.38388 75.3403 4.88221 73.3943C0.930918 70.3212 3.23203 64.7527 6.49018 62.2927C10.5752 59.2125 15.86 57.4722 20.8915 56.983C27.7209 56.3237 38.4454 58.3796 38.2448 67.4855C38.2425 67.6273 38.1709 67.6899 38.0302 67.6734L34.012 67.241C33.8643 67.2244 33.7962 67.1417 33.808 66.9928C34.1211 63.2533 31.6124 61.2258 28.2205 60.641C22.7105 59.6934 17.4562 60.4354 12.4576 62.867C11.2191 63.4719 10.1037 64.2552 9.11147 65.217C6.84203 67.4217 7.45073 69.8178 10.3394 70.9698C11.7117 71.518 13.5002 71.9174 15.7052 72.1679C19.0759 72.5531 22.449 72.9382 25.8244 73.3234C29.1635 73.7027 34.6243 74.5037 36.4222 77.6123C39.0822 82.2273 34.1915 86.3993 30.1874 88.0085C24.9636 90.1069 19.9731 91.3616 15.2161 91.7728C14.0386 91.8744 12.6839 91.7929 11.1522 91.5282C5.49795 90.5464 1.8774 87.3492 1.82814 81.1143C1.8275 81.057 1.84745 81.0014 1.88431 80.9578C1.92117 80.9141 1.97245 80.8854 2.0287 80.8769L7.01444 80.1006C7.13641 80.0817 7.1974 80.1348 7.1974 80.2601C7.13055 85.9349 10.1143 88.2212 15.5046 87.9872Z" fill="#1A1A1A"/>
<path d="M64.8354 80.3523C59.6069 79.2109 54.3302 78.3957 49.0056 77.9065C48.8883 77.8971 48.7991 77.9431 48.7382 78.0447C47.5114 80.1219 46.3362 82.1978 45.2126 84.2725C44.2063 86.137 46.1344 87.6328 47.1372 88.8875C47.1982 88.9608 47.1806 88.9974 47.0844 88.9974L36.4972 88.7954C36.4644 88.793 36.462 88.7836 36.4902 88.767C38.9215 87.0975 40.3289 85.9349 41.8207 83.2942C46.4112 75.1607 51.092 67.0803 55.8632 59.053C55.9265 58.9443 56.0203 58.9006 56.1446 58.9219L63.7341 60.2121C63.7853 60.2205 63.833 60.2442 63.8712 60.2801C63.9094 60.3161 63.9363 60.3627 63.9487 60.4141C65.9425 68.9258 67.8285 77.4835 69.6065 86.0873C70.2293 89.0931 71.1019 90.9434 73.2552 92.8468C73.269 92.8597 73.2784 92.8768 73.2818 92.8955C73.2853 92.9142 73.2827 92.9335 73.2744 92.9506C73.2661 92.9677 73.2526 92.9817 73.2358 92.9904C73.219 92.9992 73.1999 93.0023 73.1813 92.9992L63.4983 91.1986C63.3271 91.1655 63.3119 91.0958 63.4526 90.9895C64.6806 90.0537 66.8304 89.1002 66.4469 87.1578C66.0106 84.9436 65.5379 82.7389 65.0289 80.5437C65.0054 80.4397 64.9409 80.3759 64.8354 80.3523ZM57.837 62.6295L50.7437 74.6384C50.6804 74.7448 50.7097 74.805 50.8317 74.8192C55.3096 75.2965 59.7476 76.0173 64.1457 76.9814C64.1675 76.986 64.1901 76.9851 64.2114 76.9787C64.2327 76.9723 64.252 76.9606 64.2678 76.9448C64.2835 76.929 64.295 76.9094 64.3014 76.888C64.3077 76.8665 64.3087 76.8438 64.3041 76.8219L61.2113 63.2072C61.1808 63.0678 61.0964 62.9863 60.958 62.9627L58.1467 62.4877C58.0106 62.4641 57.9074 62.5113 57.837 62.6295Z" fill="#1A1A1A"/>
<path d="M113.945 79.5299C117.832 79.3952 121.7 79.0349 125.549 78.4488C128.181 78.0483 128.779 77.0842 130.693 75.5494C130.794 75.469 130.842 75.4939 130.838 75.6238L130.57 83.3368C130.563 83.5116 130.493 83.5435 130.359 83.4325C128.118 81.5787 126.763 81.6212 123.846 82.1493C122.028 82.4754 118.628 82.7259 113.646 82.9008C113.515 82.9055 113.442 82.974 113.428 83.1064C113.168 85.5238 112.958 87.9482 112.798 90.3798C112.615 93.1516 114.174 94.1654 116.704 94.1087C122.601 93.9811 128.466 93.4706 134.3 92.5774C134.914 92.4829 135.442 92.2702 135.883 91.9394C138.262 90.1565 140.211 87.2429 141.953 84.8857C142.079 84.7109 142.116 84.7286 142.062 84.9389L139.388 95.2571C139.357 95.3729 139.283 95.4402 139.166 95.4591C128.13 97.0518 117.039 97.7088 105.895 97.4299C105.707 97.4252 105.686 97.3638 105.832 97.2456C107.475 95.9058 108.316 95.1756 108.52 92.8681C109.172 85.5025 109.903 78.1452 110.712 70.7961C110.951 68.595 110.684 67.2622 109.069 65.8869C108.916 65.757 108.94 65.6873 109.139 65.6778C119.033 65.139 128.132 63.4306 137.913 60.9316C138.047 60.8962 138.133 60.9446 138.17 61.077L140.51 69.2472C140.55 69.3866 140.514 69.4114 140.401 69.3216C138.867 68.1094 136.97 66.2449 135.081 65.7345C134.546 65.5904 133.921 65.6034 133.206 65.7735C128.629 66.8605 124.009 67.6899 119.346 68.2618C117.922 68.4367 116.923 68.7119 116.348 69.0877C114.923 70.0163 114.498 71.1293 114.332 72.9087C114.135 75.0496 113.943 77.1893 113.755 79.3279C113.741 79.4673 113.805 79.5346 113.945 79.5299Z" fill="#1A1A1A"/>
<path d="M83.5913 91.6133C88.1489 92.5231 92.75 93.1587 97.3944 93.5203C97.9644 93.5652 98.4594 93.4695 98.8792 93.2332C100.712 92.2053 102.475 89.9438 103.802 88.3878C103.959 88.2034 104.005 88.2283 103.939 88.4622L101.578 96.9727C101.547 97.0837 101.475 97.1334 101.36 97.1216C92.4767 96.2732 83.6511 95.0114 74.8829 93.336C74.8555 93.3301 74.8303 93.3162 74.8105 93.296C74.7908 93.2759 74.7774 93.2505 74.7721 93.223C74.7668 93.1955 74.7698 93.1673 74.7808 93.1419C74.7918 93.1166 74.8102 93.0953 74.8337 93.0808C76.4029 92.028 77.0468 91.0285 77.36 89.0435C78.4343 82.1789 79.5426 75.3202 80.685 68.4674C81.0403 66.33 80.9031 65.0008 79.5661 63.4306C79.5494 63.4117 79.539 63.388 79.5363 63.3629C79.5337 63.3377 79.539 63.3124 79.5514 63.2905C79.5639 63.2685 79.5829 63.2511 79.6057 63.2406C79.6285 63.2301 79.6541 63.2271 79.6787 63.2321L84.5307 64.0473C84.6574 64.0686 84.7102 64.143 84.6891 64.2706C83.4623 71.9836 82.239 79.6918 81.0192 87.3953C80.6639 89.639 81.3359 91.1667 83.5913 91.6133Z" fill="#1A1A1A"/>
<path d="M62.2594 136.622C56.4937 136.128 50.7198 135.912 44.9377 135.973C44.8703 135.974 44.8051 135.997 44.7523 136.039C44.6994 136.081 44.662 136.139 44.6457 136.204C43.8716 139.193 43.1538 142.213 42.4923 145.264C42.3305 146.02 42.3328 146.676 42.4994 147.231C43.0483 149.06 44.702 150.651 45.9757 152.027C46.0718 152.131 46.0496 152.183 45.9088 152.183L34.3927 152.215C34.1957 152.217 34.1699 152.151 34.3153 152.016C36.5085 150.024 37.937 147.659 38.6009 144.92C41.4086 133.329 44.6386 121.795 49.1951 110.768C49.2444 110.648 49.3323 110.593 49.459 110.605L56.9922 111.332C57.1305 111.343 57.2197 111.417 57.2596 111.551C60.5623 122.381 64.5652 132.933 69.2683 143.208C71.1225 147.259 72.7727 149.818 76.2384 152.048C76.2584 152.062 76.2737 152.082 76.2819 152.105C76.2902 152.128 76.291 152.153 76.2843 152.176C76.2775 152.199 76.2636 152.219 76.2446 152.233C76.2255 152.247 76.2024 152.254 76.1786 152.254L64.6484 152.211C64.496 152.209 64.4608 152.144 64.5429 152.016C65.8518 149.999 67.5125 148.177 66.3303 145.59C64.9956 142.674 63.7113 139.738 62.4775 136.782C62.4353 136.685 62.3626 136.632 62.2594 136.622ZM51.4364 114.823C49.2549 120.143 47.4394 125.712 45.9581 131.277C45.9252 131.395 45.9698 131.454 46.0918 131.454C50.877 131.461 55.6481 131.719 60.4051 132.227C60.4331 132.23 60.4614 132.226 60.4873 132.215C60.5132 132.204 60.5358 132.186 60.5528 132.164C60.5698 132.141 60.5808 132.115 60.5845 132.086C60.5882 132.058 60.5846 132.03 60.574 132.004C58.4136 126.453 56.4831 120.823 54.7825 115.114C54.745 114.986 54.6594 114.916 54.5257 114.905L51.7073 114.656C51.576 114.645 51.4857 114.7 51.4364 114.823Z" fill="#1A1A1A"/>
<path d="M29.8014 141.496C29.7978 137.423 25.2941 136.119 22.0043 135.591C17.5006 134.868 12.0504 134.619 7.39192 132.975C1.19581 130.791 1.59692 123.727 5.46377 119.672C9.98507 114.926 17.3212 111.332 23.841 112.494C29.6782 113.536 33.2073 117.432 33.1686 123.656C33.1686 123.784 33.1053 123.845 32.9786 123.84L29.2701 123.677C29.127 123.673 29.0578 123.598 29.0625 123.454C29.1915 119.86 27.9553 117.565 25.354 116.571C20.3788 114.664 10.3299 117.776 7.48692 122.564C4.08451 128.292 10.8014 130.022 14.6893 130.515C17.6285 130.886 20.5594 131.31 23.4821 131.787C25.9263 132.187 28.0679 132.951 29.9069 134.081C32.7288 135.814 33.9638 139.486 33.3445 142.747C31.9899 149.918 23.8199 152.909 17.4971 152.945C8.96469 152.994 2.14581 147.522 1.80099 138.536C1.7963 138.38 1.87019 138.299 2.02266 138.292L5.97747 138.125C6.12994 138.118 6.20618 138.19 6.20618 138.341C6.21321 145.987 10.0801 148.599 17.2262 148.61C21.3393 148.617 29.8049 147.366 29.8014 141.496Z" fill="#1A1A1A"/>
<path d="M102.465 148.085C104.242 146.635 105.449 143.275 106.11 141.545C106.129 141.498 106.141 141.499 106.145 141.549L106.979 152.197C106.981 152.213 106.979 152.229 106.974 152.245C106.968 152.26 106.96 152.274 106.949 152.286C106.938 152.299 106.925 152.308 106.91 152.315C106.895 152.321 106.879 152.324 106.863 152.324L78.0113 152.254C77.9834 152.254 77.956 152.246 77.932 152.232C77.908 152.217 77.8882 152.197 77.8749 152.172C77.8615 152.147 77.8551 152.12 77.8562 152.091C77.8573 152.063 77.8659 152.036 77.8811 152.012C79.095 150.098 79.2991 148.489 78.8839 146.111C77.3217 137.157 76.0374 128.257 75.6011 119.162C75.485 116.755 75.0874 115.351 73.5146 113.731C73.4972 113.713 73.4858 113.69 73.4819 113.664C73.4781 113.639 73.482 113.614 73.4931 113.591C73.5042 113.568 73.5221 113.549 73.5442 113.537C73.5663 113.525 73.5916 113.519 73.6167 113.522L78.7256 114.231C78.8757 114.252 78.9531 114.339 78.9578 114.49C79.2885 125.185 80.3769 135.013 82.223 143.973C82.5443 145.533 83.4146 146.672 84.8337 147.39C85.4412 147.698 86.2611 147.859 87.2932 147.876C92.2449 147.963 97.1943 148.071 102.141 148.199C102.259 148.201 102.374 148.161 102.465 148.085Z" fill="#1A1A1A"/>
<path d="M114.488 136.154C115.023 140.516 115.5 143.496 115.92 145.094C116.284 146.481 117.073 147.464 118.288 148.043C118.985 148.376 120.139 148.552 121.75 148.571C126.352 148.625 130.956 148.668 135.56 148.698C136.147 148.703 136.639 148.574 137.038 148.312C138.987 147.029 140.617 144.285 141.904 142.375C142.003 142.226 142.035 142.239 141.999 142.414L140.011 152.222C139.99 152.33 139.926 152.385 139.818 152.385L111.269 152.353C111.107 152.353 111.079 152.291 111.184 152.168C112.357 150.812 112.792 149.371 112.49 147.844C110.545 138 109.236 129.195 108.563 121.43C108.422 119.796 106.983 118.52 105.892 117.464C105.768 117.343 105.793 117.288 105.966 117.297C116.536 117.942 127.108 117.978 137.682 117.403C137.797 117.396 137.871 117.448 137.904 117.559L140.532 126.233C140.595 126.436 140.55 126.465 140.395 126.318C138.678 124.698 136.834 122.61 134.688 121.6C134.169 121.354 133.545 121.245 132.816 121.271C127.735 121.448 122.656 121.458 117.577 121.302C114.952 121.225 112.824 121.841 113.091 124.897C113.305 127.331 113.577 129.749 113.907 132.152C113.924 132.273 113.992 132.337 114.112 132.344C118.16 132.564 122.206 132.694 126.25 132.734C128.252 132.751 129.635 132.025 130.877 130.579C130.893 130.561 130.914 130.548 130.936 130.541C130.959 130.535 130.983 130.536 131.006 130.543C131.028 130.55 131.047 130.564 131.061 130.582C131.076 130.6 131.084 130.623 131.085 130.646L131.62 138.543C131.629 138.678 131.581 138.704 131.475 138.621C129.801 137.324 128.998 136.388 126.69 136.346C122.674 136.27 118.66 136.148 114.646 135.98C114.527 135.976 114.474 136.034 114.488 136.154Z" fill="#1A1A1A"/>
</g>
<defs>
<clipPath id="clip0_857_12614">
<rect width="144" height="153" fill="white" transform="translate(0 0.285156)"/>
</clipPath>
</defs>
</svg>
