<svg width="20" height="20" viewBox="0 0 20 20" fill="none" xmlns="http://www.w3.org/2000/svg">
<g clip-path="url(#clip0_1_10052)">
<path d="M10 0C15.4177 0 19.8306 4.31061 19.9952 9.68858L20 10C20 14.862 16.5285 18.9146 11.9294 19.814L11.9299 13.2659H14.5097L14.8968 10.155H11.9299V8.16778C11.9299 7.2669 12.17 6.65258 13.4144 6.65258H15V3.87162C14.7261 3.83453 13.7835 3.75 12.688 3.75C10.4017 3.75 8.8359 5.19923 8.8359 7.86268V10.1571H6.25V13.2679H8.8359L8.8351 19.9329C3.96277 19.3674 0.157381 15.2983 0.00475884 10.3114L0 10C0 4.58219 4.31061 0.169353 9.68858 0.00475884L10 0Z" fill="white"/>
</g>
<defs>
<clipPath id="clip0_1_10052">
<rect width="20" height="20" fill="white"/>
</clipPath>
</defs>
</svg>
