<svg width="20" height="20" viewBox="0 0 20 20" fill="none" xmlns="http://www.w3.org/2000/svg">
<g clip-path="url(#clip0_1_10054)">
<path d="M11.4148 0C12.8874 0.004671 13.2758 0.0197468 14.1175 0.0568569C15.1838 0.106663 15.9103 0.276586 16.5459 0.522685C17.205 0.780502 17.7616 1.12035 18.3181 1.677C18.8748 2.23072 19.2175 2.7903 19.4724 3.44364C19.7213 4.08232 19.8883 4.8089 19.9381 5.87239C19.9485 6.09456 19.9571 6.2852 19.9645 6.47236L19.9726 6.69706C19.9913 7.26365 19.998 7.8999 19.9994 9.36328V10.6258C19.9974 12.7721 19.9838 13.1391 19.9381 14.1166C19.8883 15.1831 19.7184 15.9096 19.4724 16.5455C19.2145 17.2046 18.8748 17.7612 18.3181 18.3179C17.7645 18.8746 17.205 19.2174 16.5518 19.4722C15.9133 19.7213 15.1868 19.8883 14.1234 19.9381C13.9013 19.9485 13.7106 19.9571 13.5235 19.9645L13.2989 19.9726C12.8079 19.9888 12.2646 19.996 11.176 19.9985L10.633 19.9994C10.4379 19.9995 10.2281 19.9996 10.0019 19.9996L9.67455 19.9995C9.56943 19.9995 9.46821 19.9994 9.37068 19.9994L8.82773 19.9985C7.73911 19.996 7.19581 19.9888 6.70485 19.9726L6.48018 19.9645C6.29305 19.9571 6.10244 19.9485 5.8803 19.9381C4.81403 19.8883 4.08755 19.7184 3.45189 19.4722C2.7928 19.2144 2.23623 18.8746 1.67966 18.3179C1.12309 17.7642 0.780364 17.2046 0.525513 16.5513C0.276521 15.9126 0.109545 15.186 0.0597478 14.1225C0.020324 13.2783 0.00477125 12.8894 0 11.4165V8.5843C0.00477125 7.11139 0.020324 6.72251 0.0597478 5.87825C0.109545 4.81182 0.279451 4.08525 0.525513 3.4495C0.783293 2.7903 1.12309 2.23365 1.67966 1.677C2.2333 1.12035 2.7928 0.777573 3.44896 0.525615C4.08755 0.276587 4.81403 0.109591 5.87736 0.0597859C6.14393 0.0473345 6.36511 0.0372636 6.58934 0.029161L6.81636 0.0216996C7.24108 0.00916679 7.73041 0.00278872 8.58303 2.6226e-05L11.4148 0ZM10.8954 1.80053H9.1024C7.86059 1.8021 7.28773 1.80804 6.7704 1.82474L6.55031 1.83256C6.36675 1.83968 6.1791 1.84827 5.9594 1.85865C4.98394 1.90552 4.45373 2.06666 4.1022 2.20436C3.63644 2.386 3.3025 2.6028 2.95391 2.95144C2.60533 3.30008 2.38855 3.63408 2.20694 4.0999C2.06926 4.45146 1.90521 4.98175 1.86128 5.95735C1.8509 6.17709 1.84231 6.36477 1.8352 6.54836L1.82738 6.7685C1.81306 7.21199 1.80665 7.69627 1.80413 8.60773L1.80318 9.10084C1.80306 9.18955 1.80296 9.28167 1.80289 9.37745L1.80295 10.6175C1.80428 12.054 1.81094 12.6721 1.82866 13.2265L1.83635 13.4466C1.84328 13.6301 1.85151 13.8179 1.86128 14.0376C1.90815 15.0131 2.06926 15.5435 2.20694 15.895C2.38855 16.3609 2.60533 16.6949 2.95391 17.0435C3.3025 17.3921 3.63644 17.609 4.1022 17.7906C4.45373 17.9282 4.98394 18.0924 5.9594 18.1362C6.1791 18.1466 6.36675 18.1552 6.55031 18.1624L6.7704 18.1702C7.28773 18.1869 7.86059 18.1929 9.1024 18.1944L10.6188 18.1946C10.7146 18.1945 10.8067 18.1944 10.8954 18.1943L11.3885 18.1931C12.2998 18.1903 12.784 18.1831 13.2274 18.1689L13.4475 18.1613C13.6311 18.1543 13.8188 18.146 14.0384 18.1362C15.0139 18.0894 15.5441 17.9282 15.8956 17.7906C16.3614 17.609 16.6954 17.3921 17.0439 17.0435C17.3925 16.6949 17.6093 16.3609 17.7909 15.895C17.9286 15.5435 18.0926 15.0131 18.1365 14.0376C18.1469 13.8179 18.1555 13.6301 18.1626 13.4466L18.1705 13.2265C18.1871 12.709 18.1931 12.1361 18.1946 10.8941L18.1945 9.10084C18.1926 7.85884 18.1858 7.2859 18.1691 6.7685L18.1615 6.54836C18.1545 6.36477 18.1463 6.17709 18.1365 5.95735C18.0896 4.98175 17.9286 4.45146 17.7909 4.0999C17.6093 3.63408 17.3925 3.30008 17.0439 2.95144C16.6954 2.6028 16.3614 2.386 15.8956 2.20436C15.5441 2.06666 15.0139 1.9026 14.0384 1.85865C13.8188 1.84827 13.6311 1.83968 13.4475 1.83256L13.2274 1.82474C12.7101 1.80804 12.1372 1.8021 10.8954 1.80053ZM9.99891 4.9986C12.7601 4.9986 14.9993 7.23776 14.9993 9.99894C14.9993 12.7601 12.7601 14.9993 9.99891 14.9993C7.23775 14.9993 4.99858 12.7601 4.99858 9.99894C4.99858 7.23776 7.23775 4.9986 9.99891 4.9986ZM9.99891 6.75285C8.20758 6.75285 6.75284 8.20475 6.75284 9.99894C6.75284 11.7931 8.20758 13.245 9.99891 13.245C11.7903 13.245 13.245 11.7931 13.245 9.99894C13.245 8.20475 11.7903 6.75285 9.99891 6.75285ZM15.416 4.16521C16.1064 4.16521 16.666 4.72489 16.666 5.41529C16.666 6.1057 16.1064 6.66538 15.416 6.66538C14.7255 6.66538 14.1659 6.1057 14.1659 5.41529C14.1659 4.72489 14.7255 4.16521 15.416 4.16521Z" fill="white"/>
</g>
<defs>
<clipPath id="clip0_1_10054">
<rect width="20" height="20" fill="white"/>
</clipPath>
</defs>
</svg>
