<svg width="150" height="114" viewBox="0 0 150 114" fill="none" xmlns="http://www.w3.org/2000/svg">
<path d="M41.6371 91.9261H26.7398L43.8602 73.7563L43.8885 73.7256V71.3188H25.2715L24.2076 78.111C24.2076 78.111 26.4513 73.7538 27.6131 73.7538H40.4521L23.2725 91.9261V94.3303H43.9349L45.0143 87.5406C45.0143 87.5406 42.8143 91.9261 41.6371 91.9261Z" fill="white"/>
<path d="M72.4544 82.4145C72.4544 75.8709 66.8257 70.5679 60.2517 70.5679C53.6776 70.5679 48.0464 75.8709 48.0464 82.4145C48.0464 88.958 53.675 94.2611 60.2517 94.2611C66.8283 94.2611 72.4544 88.958 72.4544 82.4145ZM50.5786 82.4145C50.5786 77.3959 54.7544 72.9644 60.2517 72.9644C65.749 72.9644 69.9221 77.3959 69.9221 82.4145C69.9221 87.3535 65.7464 91.8594 60.2517 91.8594C54.757 91.8594 50.5812 87.3535 50.5812 82.4145H50.5786Z" fill="white"/>
<path d="M96.4777 74.2664V91.9261H95.1433L83.1931 71.3188H77.4614V91.3853C77.4541 91.9726 77.3006 92.549 77.0147 93.0629C76.7288 93.5768 76.3194 94.0123 75.823 94.3303H81.632C81.632 94.3303 79.991 93.3178 79.991 91.3853V73.7256H81.7582L93.7213 94.3303H99.0074V74.2664C98.9977 73.6755 99.1439 73.0923 99.4314 72.5752C99.7188 72.058 100.138 71.6248 100.646 71.3188H94.8393C95.3476 71.6248 95.7663 72.058 96.0537 72.5752C96.3412 73.0923 96.4874 73.6755 96.4777 74.2664Z" fill="white"/>
<path d="M120.329 91.9286H110.097C109.482 91.9286 108.892 91.6856 108.457 91.253C108.022 90.8204 107.778 90.2337 107.778 89.6219V83.8447H115.483C116.805 83.8447 117.943 85.4774 117.943 85.4774V79.8591C117.943 79.8591 116.725 81.4379 115.488 81.4379H107.778V76.0554C107.778 75.4375 108.025 74.8449 108.464 74.408C108.903 73.9711 109.499 73.7256 110.12 73.7256H119.52C120.713 73.7256 123.242 77.4985 123.242 77.4985L121.843 71.3188H103.6C103.6 71.3188 105.238 72.4671 105.238 74.2664V91.3366C105.233 91.9309 105.08 92.5148 104.795 93.0369C104.509 93.5589 104.099 94.003 103.6 94.3303H122.663L124.051 87.5381C124.051 87.5381 121.496 91.9286 120.329 91.9286Z" fill="white"/>
<path d="M18.0323 47.3917C19.699 46.246 20.5543 44.6236 20.5414 42.0477C20.5259 39.1052 17.9911 36.7856 15.0338 36.7856H0C0 36.7856 1.63836 37.4879 1.63836 39.7332V56.8674C1.63146 57.4531 1.47807 58.0278 1.19203 58.5398C0.905993 59.0517 0.496321 59.4847 0 59.7996H15.4099C18.715 59.7996 21.5563 57.1981 21.5357 53.9045C21.5177 50.8314 20.3276 48.5989 18.0323 47.3917ZM4.18607 41.6709C4.18573 41.3453 4.24993 41.0229 4.375 40.722C4.50007 40.4211 4.68354 40.1478 4.91492 39.9176C5.1463 39.6874 5.42105 39.5048 5.72343 39.3804C6.02581 39.2559 6.34988 39.192 6.6771 39.1924H14.0961C16.7572 39.1924 18.8051 41.4223 17.7026 44.1315C17.0766 45.6693 15.4846 46.2844 13.8153 46.2844H4.18607V41.6709ZM14.346 57.3954H6.51997C5.90366 57.3914 5.31399 57.1449 4.87964 56.7099C4.44528 56.2748 4.20151 55.6865 4.20153 55.0733V48.6963H14.0059C16.2574 48.6963 18.3492 49.8702 18.9004 52.0463C19.6423 55.0758 17.311 57.3929 14.346 57.3954Z" fill="white"/>
<path d="M24.7739 59.8022H43.8367L45.2251 53.01C45.2251 53.01 42.6826 57.3954 41.5182 57.3954H31.2656C30.6507 57.3954 30.061 57.1524 29.6262 56.7198C29.1914 56.2872 28.9471 55.7005 28.9471 55.0887V49.3115H36.6521C37.9736 49.3115 39.1122 50.9441 39.1122 50.9441V45.3259C39.1122 45.3259 37.8937 46.9047 36.6572 46.9047H28.9497V41.5222C28.9494 41.2162 29.0097 40.9131 29.1272 40.6302C29.2448 40.3474 29.4173 40.0904 29.6348 39.874C29.8523 39.6576 30.1106 39.486 30.3948 39.3691C30.6791 39.2521 30.9837 39.192 31.2913 39.1924H40.6913C41.884 39.1924 44.4137 42.9653 44.4137 42.9653L43.0149 36.7856H24.7739C24.7739 36.7856 26.4123 37.9365 26.4123 39.7358V56.8059C26.4066 57.4007 26.2543 57.9849 25.9686 58.5073C25.683 59.0298 25.2727 59.4744 24.7739 59.8022Z" fill="white"/>
<path d="M65.2764 39.2026L64.3207 36.7856H58.3958L57.4401 39.1924L50.5569 56.3984C49.3333 58.9435 47.2957 59.7996 47.2957 59.7996H55.3484C55.3484 59.7996 52.7466 57.9234 53.1536 56.7239L55.1964 51.6131L55.879 49.9163L68.6768 54.5299L69.5346 56.6726C70.0112 57.8722 67.3399 59.7868 67.3399 59.7868H75.4106C75.4106 59.7868 73.3626 58.9307 72.1364 56.3599L65.2764 39.2026ZM60.1784 39.2026H62.5484L66.5516 49.2166H66.5284L67.3785 51.4798L56.7987 47.6557L60.1784 39.2026Z" fill="white"/>
<path d="M98.915 36.7856H93.1035C93.6209 37.0823 94.0471 37.5138 94.3362 38.0337C94.6254 38.5535 94.7665 39.142 94.7444 39.7358V49.9471C94.7444 55.4603 92.5136 57.7466 86.6041 57.7466C80.6947 57.7466 78.4844 55.4603 78.4844 49.9471V39.746C78.4844 37.816 80.1228 36.7959 80.1228 36.7959H74.3215C74.8314 37.1007 75.2513 37.534 75.539 38.052C75.8267 38.57 75.9719 39.1543 75.9599 39.746V49.8574C75.9599 58.0029 80.8904 60.1687 86.6144 60.1687C92.3384 60.1687 97.2767 57.9926 97.2767 49.8574V39.7563C97.2505 39.1594 97.3894 38.5668 97.6783 38.043C97.9671 37.5192 98.3949 37.0843 98.915 36.7856Z" fill="white"/>
<path d="M124.558 36.7856H102.404V36.8933L101.348 42.9653C101.348 42.9653 103.841 39.1949 105.034 39.1949H110.575C111.582 39.7076 112.216 40.1612 112.216 41.2916V56.8521C112.226 57.4433 112.08 58.0268 111.792 58.5441C111.504 59.0614 111.084 59.4944 110.575 59.7996H116.384C115.888 59.4805 115.479 59.0445 115.193 58.5303C114.907 58.0161 114.754 57.4396 114.746 56.8521V41.3146C114.746 40.1817 115.372 39.7332 116.376 39.2052H121.928C123.12 39.2052 125.609 42.9729 125.609 42.9729L124.558 36.9035V36.7856Z" fill="white"/>
<path d="M143.581 36.7856C143.581 36.7856 145.175 37.8673 144.003 39.7358L138.428 48.6425L132.869 39.7358C131.697 37.8673 133.292 36.7856 133.292 36.7856H126.872C126.872 36.7856 129.191 37.8673 130.363 39.7358L137.182 50.6135V56.8469C137.182 58.718 135.543 59.7996 135.543 59.7996H141.329C141.329 59.7996 139.691 58.718 139.691 56.8469V50.6135L146.509 39.7358C147.682 37.8673 150 36.7856 150 36.7856H143.581Z" fill="white"/>
<path d="M49.5713 112.012C49.3039 112.147 49.0081 112.216 48.7083 112.214C48.2801 112.23 47.8614 112.087 47.5337 111.812C47.3873 111.687 47.2698 111.532 47.1892 111.358C47.1087 111.184 47.0669 110.994 47.0669 110.802C47.0669 110.61 47.1087 110.421 47.1892 110.246C47.2698 110.072 47.3873 109.917 47.5337 109.792C47.8608 109.516 48.2797 109.372 48.7083 109.387C48.9958 109.383 49.2808 109.442 49.543 109.559C49.7836 109.664 49.9917 109.832 50.1458 110.044L50.6043 109.723C50.3991 109.445 50.1247 109.225 49.8083 109.085C49.4628 108.93 49.0873 108.852 48.7083 108.857C48.1219 108.833 47.5484 109.032 47.1035 109.413C46.9052 109.588 46.7465 109.803 46.6378 110.044C46.5291 110.284 46.4729 110.545 46.4729 110.809C46.4729 111.072 46.5291 111.333 46.6378 111.574C46.7465 111.814 46.9052 112.029 47.1035 112.204C47.5506 112.581 48.123 112.777 48.7083 112.755C49.1123 112.764 49.5125 112.676 49.8753 112.499C50.2158 112.327 50.5026 112.065 50.7048 111.743L50.2411 111.422C50.0692 111.67 49.8393 111.872 49.5713 112.012Z" fill="white"/>
<path d="M55.4917 108.857C54.8999 108.833 54.3204 109.03 53.8662 109.408C53.6617 109.578 53.4982 109.792 53.388 110.033C53.2779 110.274 53.2238 110.537 53.23 110.802C53.2257 111.068 53.2805 111.33 53.3905 111.572C53.5006 111.813 53.663 112.028 53.8662 112.199C54.3324 112.559 54.9056 112.754 55.4956 112.754C56.0856 112.754 56.6588 112.559 57.1249 112.199C57.3244 112.024 57.4842 111.809 57.5937 111.568C57.7031 111.327 57.7597 111.066 57.7597 110.801C57.7597 110.537 57.7031 110.275 57.5937 110.034C57.4842 109.793 57.3244 109.578 57.1249 109.403C56.6667 109.027 56.0851 108.833 55.4917 108.857ZM56.6999 111.817C56.3514 112.075 55.9286 112.215 55.4943 112.215C55.06 112.215 54.6372 112.075 54.2887 111.817C54.1432 111.691 54.0267 111.535 53.9468 111.36C53.8669 111.185 53.8256 110.995 53.8256 110.802C53.8256 110.61 53.8669 110.42 53.9468 110.245C54.0267 110.07 54.1432 109.914 54.2887 109.787C54.6358 109.527 55.0585 109.387 55.493 109.387C55.9275 109.387 56.3502 109.527 56.6973 109.787C56.8446 109.913 56.9629 110.068 57.044 110.243C57.1252 110.418 57.1672 110.608 57.1672 110.801C57.1672 110.994 57.1252 111.184 57.044 111.359C56.9629 111.534 56.8446 111.69 56.6973 111.815L56.6999 111.817Z" fill="white"/>
<path d="M63.2036 110.659C62.7964 110.435 62.3334 110.332 61.8692 110.362C61.5675 110.379 61.2652 110.344 60.9753 110.259C60.8999 110.237 60.8338 110.191 60.7872 110.128C60.7407 110.066 60.7162 109.989 60.7177 109.911C60.7201 109.829 60.7455 109.75 60.791 109.682C60.8366 109.614 60.9004 109.56 60.9753 109.526C61.1838 109.42 61.4163 109.37 61.6502 109.38C61.9131 109.381 62.1741 109.424 62.423 109.508C62.688 109.592 62.9396 109.713 63.1701 109.867L63.4586 109.388C63.191 109.217 62.9005 109.084 62.5956 108.993C62.2957 108.903 61.9841 108.857 61.6708 108.857C61.2787 108.838 60.8901 108.939 60.558 109.147C60.4287 109.229 60.3229 109.343 60.2507 109.478C60.1786 109.613 60.1424 109.763 60.1458 109.916C60.1332 110.06 60.1619 110.205 60.2284 110.334C60.295 110.463 60.3967 110.57 60.5219 110.644C60.7795 110.79 61.2355 110.869 61.9078 110.877C62.2089 110.867 62.5084 110.925 62.7837 111.046C62.8696 111.091 62.9414 111.158 62.9906 111.241C63.0398 111.324 63.0645 111.419 63.0619 111.515C63.0609 111.62 63.0324 111.722 62.979 111.812C62.9256 111.902 62.8494 111.977 62.7579 112.028C62.518 112.173 62.2399 112.244 61.9593 112.23C61.6668 112.227 61.3766 112.179 61.0989 112.087C60.8036 111.995 60.5233 111.862 60.2669 111.69L59.9861 112.174C60.2873 112.364 60.6144 112.51 60.9572 112.607C61.3045 112.709 61.6644 112.76 62.0263 112.761C62.4482 112.78 62.8643 112.658 63.2087 112.415C63.3506 112.319 63.4665 112.19 63.5465 112.039C63.6264 111.888 63.6679 111.719 63.6672 111.549C63.676 111.373 63.6377 111.198 63.5562 111.042C63.4747 110.885 63.353 110.753 63.2036 110.659Z" fill="white"/>
<path d="M67.9884 111.761L66.4737 109.605H65.9919V113.286H66.5716V110.641L67.9884 112.686L69.4078 110.641V113.286H69.9848V109.605H69.5057L67.9884 111.761Z" fill="white"/>
<path d="M74.0812 111.592H75.9772V111.064H74.0812V110.144H76.969V109.605H73.499V113.286H77.1312V112.756H74.0812V111.592Z" fill="white"/>
<path d="M78.7542 110.118H80.3152V113.286H80.8897V110.118H82.4533V109.605H78.7542V110.118Z" fill="white"/>
<path d="M85.3499 109.605H84.76V113.294H85.3499V109.605Z" fill="white"/>
<path d="M90.8637 112.022C90.5931 112.155 90.2945 112.221 89.993 112.214C89.5657 112.229 89.148 112.086 88.8209 111.812C88.6741 111.687 88.5562 111.533 88.4754 111.358C88.3946 111.184 88.3528 110.994 88.3528 110.802C88.3528 110.61 88.3946 110.421 88.4754 110.246C88.5562 110.072 88.6741 109.917 88.8209 109.792C89.1481 109.517 89.567 109.372 89.9955 109.387C90.283 109.383 90.568 109.442 90.8302 109.559C91.0711 109.665 91.2799 109.832 91.4355 110.044L91.8941 109.723C91.6873 109.446 91.4123 109.226 91.0955 109.085C90.7502 108.929 90.3746 108.851 89.9955 108.857C89.4091 108.833 88.8356 109.032 88.3907 109.413C88.1931 109.589 88.0351 109.804 87.9269 110.044C87.8186 110.285 87.7627 110.545 87.7627 110.809C87.7627 111.072 87.8186 111.333 87.9269 111.573C88.0351 111.814 88.1931 112.029 88.3907 112.204C88.8378 112.581 89.4102 112.777 89.9955 112.755C90.3996 112.765 90.7999 112.677 91.1625 112.499C91.5037 112.327 91.7913 112.065 91.9945 111.743L91.5309 111.422C91.3614 111.674 91.1323 111.88 90.8637 112.022Z" fill="white"/>
<path d="M97.7368 110.659C97.3296 110.435 96.8666 110.332 96.4024 110.362C96.1007 110.379 95.7984 110.344 95.5085 110.259C95.4331 110.237 95.367 110.191 95.3204 110.128C95.2739 110.066 95.2494 109.989 95.2509 109.911C95.2533 109.829 95.2787 109.75 95.3242 109.682C95.3698 109.614 95.4336 109.56 95.5085 109.526C95.717 109.42 95.9495 109.37 96.1834 109.38C96.4463 109.381 96.7073 109.424 96.9562 109.508C97.2214 109.591 97.4731 109.712 97.7033 109.867L97.9918 109.388C97.7242 109.217 97.4337 109.084 97.1288 108.993C96.8289 108.903 96.5173 108.857 96.204 108.857C95.8119 108.838 95.4233 108.939 95.0912 109.147C94.9619 109.229 94.8561 109.343 94.784 109.478C94.7118 109.613 94.6756 109.763 94.679 109.916C94.6664 110.06 94.6951 110.205 94.7616 110.334C94.8282 110.463 94.9299 110.57 95.0551 110.644C95.3127 110.79 95.7687 110.869 96.441 110.877C96.7421 110.867 97.0416 110.925 97.3169 111.046C97.4029 111.091 97.4746 111.158 97.5238 111.241C97.573 111.324 97.5977 111.419 97.5951 111.515C97.5941 111.62 97.5656 111.722 97.5122 111.812C97.4588 111.902 97.3826 111.977 97.2911 112.028C97.0512 112.173 96.7731 112.244 96.4925 112.23C96.2 112.227 95.9098 112.179 95.6321 112.087C95.3369 111.995 95.0565 111.862 94.8001 111.69L94.5193 112.174C94.8205 112.364 95.1476 112.51 95.4905 112.607C95.8377 112.709 96.1976 112.76 96.5595 112.761C96.9821 112.779 97.3989 112.658 97.7445 112.415C97.8855 112.318 98.0008 112.189 98.0802 112.038C98.1597 111.887 98.2009 111.719 98.2005 111.549C98.2092 111.373 98.1709 111.198 98.0894 111.042C98.0079 110.885 97.8862 110.753 97.7368 110.659Z" fill="white"/>
<path d="M33.9654 16.8867L34.4857 16.5099L33.2235 14.7773L33.5815 12.0117L32.8731 12.5218L32.6387 14.5159L30.6423 14.1288L29.957 14.6209L32.7082 15.1618L33.9654 16.8867Z" fill="white"/>
<path d="M36.9644 13.6379C37.6285 13.7166 38.3001 13.5728 38.873 13.2294C39.4458 12.8859 39.8873 12.3623 40.1277 11.7413C40.2185 11.4554 40.2471 11.1537 40.2117 10.856C40.1762 10.5584 40.0774 10.2716 39.922 10.0149C39.7665 9.75811 39.5579 9.53722 39.31 9.36689C39.0621 9.19655 38.7806 9.08067 38.4842 9.02695C37.8199 8.95419 37.1499 9.10132 36.5781 9.44558C36.0062 9.78983 35.5644 10.312 35.3208 10.9313C35.2232 11.2153 35.1907 11.5174 35.226 11.8155C35.2612 12.1136 35.3631 12.4 35.5244 12.6537C35.676 12.9137 35.8839 13.1369 36.133 13.3072C36.382 13.4774 36.666 13.5904 36.9644 13.6379ZM35.9546 11.0518C36.1397 10.5979 36.4677 10.216 36.8894 9.96325C37.3111 9.71049 37.8038 9.60051 38.2936 9.64978C38.5103 9.685 38.7167 9.76658 38.8986 9.88891C39.0805 10.0112 39.2336 10.1714 39.3472 10.3583C39.4608 10.5452 39.5324 10.7544 39.5568 10.9715C39.5813 11.1886 39.5581 11.4084 39.4889 11.6157C39.3043 12.0695 38.9768 12.4517 38.5556 12.7049C38.1344 12.9581 37.6421 13.0687 37.1524 13.0202C36.9362 12.9834 36.7305 12.9008 36.5492 12.7779C36.368 12.655 36.2154 12.4948 36.1017 12.3081C35.9881 12.1215 35.9162 11.9127 35.8908 11.6959C35.8654 11.4791 35.8872 11.2595 35.9546 11.0518Z" fill="white"/>
<path d="M43.369 11.1474C43.7554 11.2123 44.2801 11.0868 44.943 10.7706C45.6076 10.4554 46.0352 10.1247 46.231 9.77872C46.3273 9.5901 46.3742 9.38036 46.3675 9.16891C46.3607 8.95746 46.3005 8.75111 46.1924 8.56895L44.9584 6.00586L44.3685 6.28524L45.5277 8.6971C45.7003 9.0585 45.7338 9.343 45.6231 9.55061C45.5123 9.75822 45.2006 9.98377 44.6905 10.2273C44.1805 10.4708 43.8121 10.5682 43.5803 10.5246C43.3484 10.481 43.1449 10.2683 42.9723 9.91457L41.8131 7.5027L41.218 7.78464L42.4519 10.3477C42.5265 10.546 42.6493 10.7228 42.8093 10.8624C42.9694 11.0019 43.1617 11.0999 43.369 11.1474Z" fill="white"/>
<path d="M48.5337 8.55838L47.9026 6.85906L49.6157 6.2311L51.3622 7.53315L52.032 7.28966L50.3035 5.96967C50.5648 5.82931 50.7655 5.59865 50.8676 5.3212C50.9719 5.05764 50.9719 4.76458 50.8676 4.50101C50.8203 4.34722 50.7384 4.20615 50.6281 4.08849C50.5179 3.97082 50.3822 3.87962 50.2313 3.8218C49.8847 3.71412 49.5108 3.73413 49.1777 3.87818L46.4729 4.87523L47.9155 8.78137L48.5337 8.55838ZM47.2972 5.21355L49.389 4.44463C49.5586 4.37081 49.7484 4.35635 49.9274 4.40362C50.0013 4.43126 50.0679 4.47546 50.122 4.53279C50.176 4.59012 50.2161 4.65905 50.2391 4.73426C50.2713 4.80671 50.2862 4.88562 50.2827 4.96478C50.2791 5.04394 50.2571 5.1212 50.2185 5.19049C50.1138 5.34303 49.9589 5.4545 49.7805 5.50575L47.6888 6.27467L47.2972 5.21355Z" fill="white"/>
<path d="M58.4567 5.55115L58.0702 3.64934L60.958 3.07008L61.3444 4.96933L61.9858 4.84118L61.1563 0.750488L60.5149 0.881206L60.8369 2.47032L57.9492 3.05214L57.6272 1.46046L56.9832 1.59118L57.8126 5.67931L58.4567 5.55115Z" fill="white"/>
<path d="M67.5357 4.12657L67.4713 3.52937L64.0323 3.90358L63.8906 2.59385L66.0287 2.3606L65.9618 1.76084L63.8237 1.99408L63.7103 0.958595L66.9664 0.607452L66.8994 0L62.989 0.425473L63.445 4.57255L67.5357 4.12657Z" fill="white"/>
<path d="M69.4392 3.15004L71.6546 3.09365L72.2265 4.13939L72.9297 4.11888L70.6705 0L70.2635 0.0153785L68.2439 4.24191L68.9369 4.22397L69.4392 3.15004ZM70.4928 0.973974L71.3506 2.56309L69.7097 2.6041L70.4928 0.973974Z" fill="white"/>
<path d="M78.0468 3.76261L74.9401 3.60114L75.1282 0.0358832L74.4713 0L74.2498 4.16758L78.0159 4.36494L78.0468 3.76261Z" fill="white"/>
<path d="M80.0911 4.34956L80.7403 4.42389L81.1576 0.856071L82.9196 1.06112L82.9866 0.484424L78.8211 0L78.7542 0.579258L80.5084 0.781742L80.0911 4.34956Z" fill="white"/>
<path d="M84.2915 3.07008L87.1793 3.6519L86.7903 5.55372L87.4292 5.68187L88.2664 1.59374L87.6249 1.46559L87.3004 3.0547L84.4126 2.47032L84.7398 0.881206L84.0932 0.750488L83.2585 4.83861L83.9026 4.96933L84.2915 3.07008Z" fill="white"/>
<path d="M90.6563 6.79375L91.272 6.97572L91.8825 4.92525L94.304 3.51812L93.4668 3.2695L91.7357 4.30242L90.8263 2.49288L90.0149 2.25195L91.2643 4.75096L90.6563 6.79375Z" fill="white"/>
<path d="M101.608 9.94968C101.7 9.77522 101.745 9.5796 101.737 9.38252C101.73 9.18544 101.67 8.99385 101.564 8.82705C101.25 8.40663 100.822 8.0846 100.33 7.89921C100.008 7.77053 99.7101 7.58855 99.4491 7.36096C99.3823 7.30219 99.3366 7.22334 99.3189 7.13637C99.3012 7.0494 99.3126 6.95907 99.3512 6.8791C99.3946 6.79824 99.4598 6.73097 99.5394 6.68481C99.619 6.63865 99.7099 6.6154 99.802 6.61766C100.07 6.60558 100.336 6.663 100.575 6.78426C100.841 6.90801 101.085 7.07328 101.299 7.27381C101.531 7.48423 101.733 7.72677 101.896 7.99404L102.412 7.63777C102.215 7.33581 101.979 7.06164 101.708 6.82271C101.441 6.59082 101.142 6.39833 100.82 6.25114C100.424 6.04411 99.974 5.96525 99.5315 6.02559C99.3627 6.05137 99.203 6.11914 99.0675 6.22264C98.9319 6.32614 98.8249 6.46201 98.7561 6.61766C98.6756 6.76082 98.6367 6.9235 98.644 7.08742C98.6513 7.25134 98.7044 7.40998 98.7974 7.5455C98.988 7.81463 99.4259 8.11194 100.116 8.43746C100.43 8.56959 100.71 8.77018 100.935 9.0244C101.005 9.10915 101.048 9.21228 101.06 9.32112C101.071 9.42995 101.05 9.53974 101 9.63698C100.949 9.74418 100.871 9.8363 100.773 9.9042C100.676 9.97209 100.562 10.0134 100.443 10.024C100.128 10.0601 99.8082 10.0012 99.5264 9.85484C99.2256 9.71437 98.9484 9.52849 98.7046 9.30378C98.445 9.07025 98.2203 8.80096 98.0374 8.5041L97.5222 8.87062C97.7431 9.20744 98.0112 9.51123 98.3182 9.77283C98.6288 10.0402 98.9757 10.2628 99.3486 10.4341C99.7757 10.6512 100.263 10.7215 100.735 10.634C100.925 10.5991 101.104 10.5185 101.256 10.3993C101.408 10.28 101.529 10.1257 101.608 9.94968Z" fill="white"/>
<path d="M104.125 10.8363L105.237 10.6235L105.624 13.4814L106.265 13.8428L105.827 10.5185L108.092 10.0879L107.337 9.66495L104.49 10.1929L105.405 8.58076L104.83 8.25781L102.777 11.8846L103.349 12.2075L104.125 10.8363Z" fill="white"/>
<path d="M109.57 10.7544L107.282 14.2637L107.841 14.6249L110.129 11.1156L109.57 10.7544Z" fill="white"/>
<path d="M110.054 16.4941L111.808 14.1514L112.19 18.0755L112.465 18.2805L114.969 14.9331L114.451 14.5512L112.694 16.9016L112.313 12.9673L112.038 12.7622L109.534 16.1096L110.054 16.4941Z" fill="white"/>
</svg>
