<svg width="40" height="24" viewBox="0 0 40 24" fill="none" xmlns="http://www.w3.org/2000/svg">
<rect width="40" height="24" rx="4" fill="white"/>
<path fill-rule="evenodd" clip-rule="evenodd" d="M14.6541 19.5109V20.5294V21.548H14.2077V21.3007C14.0661 21.4841 13.8513 21.5992 13.5593 21.5992C12.9836 21.5992 12.5322 21.1519 12.5322 20.5294C12.5322 19.9075 12.9836 19.4597 13.5593 19.4597C13.8513 19.4597 14.0661 19.5748 14.2077 19.7583V19.5109H14.6541ZM13.6148 19.8773C13.2284 19.8773 12.9919 20.1714 12.9919 20.5294C12.9919 20.8875 13.2284 21.1816 13.6148 21.1816C13.984 21.1816 14.2333 20.9002 14.2333 20.5294C14.2333 20.1587 13.984 19.8773 13.6148 19.8773ZM29.7396 20.5294C29.7396 20.1714 29.976 19.8773 30.3625 19.8773C30.7322 19.8773 30.9809 20.1587 30.9809 20.5294C30.9809 20.9002 30.7322 21.1816 30.3625 21.1816C29.976 21.1816 29.7396 20.8875 29.7396 20.5294ZM31.4023 18.6929V20.5294V21.548H30.9554V21.3007C30.8138 21.4841 30.5989 21.5992 30.3069 21.5992C29.7312 21.5992 29.2799 21.1519 29.2799 20.5294C29.2799 19.9075 29.7312 19.4597 30.3069 19.4597C30.5989 19.4597 30.8138 19.5748 30.9554 19.7583V18.6929H31.4023ZM20.1954 19.8563C20.483 19.8563 20.6678 20.0353 20.7151 20.3505H19.6497C19.6973 20.0563 19.8773 19.8563 20.1954 19.8563ZM19.1816 20.5294C19.1816 19.8943 19.6025 19.4597 20.2042 19.4597C20.7795 19.4597 21.1747 19.8943 21.1791 20.5294C21.1791 20.5889 21.1747 20.6446 21.1703 20.6997H19.6458C19.7102 21.0665 19.9722 21.1987 20.2598 21.1987C20.4658 21.1987 20.6851 21.1216 20.8571 20.9856L21.0759 21.3138C20.8267 21.5226 20.5435 21.5992 20.2342 21.5992C19.6197 21.5992 19.1816 21.1773 19.1816 20.5294ZM25.5946 20.5294C25.5946 20.1714 25.8311 19.8773 26.2175 19.8773C26.5867 19.8773 26.836 20.1587 26.836 20.5294C26.836 20.9002 26.5867 21.1816 26.2175 21.1816C25.8311 21.1816 25.5946 20.8875 25.5946 20.5294ZM27.2568 19.5109V20.5294V21.548H26.8104V21.3007C26.6683 21.4841 26.454 21.5992 26.1619 21.5992C25.5862 21.5992 25.1349 21.1519 25.1349 20.5294C25.1349 19.9075 25.5862 19.4597 26.1619 19.4597C26.454 19.4597 26.6683 19.5748 26.8104 19.7583V19.5109H27.2568ZM23.0734 20.5294C23.0734 21.1475 23.5071 21.5992 24.1688 21.5992C24.478 21.5992 24.684 21.5309 24.9073 21.3563L24.6929 20.9983C24.5253 21.1178 24.3492 21.1816 24.1556 21.1816C23.7991 21.1773 23.5371 20.9216 23.5371 20.5294C23.5371 20.1373 23.7991 19.8816 24.1556 19.8773C24.3492 19.8773 24.5253 19.9411 24.6929 20.0607L24.9073 19.7026C24.684 19.528 24.478 19.4597 24.1688 19.4597C23.5071 19.4597 23.0734 19.9114 23.0734 20.5294ZM28.2878 19.7583C28.4038 19.5792 28.5714 19.4597 28.8291 19.4597C28.9195 19.4597 29.0483 19.4768 29.1471 19.5153L29.0095 19.9329C28.9151 19.8943 28.8207 19.8816 28.7302 19.8816C28.4382 19.8816 28.2922 20.0689 28.2922 20.406V21.548H27.8453V19.5109H28.2878V19.7583ZM16.8621 19.6729C16.6472 19.5324 16.3513 19.4597 16.0248 19.4597C15.5047 19.4597 15.1698 19.707 15.1698 20.1119C15.1698 20.4441 15.4191 20.6489 15.8783 20.7129L16.0892 20.7426C16.334 20.7768 16.4496 20.8407 16.4496 20.9558C16.4496 21.1134 16.2864 21.2031 15.9816 21.2031C15.6723 21.2031 15.4491 21.1051 15.2987 20.9899L15.0882 21.3348C15.3331 21.5138 15.6423 21.5992 15.9771 21.5992C16.57 21.5992 16.9137 21.3221 16.9137 20.9343C16.9137 20.5762 16.6433 20.3889 16.1964 20.3251L15.986 20.2948C15.7928 20.2694 15.6379 20.2314 15.6379 20.0948C15.6379 19.9456 15.7839 19.8563 16.0287 19.8563C16.2908 19.8563 16.5445 19.9543 16.6689 20.0309L16.8621 19.6729ZM22.0813 19.7583C22.1969 19.5792 22.3645 19.4597 22.6221 19.4597C22.7126 19.4597 22.8414 19.4768 22.9402 19.5153L22.8025 19.9329C22.7082 19.8943 22.6138 19.8816 22.5233 19.8816C22.2313 19.8816 22.0853 20.0689 22.0853 20.406V21.548H21.6389V19.5109H22.0813V19.7583ZM18.8124 19.5109H18.0823V18.8929H17.631V19.5109H17.2146V19.9158H17.631V20.8451C17.631 21.3178 17.8158 21.5992 18.3439 21.5992C18.5376 21.5992 18.7608 21.5397 18.9024 21.4416L18.7736 21.0621C18.6403 21.1387 18.4943 21.1773 18.3783 21.1773C18.1551 21.1773 18.0823 21.0407 18.0823 20.8363V19.9158H18.8124V19.5109ZM12.1374 20.2694V21.548H11.6861V20.4143C11.6861 20.0689 11.5401 19.8773 11.2353 19.8773C10.9388 19.8773 10.7328 20.0651 10.7328 20.4187V21.548H10.2815V20.4143C10.2815 20.0689 10.1316 19.8773 9.83507 19.8773C9.52976 19.8773 9.33218 20.0651 9.33218 20.4187V21.548H8.88135V19.5109H9.32824V19.7621C9.4959 19.5236 9.71024 19.4597 9.92949 19.4597C10.2431 19.4597 10.4664 19.5963 10.608 19.8221C10.7972 19.5363 11.0676 19.4553 11.3297 19.4597C11.8282 19.4641 12.1374 19.788 12.1374 20.2694Z" fill="white"/>
<path d="M23.48 16.0491H16.7141V3.98486H23.48V16.0491Z" fill="#FF5F00"/>
<path d="M17.1434 10.0174C17.1434 7.57005 18.2982 5.39005 20.0966 3.9852C18.7815 2.95789 17.1217 2.34473 15.3179 2.34473C11.0476 2.34473 7.58594 5.77984 7.58594 10.0174C7.58594 14.2549 11.0476 17.69 15.3179 17.69C17.1217 17.69 18.7815 17.0768 20.0966 16.0495C18.2982 14.6447 17.1434 12.4647 17.1434 10.0174Z" fill="#EB001B"/>
<path d="M32.6082 10.0174C32.6082 14.2549 29.1465 17.69 24.8762 17.69C23.0723 17.69 21.4126 17.0768 20.0969 16.0495C21.8958 14.6447 23.0507 12.4647 23.0507 10.0174C23.0507 7.57005 21.8958 5.39005 20.0969 3.9852C21.4126 2.95789 23.0723 2.34473 24.8762 2.34473C29.1465 2.34473 32.6082 5.77984 32.6082 10.0174Z" fill="#F79E1B"/>
</svg>
