<svg width="40" height="24" viewBox="0 0 40 24" fill="none" xmlns="http://www.w3.org/2000/svg">
<rect width="40" height="24" rx="4" fill="white"/>
<path fill-rule="evenodd" clip-rule="evenodd" d="M12.1219 8.50098C11.831 8.84912 11.3655 9.12367 10.9 9.08443C10.8417 8.61374 11.0696 8.11367 11.3364 7.80485C11.6273 7.44691 12.1364 7.19195 12.5486 7.17236C12.5971 7.66264 12.408 8.14312 12.1219 8.50098ZM12.5437 9.1776C12.1337 9.15374 11.7595 9.30229 11.4572 9.42229C11.2627 9.49954 11.098 9.56492 10.9726 9.56492C10.832 9.56492 10.6605 9.49602 10.468 9.41864C10.2156 9.31733 9.92713 9.20147 9.62458 9.20698C8.9312 9.21685 8.28623 9.61395 7.93223 10.2464C7.20485 11.5113 7.74313 13.3842 8.44623 14.4137C8.79058 14.9236 9.20271 15.4826 9.74582 15.4629C9.98478 15.4538 10.1566 15.3801 10.3345 15.3037C10.5393 15.2159 10.752 15.1246 11.0842 15.1246C11.4049 15.1246 11.6083 15.2135 11.8035 15.2988C11.9892 15.38 12.1675 15.4579 12.4322 15.4531C12.9948 15.4433 13.3487 14.9433 13.6931 14.4333C14.0646 13.8861 14.2278 13.352 14.2526 13.271L14.2555 13.2616C14.2555 13.2616 14.2504 13.2588 14.2422 13.2551C14.118 13.1976 13.1687 12.7582 13.1596 11.5799C13.1505 10.591 13.9126 10.0899 14.0326 10.011C14.0399 10.0062 14.0448 10.0029 14.047 10.0013C13.5621 9.27567 12.8056 9.19719 12.5437 9.1776ZM16.4376 15.3992V7.75581H19.2744C20.7389 7.75581 21.762 8.77554 21.762 10.266C21.762 11.7564 20.7194 12.786 19.2356 12.786H17.6111V15.3992H16.4376ZM17.6111 8.75595H18.964C19.9824 8.75595 20.5642 9.30505 20.5642 10.2709C20.5642 11.2368 19.9824 11.7908 18.9592 11.7908H17.6111V8.75595ZM25.6364 14.4824C25.3261 15.0805 24.6424 15.458 23.9053 15.458C22.8142 15.458 22.0529 14.8011 22.0529 13.8107C22.0529 12.8302 22.79 12.2664 24.1526 12.183L25.6171 12.0947V11.6731C25.6171 11.0504 25.2146 10.7122 24.4969 10.7122C23.9053 10.7122 23.4737 11.0211 23.3864 11.4917H22.3293C22.3633 10.5013 23.2846 9.78064 24.5309 9.78064C25.874 9.78064 26.7469 10.4915 26.7469 11.5946V15.3992H25.6607V14.4824H25.6364ZM24.2205 14.5511C23.595 14.5511 23.1973 14.2471 23.1973 13.7813C23.1973 13.3008 23.5804 13.0213 24.3126 12.9773L25.6171 12.8939V13.3253C25.6171 14.0411 25.0157 14.5511 24.2205 14.5511ZM30.3498 15.6983C29.8795 17.0367 29.3412 17.478 28.1968 17.478C28.1095 17.478 27.8186 17.4682 27.7506 17.4486V16.5317C27.8234 16.5415 28.0028 16.5513 28.095 16.5513C28.6138 16.5513 28.9048 16.3307 29.0842 15.7571L29.1908 15.4188L27.2027 9.85416H28.4295L29.8115 14.3696H29.8358L31.2178 9.85416H32.4107L30.3498 15.6983Z" fill="#1A1A1A"/>
</svg>
