<svg width="40" height="24" viewBox="0 0 40 24" fill="none" xmlns="http://www.w3.org/2000/svg">
<rect width="40" height="24" rx="4" fill="white"/>
<path d="M27.5646 7.3101C26.7898 7.02778 25.9708 6.88611 25.1463 6.89176C22.4796 6.89176 20.5963 8.2351 20.5829 10.1634C20.5663 11.5801 21.9213 12.3784 22.9463 12.8518C23.9979 13.3384 24.3496 13.6451 24.3463 14.0801C24.3396 14.7418 23.5063 15.0418 22.7313 15.0418C21.6663 15.0418 21.0846 14.8934 20.1896 14.5218L19.8579 14.3668L19.4796 16.5868C20.1279 16.8568 21.2963 17.0884 22.5029 17.1084C25.3379 17.1084 27.1913 15.7734 27.2129 13.7218C27.2363 12.5901 26.5029 11.7351 24.9596 11.0284C24.0213 10.5701 23.4396 10.2634 23.4396 9.79843C23.4396 9.38676 23.9379 8.94676 24.9796 8.94676C25.6729 8.92999 26.3618 9.06006 27.0013 9.32843L27.2513 9.4401L27.6296 7.2951L27.5646 7.3101ZM34.4846 7.07176H32.4013C31.7529 7.07176 31.2646 7.2501 30.9813 7.89343L26.9746 16.9701H29.8096L30.3763 15.4818L33.8363 15.4851C33.9179 15.8334 34.1679 16.9701 34.1679 16.9701H36.6679L34.4846 7.07176ZM16.7479 6.98843H19.4496L17.7596 16.8918H15.0613L16.7479 6.9851V6.98843ZM9.88959 12.4468L10.1696 13.8218L12.8096 7.07176H15.6713L11.4196 16.9568H8.56459L6.23126 8.58676C6.19346 8.44875 6.10471 8.33022 5.98292 8.2551C5.14192 7.82066 4.25083 7.49098 3.32959 7.27343L3.36626 7.0651H7.71459C8.30459 7.08843 8.77959 7.27343 8.93792 7.90343L9.88792 12.4518L9.88959 12.4468ZM31.1513 13.4568L32.2279 10.6868C32.2146 10.7168 32.4496 10.1151 32.5863 9.74343L32.7713 10.5984L33.3963 13.4551H31.1496L31.1513 13.4568Z" fill="#1A1A1A"/>
</svg>
