<svg width="22" height="22" viewBox="0 0 22 22" fill="none" xmlns="http://www.w3.org/2000/svg">
<path d="M10.4202 2.10986C12.6767 2.88706 14.7386 4.14283 16.4646 5.79117C18.1906 7.4395 19.54 9.44145 20.4202 11.6599M9.61017 4.33986C11.5406 4.9987 13.3063 6.06598 14.787 7.46897C16.2676 8.87196 17.4284 10.5777 18.1902 12.4699M6.54016 15.2999C4.32147 12.8838 2.77356 9.92932 2.05017 6.72986C1.88932 6.2363 1.92666 5.69954 2.15432 5.23302C2.38199 4.7665 2.78213 4.40676 3.27017 4.22986L3.86016 4.02986C4.35502 3.86601 4.89429 3.90184 5.36312 4.12972C5.83195 4.35759 6.19327 4.75951 6.37014 5.24986L7.14016 7.47986C7.30101 7.97342 7.26364 8.51019 7.03597 8.97671C6.80831 9.44323 6.4082 9.80296 5.92016 9.97986C6.5428 11.27 7.37775 12.4464 8.39016 13.4599C9.40846 14.4729 10.5921 15.3049 11.8902 15.9199C12.0728 15.428 12.4414 15.0276 12.9166 14.805C13.3917 14.5824 13.9353 14.5554 14.4302 14.7299L16.6302 15.5199C17.1239 15.7005 17.5266 16.0684 17.7512 16.5437C17.9758 17.0191 18.0041 17.5637 17.8302 18.0599L17.6302 18.6199C17.4476 19.1141 17.0773 19.5164 16.5998 19.7392C16.1224 19.962 15.5763 19.9874 15.0802 19.8099C11.9111 19.018 8.98097 17.4706 6.54016 15.2999Z" stroke="white" stroke-width="1.46667" stroke-linecap="round" stroke-linejoin="round"/>
</svg>
