<svg width="117" height="88" viewBox="0 0 117 88" fill="none" xmlns="http://www.w3.org/2000/svg">
<g clip-path="url(#clip0_1_35089)">
<path d="M32.6163 70.9056H21.1068L34.3338 56.8549L34.3557 56.8311V54.97H19.9724L19.1504 60.2224C19.1504 60.2224 20.8839 56.8529 21.7815 56.8529H31.7008L18.428 70.9056V72.7648H34.3915L35.2254 67.5144C35.2254 67.5144 33.5258 70.9056 32.6163 70.9056Z" fill="#324532"/>
<path d="M56.4074 63.8733C56.4074 58.8132 52.0588 54.7123 46.9797 54.7123C41.9007 54.7123 37.55 58.8132 37.55 63.8733C37.55 68.9335 41.8987 73.0344 46.9797 73.0344C52.0607 73.0344 56.4074 68.9335 56.4074 63.8733ZM39.5064 63.8733C39.5064 59.9925 42.7326 56.5656 46.9797 56.5656C51.2268 56.5656 54.451 59.9925 54.451 63.8733C54.451 67.6927 51.2249 71.1772 46.9797 71.1772C42.7346 71.1772 39.5084 67.6927 39.5084 63.8733H39.5064Z" fill="#324532"/>
<path d="M74.8487 57.2494V70.9056H73.8178L64.5851 54.97H60.1569V70.4874C60.1512 70.9416 60.0327 71.3873 59.8118 71.7848C59.5909 72.1822 59.2746 72.5189 58.8911 72.7648H63.3791C63.3791 72.7648 62.1113 71.9819 62.1113 70.4874V56.8311H63.4766L72.7192 72.7648H76.8031V57.2494C76.7956 56.7924 76.9086 56.3415 77.1307 55.9415C77.3527 55.5416 77.6762 55.2066 78.0689 54.97H73.5829C73.9756 55.2066 74.299 55.5416 74.5211 55.9415C74.7432 56.3415 74.8562 56.7924 74.8487 57.2494Z" fill="#324532"/>
<path d="M93.3874 70.9056H85.4822C85.0072 70.9056 84.5516 70.7177 84.2157 70.3832C83.8797 70.0486 83.691 69.5949 83.691 69.1218V64.6543H89.6438C90.6648 64.6543 91.5444 65.9168 91.5444 65.9168V61.5722C91.5444 61.5722 90.6031 62.7931 89.6478 62.7931H83.691V58.6308C83.691 58.153 83.8816 57.6947 84.2209 57.3569C84.5602 57.019 85.0203 56.8292 85.5001 56.8292H92.7625C93.6839 56.8292 95.6383 59.7467 95.6383 59.7467L94.5576 54.968H80.4629C80.4629 54.968 81.7287 55.856 81.7287 57.2474V70.4478C81.7243 70.9074 81.6066 71.3589 81.3859 71.7626C81.1652 72.1663 80.8482 72.5098 80.4629 72.7628H95.1905L96.2633 67.5104C96.2633 67.5104 94.289 70.9056 93.3874 70.9056Z" fill="#324532"/>
<path d="M14.4315 36.753C15.7192 35.8671 16.38 34.6124 16.37 32.6205C16.3581 30.3451 14.3997 28.5513 12.1149 28.5513H0.5C0.5 28.5513 1.76578 29.0944 1.76578 30.8307V44.0807C1.76045 44.5336 1.64194 44.978 1.42095 45.3739C1.19996 45.7697 0.883452 46.1046 0.5 46.3481H12.4055C14.959 46.3481 17.1542 44.3363 17.1382 41.7894C17.1243 39.4129 16.2048 37.6866 14.4315 36.753ZM3.73411 32.3291C3.73385 32.0773 3.78345 31.828 3.88007 31.5953C3.9767 31.3627 4.11845 31.1513 4.29721 30.9733C4.47597 30.7952 4.68824 30.6541 4.92185 30.5578C5.15547 30.4616 5.40584 30.4122 5.65865 30.4125H11.3905C13.4464 30.4125 15.0286 32.1369 14.1768 34.2319C13.6932 35.4211 12.4632 35.8968 11.1736 35.8968H3.73411V32.3291ZM11.5835 44.489H5.53725C5.0611 44.4858 4.60552 44.2952 4.26995 43.9588C3.93437 43.6224 3.74604 43.1674 3.74605 42.6932V37.7619H11.3208C13.0603 37.7619 14.6763 38.6697 15.1022 40.3524C15.6754 42.6952 13.8743 44.487 11.5835 44.489Z" fill="#324532"/>
<path d="M19.8252 46.3481H34.5528L35.6256 41.0957C35.6256 41.0957 33.6612 44.487 32.7616 44.487H24.8406C24.3655 44.487 23.9099 44.299 23.574 43.9645C23.2381 43.63 23.0494 43.1762 23.0494 42.7031V38.2356H29.0021C30.0231 38.2356 30.9028 39.4982 30.9028 39.4982V35.1535C30.9028 35.1535 29.9614 36.3745 29.0061 36.3745H23.0513V32.2122C23.0511 31.9755 23.0977 31.7411 23.1885 31.5224C23.2793 31.3037 23.4126 31.105 23.5806 30.9376C23.7487 30.7703 23.9482 30.6376 24.1678 30.5471C24.3874 30.4567 24.6228 30.4102 24.8605 30.4105H32.1228C33.0442 30.4105 34.9986 33.3281 34.9986 33.3281L33.9179 28.5494H19.8252C19.8252 28.5494 21.091 29.4393 21.091 30.8307V44.0311C21.0866 44.491 20.9689 44.9428 20.7482 45.3468C20.5275 45.7508 20.2105 46.0946 19.8252 46.3481Z" fill="#324532"/>
<path d="M50.9381 30.4105L50.1998 28.5414H45.6222L44.8839 30.4026L39.566 43.708C38.6206 45.6762 37.0464 46.3382 37.0464 46.3382H43.2678C43.2678 46.3382 41.2577 44.8873 41.5721 43.9597L43.1504 40.0076L43.6778 38.6954L53.5652 42.2631L54.228 43.9201C54.5961 44.8477 52.5323 46.3283 52.5323 46.3283H58.7676C58.7676 46.3283 57.1854 45.6663 56.2381 43.6783L50.9381 30.4105ZM46.9995 30.4105H48.8305L51.9233 38.1543H51.9054L52.5621 39.9045L44.3883 36.9473L46.9995 30.4105Z" fill="#324532"/>
<path d="M77.1952 28.5414H72.7053C73.105 28.7708 73.4343 29.1045 73.6577 29.5065C73.8811 29.9085 73.9901 30.3636 73.973 30.8228V38.7192C73.973 42.9826 72.2495 44.7506 67.6839 44.7506C63.1184 44.7506 61.4108 42.9826 61.4108 38.7192V30.8307C61.4108 29.3382 62.6766 28.5494 62.6766 28.5494H58.1946C58.5885 28.7851 58.9129 29.1201 59.1352 29.5207C59.3574 29.9212 59.4696 30.3731 59.4604 30.8307V38.6499C59.4604 44.9488 63.2696 46.6236 67.6919 46.6236C72.1142 46.6236 75.9294 44.9409 75.9294 38.6499V30.8386C75.9092 30.377 76.0165 29.9188 76.2397 29.5137C76.4629 29.1087 76.7934 28.7724 77.1952 28.5414Z" fill="#324532"/>
<path d="M96.8565 28.5414H79.7406V28.6247L78.9246 33.3201C78.9246 33.3201 80.8511 30.4045 81.7726 30.4045H86.0535C86.8317 30.801 87.3213 31.1518 87.3213 32.0259V44.0588C87.329 44.5161 87.2159 44.9673 86.9934 45.3673C86.7709 45.7674 86.4468 46.1021 86.0535 46.3382H90.5415C90.1583 46.0915 89.8423 45.7543 89.6215 45.3566C89.4007 44.959 89.2819 44.5132 89.2757 44.0588V32.0437C89.2757 31.1676 89.7593 30.8208 90.5355 30.4125H94.8244C95.7459 30.4125 97.6685 33.3261 97.6685 33.3261L96.8565 28.6326V28.5414Z" fill="#324532"/>
<path d="M111.54 28.5513C111.54 28.5513 112.772 29.3878 111.867 30.8327L107.56 37.7203L103.265 30.8327C102.36 29.3878 103.591 28.5513 103.591 28.5513H98.6318C98.6318 28.5513 100.423 29.3878 101.329 30.8327L106.597 39.2445V44.0648C106.597 45.5117 105.331 46.3481 105.331 46.3481H109.801C109.801 46.3481 108.535 45.5117 108.535 44.0648V39.2445L113.803 30.8327C114.709 29.3878 116.5 28.5513 116.5 28.5513H111.54Z" fill="#324532"/>
<path d="M38.782 86.8551C38.5754 86.9594 38.3468 87.0131 38.1153 87.0117C37.7844 87.0238 37.461 86.9129 37.2077 86.7005C37.0946 86.604 37.0038 86.4842 36.9416 86.3494C36.8794 86.2146 36.8471 86.068 36.8471 85.9196C36.8471 85.7713 36.8794 85.6247 36.9416 85.4899C37.0038 85.3551 37.0946 85.2353 37.2077 85.1387C37.4605 84.9253 37.7841 84.8136 38.1153 84.8255C38.3374 84.8221 38.5575 84.8674 38.7601 84.9583C38.946 85.0398 39.1068 85.1691 39.2258 85.3329L39.5801 85.0852C39.4215 84.8704 39.2096 84.7003 38.9651 84.5917C38.6981 84.4717 38.4081 84.4115 38.1153 84.4153C37.6622 84.3972 37.2191 84.5509 36.8753 84.8454C36.7222 84.9807 36.5995 85.1469 36.5156 85.333C36.4316 85.519 36.3882 85.7206 36.3882 85.9246C36.3882 86.1285 36.4316 86.3302 36.5156 86.5162C36.5995 86.7022 36.7222 86.8684 36.8753 87.0038C37.2208 87.295 37.663 87.447 38.1153 87.4299C38.4274 87.4366 38.7365 87.3686 39.0168 87.2317C39.2799 87.0985 39.5014 86.8964 39.6577 86.647L39.2994 86.3993C39.1666 86.5908 38.989 86.7472 38.782 86.8551Z" fill="#324532"/>
<path d="M43.2063 84.4073C42.749 84.389 42.3013 84.5409 41.9504 84.8335C41.7924 84.9648 41.6661 85.13 41.581 85.3167C41.4959 85.5033 41.4541 85.7067 41.4589 85.9117C41.4555 86.1167 41.4979 86.32 41.5829 86.5067C41.6679 86.6935 41.7934 86.8592 41.9504 86.9919C42.3106 87.2701 42.7535 87.4211 43.2093 87.4211C43.6651 87.4211 44.1079 87.2701 44.4681 86.9919C44.6222 86.8567 44.7456 86.6903 44.8302 86.5039C44.9148 86.3175 44.9585 86.1153 44.9585 85.9107C44.9585 85.7061 44.9148 85.5039 44.8302 85.3175C44.7456 85.1311 44.6222 84.9647 44.4681 84.8295C44.114 84.5388 43.6647 84.3885 43.2063 84.4073ZM44.1397 86.6966C43.8705 86.8961 43.5438 87.0038 43.2083 87.0038C42.8727 87.0038 42.5461 86.8961 42.2768 86.6966C42.1644 86.5987 42.0744 86.4781 42.0127 86.3427C41.9509 86.2073 41.919 86.0604 41.919 85.9117C41.919 85.763 41.9509 85.6161 42.0127 85.4807C42.0744 85.3453 42.1644 85.2246 42.2768 85.1268C42.545 84.9256 42.8716 84.8169 43.2073 84.8169C43.543 84.8169 43.8696 84.9256 44.1377 85.1268C44.2515 85.2235 44.3429 85.3437 44.4056 85.4791C44.4682 85.6144 44.5007 85.7617 44.5007 85.9107C44.5007 86.0597 44.4682 86.207 44.4056 86.3423C44.3429 86.4776 44.2515 86.5978 44.1377 86.6946L44.1397 86.6966Z" fill="#324532"/>
<path d="M49.2407 85.8007C48.9261 85.6277 48.5684 85.5479 48.2097 85.5708C47.9767 85.5836 47.7431 85.5568 47.5191 85.4915C47.4608 85.4745 47.4098 85.439 47.3738 85.3903C47.3379 85.3415 47.319 85.2824 47.3201 85.2219C47.322 85.1588 47.3416 85.0974 47.3768 85.0449C47.412 84.9923 47.4613 84.9506 47.5191 84.9246C47.6802 84.8427 47.8599 84.8037 48.0406 84.8117C48.2437 84.8123 48.4453 84.8458 48.6376 84.9108C48.8424 84.9752 49.0368 85.0687 49.2148 85.1882L49.4377 84.8176C49.231 84.6852 49.0065 84.5824 48.771 84.5124C48.5393 84.4426 48.2985 84.4072 48.0565 84.4073C47.7536 84.392 47.4533 84.4703 47.1967 84.6313C47.0969 84.6949 47.0151 84.783 46.9594 84.8871C46.9036 84.9912 46.8757 85.1079 46.8783 85.2259C46.8686 85.3375 46.8907 85.4495 46.9421 85.5491C46.9935 85.6486 47.0721 85.7317 47.1688 85.7888C47.3679 85.9018 47.7201 85.9632 48.2396 85.9692C48.4722 85.9611 48.7036 86.0058 48.9163 86.1C48.9827 86.1342 49.0381 86.1864 49.0761 86.2506C49.1141 86.3147 49.1332 86.3882 49.1312 86.4627C49.1305 86.5435 49.1084 86.6227 49.0672 86.6923C49.0259 86.7619 48.967 86.8194 48.8964 86.8591C48.711 86.9715 48.4961 87.026 48.2794 87.0157C48.0534 87.0131 47.8292 86.9756 47.6147 86.9047C47.3865 86.834 47.17 86.7305 46.9718 86.5975L46.7549 86.9721C46.9876 87.1189 47.2403 87.2317 47.5052 87.3071C47.7735 87.3855 48.0516 87.4255 48.3311 87.426C48.6571 87.4406 48.9786 87.3464 49.2446 87.1584C49.3542 87.0841 49.4438 86.9842 49.5056 86.8674C49.5674 86.7506 49.5994 86.6205 49.5989 86.4885C49.6057 86.3525 49.5761 86.2172 49.5131 86.0964C49.4502 85.9755 49.3562 85.8735 49.2407 85.8007Z" fill="#324532"/>
<path d="M53.2267 86.1515L52.0565 84.4846H51.6843V87.3308H52.1321V85.2854L53.2267 86.867L54.3234 85.2854V87.3308H54.7692V84.4846H54.399L53.2267 86.1515Z" fill="#324532"/>
<path d="M57.4979 86.0207H58.9627V85.6124H57.4979V84.9008H59.7289V84.4846H57.0481V87.3308H59.8543V86.9206H57.4979V86.0207Z" fill="#324532"/>
<path d="M61.2654 84.881H62.4715V87.3308H62.9153V84.881H64.1233V84.4846H61.2654V84.881Z" fill="#324532"/>
<path d="M66.3305 84.4787H65.8748V87.3308H66.3305V84.4787Z" fill="#324532"/>
<path d="M70.7705 86.8551C70.5615 86.9578 70.3308 87.0088 70.0978 87.0038C69.7677 87.0154 69.445 86.9045 69.1923 86.6926C69.0789 86.5962 68.9878 86.4765 68.9254 86.3417C68.863 86.2069 68.8306 86.0602 68.8306 85.9117C68.8306 85.7632 68.863 85.6165 68.9254 85.4817C68.9878 85.3469 69.0789 85.2272 69.1923 85.1308C69.4451 84.9176 69.7687 84.8059 70.0998 84.8176C70.3219 84.8142 70.5421 84.8595 70.7447 84.9504C70.9308 85.0323 71.0921 85.1615 71.2124 85.325L71.5666 85.0772C71.4068 84.8628 71.1944 84.6929 70.9496 84.5837C70.6829 84.4634 70.3927 84.4031 70.0998 84.4073C69.6467 84.3892 69.2037 84.5429 68.8599 84.8374C68.7073 84.9731 68.5852 85.1394 68.5016 85.3254C68.418 85.5114 68.3748 85.7129 68.3748 85.9166C68.3748 86.1204 68.418 86.3219 68.5016 86.5079C68.5852 86.6938 68.7073 86.8601 68.8599 86.9959C69.2053 87.287 69.6476 87.439 70.0998 87.422C70.412 87.4291 70.7213 87.3612 71.0014 87.2238C71.265 87.0906 71.4872 86.8885 71.6442 86.6391L71.286 86.3913C71.1551 86.5858 70.978 86.7451 70.7705 86.8551Z" fill="#324532"/>
<path d="M75.9453 85.8007C75.6307 85.6277 75.273 85.5479 74.9143 85.5708C74.6813 85.5836 74.4477 85.5568 74.2237 85.4915C74.1654 85.4745 74.1144 85.439 74.0784 85.3903C74.0424 85.3415 74.0236 85.2824 74.0247 85.2219C74.0265 85.1588 74.0462 85.0974 74.0814 85.0449C74.1166 84.9923 74.1659 84.9506 74.2237 84.9246C74.3848 84.8427 74.5645 84.8037 74.7452 84.8117C74.9483 84.8121 75.1499 84.8456 75.3422 84.9108C75.5471 84.9748 75.7416 85.0683 75.9194 85.1882L76.1423 84.8176C75.9356 84.6852 75.7111 84.5824 75.4756 84.5124C75.2439 84.4426 75.0031 84.4072 74.7611 84.4073C74.4582 84.392 74.1579 84.4703 73.9013 84.6313C73.8015 84.6949 73.7197 84.783 73.6639 84.8871C73.6082 84.9912 73.5803 85.1079 73.5829 85.2259C73.5732 85.3375 73.5953 85.4495 73.6467 85.5491C73.6981 85.6486 73.7767 85.7317 73.8734 85.7888C74.0725 85.9018 74.4247 85.9632 74.9442 85.9692C75.1768 85.9611 75.4082 86.0058 75.6209 86.1C75.6873 86.1342 75.7427 86.1864 75.7807 86.2506C75.8187 86.3147 75.8378 86.3882 75.8358 86.4627C75.8351 86.5435 75.813 86.6227 75.7718 86.6923C75.7305 86.7619 75.6716 86.8194 75.601 86.8591C75.4156 86.9715 75.2007 87.026 74.984 87.0157C74.758 87.0131 74.5337 86.9756 74.3192 86.9047C74.0911 86.834 73.8746 86.7305 73.6764 86.5975L73.4595 86.9721C73.6922 87.1189 73.9449 87.2317 74.2098 87.3071C74.478 87.3855 74.7561 87.4255 75.0357 87.426C75.3622 87.4403 75.6843 87.3462 75.9512 87.1584C76.0602 87.0837 76.1492 86.9836 76.2106 86.8669C76.272 86.7501 76.3039 86.6202 76.3035 86.4885C76.3103 86.3525 76.2806 86.2172 76.2177 86.0964C76.1548 85.9755 76.0607 85.8735 75.9453 85.8007Z" fill="#324532"/>
<path d="M27.0077 12.8199L27.4097 12.5285L26.4345 11.1886L26.7111 9.05002L26.1638 9.44445L25.9827 10.9865L24.4403 10.6872L23.9109 11.0677L26.0364 11.486L27.0077 12.8199Z" fill="#324532"/>
<path d="M29.2468 10.7962C29.7599 10.857 30.2788 10.7458 30.7214 10.4802C31.1639 10.2146 31.5051 9.8097 31.6908 9.32947C31.7609 9.10846 31.783 8.8751 31.7556 8.64491C31.7282 8.41473 31.6519 8.193 31.5318 7.99445C31.4117 7.7959 31.2505 7.62509 31.059 7.49337C30.8675 7.36165 30.65 7.27203 30.421 7.23049C29.9077 7.17422 29.3902 7.288 28.9484 7.55422C28.5066 7.82043 28.1652 8.22424 27.977 8.70315C27.9016 8.92274 27.8765 9.15639 27.9037 9.3869C27.9309 9.61741 28.0097 9.83891 28.1343 10.0351C28.2514 10.2362 28.4121 10.4088 28.6045 10.5404C28.7969 10.672 29.0163 10.7594 29.2468 10.7962ZM28.4666 8.7963C28.6097 8.44534 28.8631 8.15 29.1889 7.95454C29.5147 7.75908 29.8953 7.67402 30.2738 7.71213C30.4412 7.73936 30.6006 7.80245 30.7412 7.89704C30.8817 7.99163 31 8.11547 31.0877 8.26001C31.1755 8.40455 31.2308 8.56634 31.2497 8.73421C31.2686 8.90208 31.2507 9.07204 31.1972 9.23235C31.0546 9.58334 30.8016 9.87886 30.4762 10.0747C30.1508 10.2705 29.7704 10.356 29.3921 10.3185C29.2251 10.29 29.0661 10.2261 28.9261 10.1311C28.786 10.0361 28.6681 9.91221 28.5804 9.76785C28.4926 9.62349 28.437 9.46202 28.4174 9.2944C28.3978 9.12677 28.4146 8.9569 28.4666 8.7963Z" fill="#324532"/>
<path d="M33.7368 8.50099C34.0353 8.5512 34.4407 8.45408 34.9528 8.20963C35.4663 7.96584 35.7967 7.71015 35.9479 7.44258C36.0223 7.29671 36.0586 7.13452 36.0533 6.97101C36.0481 6.80749 36.0016 6.64792 35.9181 6.50705L34.9648 4.52501L34.509 4.74105L35.4046 6.60616C35.5379 6.88562 35.5638 7.10563 35.4782 7.26618C35.3926 7.42672 35.1518 7.60114 34.7578 7.78943C34.3637 7.97773 34.0791 8.05305 33.9 8.01935C33.7209 7.98566 33.5636 7.82115 33.4303 7.54763L32.5347 5.68252L32.075 5.90055L33.0283 7.88259C33.0859 8.03593 33.1807 8.17267 33.3044 8.28058C33.428 8.38849 33.5766 8.46422 33.7368 8.50099Z" fill="#324532"/>
<path d="M38.2345 6.66562L37.7469 5.35152L39.0704 4.86592L40.4198 5.8728L40.9372 5.6845L39.6018 4.66375C39.8037 4.55522 39.9587 4.37685 40.0377 4.16229C40.1182 3.95848 40.1182 3.73185 40.0377 3.52804C40.001 3.40911 39.9378 3.30002 39.8526 3.20903C39.7674 3.11803 39.6626 3.04751 39.5461 3.0028C39.2783 2.91953 38.9893 2.93501 38.7321 3.0464L36.6423 3.81742L37.7569 6.83805L38.2345 6.66562ZM37.2792 4.07905L38.8953 3.48443C39.0263 3.42735 39.173 3.41617 39.3112 3.45272C39.3684 3.4741 39.4198 3.50828 39.4615 3.55261C39.5033 3.59695 39.5343 3.65025 39.552 3.70841C39.5769 3.76444 39.5885 3.82546 39.5857 3.88667C39.5829 3.94789 39.566 4.00763 39.5361 4.06121C39.4552 4.17917 39.3356 4.26538 39.1978 4.305L37.5817 4.89961L37.2792 4.07905Z" fill="#324532"/>
<path d="M45.5508 4.43185L45.2522 2.96117L47.4833 2.51323L47.7818 3.98193L48.2774 3.88282L47.6365 0.719482L47.1409 0.820567L47.3897 2.04943L45.1587 2.49936L44.9099 1.26851L44.4124 1.36959L45.0532 4.53095L45.5508 4.43185Z" fill="#324532"/>
<path d="M52.9344 3.31794L52.8846 2.85612L50.2277 3.1455L50.1182 2.13267L51.7701 1.95231L51.7183 1.48851L50.0665 1.66888L49.9789 0.868131L52.4945 0.596591L52.4428 0.126846L49.4216 0.455866L49.7739 3.66281L52.9344 3.31794Z" fill="#324532"/>
<path d="M54.3951 2.43593L56.1067 2.39233L56.5486 3.201L57.0919 3.18514L55.3465 0L55.032 0.0118923L53.4717 3.28028L54.007 3.26641L54.3951 2.43593ZM55.2091 0.753177L55.8719 1.98204L54.6041 2.01376L55.2091 0.753177Z" fill="#324532"/>
<path d="M60.927 2.90964L58.5268 2.78477L58.6721 0.0277486L58.1646 0L57.9934 3.2228L60.9031 3.37542L60.927 2.90964Z" fill="#324532"/>
<path d="M62.0913 3.52209L62.5928 3.57957L62.9152 0.820564L64.2765 0.979128L64.3283 0.533168L61.1101 0.158562L61.0583 0.606504L62.4137 0.763085L62.0913 3.52209Z" fill="#324532"/>
<path d="M65.6658 2.51522L67.8968 2.96514L67.5963 4.43582L68.0898 4.53492L68.7367 1.37356L68.2411 1.27446L67.9903 2.50332L65.7593 2.05142L66.0121 0.82255L65.5125 0.721466L64.8677 3.88283L65.3652 3.98391L65.6658 2.51522Z" fill="#324532"/>
<path d="M70.4604 5.187L70.9361 5.32773L71.4078 3.74209L73.2786 2.65395L72.6317 2.46169L71.2943 3.26046L70.5918 1.86113L69.9648 1.67482L70.9301 3.60731L70.4604 5.187Z" fill="#324532"/>
<path d="M79.1895 7.53176C79.2609 7.39685 79.2954 7.24558 79.2894 7.09318C79.2835 6.94077 79.2373 6.79262 79.1556 6.66363C78.9134 6.33852 78.5825 6.08949 78.2023 5.94613C77.9535 5.84662 77.7233 5.70589 77.5216 5.5299C77.47 5.48445 77.4347 5.42347 77.4211 5.35622C77.4074 5.28897 77.4162 5.21912 77.446 5.15727C77.4796 5.09474 77.5299 5.04273 77.5914 5.00703C77.6529 4.97133 77.7231 4.95335 77.7943 4.9551C78.0012 4.94576 78.2069 4.99016 78.3914 5.08394C78.5969 5.17963 78.7857 5.30743 78.9506 5.46251C79.1305 5.62522 79.286 5.81278 79.4124 6.01946L79.8104 5.74396C79.6586 5.51045 79.4759 5.29844 79.2671 5.11367C79.0606 4.93435 78.8294 4.7855 78.5804 4.67167C78.2751 4.51158 77.9272 4.45059 77.5853 4.49725C77.4549 4.51718 77.3315 4.5696 77.2268 4.64963C77.1221 4.72967 77.0394 4.83474 76.9863 4.9551C76.924 5.06581 76.894 5.19161 76.8996 5.31837C76.9053 5.44512 76.9463 5.5678 77.0181 5.6726C77.1654 5.88072 77.5037 6.11064 78.0371 6.36236C78.2795 6.46453 78.4958 6.61965 78.67 6.81624C78.7238 6.88178 78.7571 6.96153 78.7659 7.04569C78.7748 7.12986 78.7587 7.21476 78.7198 7.28995C78.6805 7.37285 78.6202 7.44409 78.5448 7.49659C78.4694 7.54909 78.3815 7.58103 78.2899 7.58924C78.0459 7.61718 77.7991 7.57161 77.5814 7.45843C77.3489 7.3498 77.1348 7.20606 76.9465 7.03229C76.7459 6.8517 76.5723 6.64345 76.431 6.41389L76.033 6.69732C76.2036 6.95779 76.4107 7.19271 76.6479 7.395C76.8879 7.60179 77.1559 7.77394 77.444 7.90637C77.774 8.07424 78.1505 8.1286 78.5148 8.06097C78.6619 8.03394 78.8002 7.97163 78.9178 7.87943C79.0354 7.78722 79.1286 7.6679 79.1895 7.53176Z" fill="#324532"/>
<path d="M81.0204 8.20764L81.8802 8.04313L82.1787 10.2531L82.6743 10.5326L82.3359 7.96187L84.0853 7.62889L83.5022 7.30185L81.303 7.71015L82.0095 6.46344L81.5657 6.21371L79.9795 9.0183L80.4213 9.26804L81.0204 8.20764Z" fill="#324532"/>
<path d="M85.3098 8.39615L83.5422 11.1099L83.9747 11.3893L85.7423 8.67551L85.3098 8.39615Z" fill="#324532"/>
<path d="M85.6874 12.5503L87.0428 10.7387L87.3373 13.7732L87.5503 13.9318L89.4848 11.3432L89.0847 11.0479L87.7274 12.8654L87.4328 9.82301L87.2199 9.66444L85.2854 12.253L85.6874 12.5503Z" fill="#324532"/>
</g>
<defs>
<clipPath id="clip0_1_35089">
<rect width="116" height="88" fill="white" transform="translate(0.5)"/>
</clipPath>
</defs>
</svg>
