<svg width="272" height="99" viewBox="0 0 272 99" fill="none" xmlns="http://www.w3.org/2000/svg">
<path d="M93.2552 63.9141C93.0201 53.5294 93.0255 42.8186 93.2716 31.7818C93.2989 30.5863 92.5745 29.3147 91.0982 27.967C90.7593 27.6518 90.8221 27.4943 91.2869 27.4943L100.185 27.4535C100.655 27.4481 100.721 27.6084 100.382 27.9344C98.791 29.4451 97.9681 30.7276 97.9134 31.7818C97.5362 38.5528 97.6018 50.9237 98.1103 68.8945C98.1125 68.9547 98.1024 69.0148 98.0808 69.0711C98.0591 69.1274 98.0262 69.1787 97.9841 69.2221C97.942 69.2655 97.8915 69.3 97.8357 69.3235C97.7799 69.3471 97.7198 69.3592 97.6592 69.3591L88.6871 69.3184C88.4192 69.3184 88.2169 69.2015 88.0802 68.9679L66.5356 32.2627C66.3989 32.0345 66.1939 31.9204 65.9205 31.9204L63.8128 31.9367C63.5613 31.9421 63.4301 32.0698 63.4191 32.3198C62.6373 46.5193 62.6209 57.4175 63.3699 65.0145C63.4738 66.0579 64.3759 67.305 66.0763 68.7559C66.1228 68.7943 66.1559 68.8458 66.1712 68.9037C66.1864 68.9615 66.1831 69.0229 66.1617 69.0797C66.1403 69.1364 66.1019 69.1857 66.0514 69.2211C66.001 69.2565 65.941 69.2762 65.8795 69.2776L56.8581 69.2369C56.3825 69.2369 56.3114 69.0657 56.6449 68.7233C58.0719 67.2615 58.7663 66.0253 58.728 65.0145C58.2688 52.6789 58.3644 40.3542 59.0151 28.0404C59.0315 27.7198 59.2037 27.5568 59.5317 27.5513L68.7663 27.5187C69.0233 27.5187 69.2146 27.6274 69.3404 27.8448L90.5077 64.6722C90.6685 64.9568 90.9207 65.1796 91.224 65.305C91.5272 65.4304 91.864 65.451 92.1805 65.3637C92.497 65.2764 92.7748 65.0861 92.9697 64.8233C93.1645 64.5605 93.265 64.2404 93.2552 63.9141Z" fill="#1A1A1A"/>
<path d="M112.323 45.8263C116.615 45.897 120.91 45.9024 125.207 45.8426C127.463 45.81 128.594 44.9623 130.03 43.438C130.308 43.1391 130.448 43.1935 130.448 43.601L130.44 52.5593C130.44 52.9614 130.303 53.013 130.03 52.7142C128.75 51.3447 127.659 50.3584 125.634 50.3177C121.172 50.2362 116.719 50.2335 112.274 50.3095C111.99 50.315 111.845 50.4563 111.839 50.7334C111.801 52.8473 111.809 54.9422 111.864 57.018C111.995 61.6561 111.667 64.9655 117.137 64.9981C123.277 65.0307 129.412 65.028 135.541 64.99C135.648 64.9898 135.752 64.9653 135.846 64.9186C135.94 64.8719 136.021 64.8041 136.082 64.721L141.183 57.9228C141.198 57.9047 141.218 57.8919 141.241 57.8863C141.264 57.8807 141.287 57.8827 141.309 57.892C141.33 57.9013 141.348 57.9173 141.359 57.9376C141.371 57.9579 141.375 57.9813 141.372 58.0043L139.141 68.9759C139.076 69.2857 138.884 69.4405 138.567 69.4405L105.254 69.3916C104.844 69.3916 104.784 69.2449 105.073 68.9515C106.604 67.3919 107.364 66.0795 107.353 65.0144C107.211 54.3906 107.203 43.7722 107.329 33.1593C107.361 30.8362 106.623 29.6135 105.18 27.9669C104.868 27.6137 104.948 27.4371 105.418 27.4371L137.132 27.3882C137.433 27.3882 137.616 27.5322 137.681 27.8202L139.879 37.6751C139.983 38.137 139.882 38.1859 139.576 37.8218C137.526 35.3927 135.77 31.7817 132.096 31.7817C127.192 31.7871 122.29 31.7926 117.392 31.798C114.841 31.8062 112.454 32.6457 112.02 35.2542C111.785 36.6616 111.744 40.0498 111.897 45.4188C111.908 45.6851 112.05 45.8209 112.323 45.8263Z" fill="#1A1A1A"/>
<path d="M166.558 63.8243L177.777 27.861C177.864 27.5838 178.056 27.4452 178.351 27.4452L187.84 27.4778C188.075 27.4778 188.234 27.5865 188.316 27.8039C192.684 39.8895 196.621 52.111 200.125 64.4683C200.218 64.7889 200.431 64.9519 200.765 64.9573L203.029 64.9655C203.351 64.9709 203.564 64.8215 203.668 64.5172C207.135 54.5998 210.333 44.6036 213.264 34.5287C214.469 30.3797 212.329 30.0455 209.672 27.8854C209.365 27.6354 209.409 27.5105 209.803 27.5105L222.925 27.5594C223.422 27.5594 223.461 27.6898 223.04 27.9506C220.268 29.6461 219.013 31.3986 218.094 34.6673C214.857 46.2529 211.104 57.6701 206.834 68.9189C206.741 69.1634 206.563 69.2857 206.301 69.2857L197.058 69.302C196.757 69.302 196.566 69.158 196.484 68.87C193.111 56.5507 189.316 44.3591 185.101 32.2952C185.051 32.1501 184.956 32.0241 184.83 31.9349C184.703 31.8457 184.551 31.7978 184.395 31.798L182.058 31.8062C181.686 31.8062 181.446 31.9828 181.336 32.336L169.658 68.8944C169.554 69.2259 169.324 69.3916 168.969 69.3916L159.595 69.4079C159.283 69.4079 159.084 69.2585 158.996 68.9596C153.359 49.8422 149.554 37.6479 147.58 32.3768C147.05 30.9584 145.53 29.4477 143.02 27.8447C142.539 27.5403 142.586 27.3882 143.16 27.3882L156.085 27.3963C156.473 27.3963 156.522 27.5268 156.232 27.7876C154.281 29.5075 151.771 30.2737 152.829 33.5587C156.202 43.9706 159.368 54.0537 162.326 63.808C162.464 64.258 162.743 64.6524 163.123 64.9331C163.502 65.2139 163.962 65.3664 164.436 65.3682C164.909 65.37 165.37 65.2211 165.752 64.9433C166.134 64.6654 166.416 64.2733 166.558 63.8243Z" fill="#1A1A1A"/>
<path d="M21.9129 42.9653C21.8746 42.9671 21.8374 42.956 21.8068 42.9338C21.7763 42.9116 21.7542 42.8795 21.7439 42.8424C21.7337 42.8053 21.7358 42.7653 21.7501 42.7286C21.7643 42.6919 21.7898 42.6605 21.8227 42.6393C24.9173 40.7645 26.4673 37.9822 26.4728 34.2924C26.4728 33.7489 26.6204 33.7055 26.9156 34.1619C28.7691 37.0529 31.4427 38.5908 34.9364 38.7756C34.9919 38.7803 35.0446 38.8019 35.0873 38.8374C35.13 38.873 35.1606 38.9208 35.1749 38.9743C35.1893 39.0278 35.1867 39.0843 35.1675 39.1363C35.1483 39.1883 35.1134 39.2331 35.0676 39.2646C32.2956 41.0851 30.8795 43.6826 30.8194 47.0572C30.8085 47.655 30.6362 47.7066 30.3027 47.2121C28.3563 44.2885 25.5597 42.8729 21.9129 42.9653Z" fill="#1A1A1A"/>
<path d="M236.375 49.6657C241.173 49.2581 244.42 46.6253 246.569 42.3459C246.738 42.009 246.842 42.028 246.881 42.4029C247.373 47.0872 249.724 50.4781 253.934 52.5757C254.377 52.7931 254.355 52.9317 253.868 52.9914C249.248 53.5457 245.965 55.9259 244.018 60.1319C243.827 60.5395 243.707 60.5205 243.658 60.0749C243.149 55.3526 240.697 52.035 236.301 50.1222C235.727 49.8722 235.752 49.7201 236.375 49.6657Z" fill="#1A1A1A"/>
<path d="M36.9702 55.3797C37.4377 57.8251 38.061 58.4364 39.5864 60.246C39.7996 60.5014 39.7395 60.64 39.406 60.6617C37.476 60.7704 36.0107 61.6399 35.0101 63.2701C34.9787 63.3188 34.9327 63.3571 34.8787 63.3793C34.8246 63.4016 34.7653 63.4068 34.709 63.3941C34.6527 63.3815 34.6024 63.3517 34.5652 63.309C34.528 63.2662 34.5057 63.2127 34.5016 63.156C34.3103 61.1888 33.3863 59.6754 31.7296 58.6157C31.243 58.306 31.2868 58.1185 31.8608 58.0533C33.8401 57.8305 35.3928 56.9067 36.5191 55.2819C36.7488 54.9558 36.8991 54.9884 36.9702 55.3797Z" fill="#1A1A1A"/>
</svg>
