<svg width="27" height="28" viewBox="0 0 27 28" fill="none" xmlns="http://www.w3.org/2000/svg">
<rect y="0.292725" width="26.9512" height="26.9512" rx="6" fill="white"/>
<g clip-path="url(#clip0_432_7987)">
<path d="M18.1925 21.6952H9.62367C9.11865 21.6952 8.63431 21.4946 8.27721 21.1375C7.9201 20.7804 7.71948 20.296 7.71948 19.791V11.0508C7.71948 10.5457 7.9201 10.0614 8.27721 9.7043C8.63431 9.3472 9.11865 9.14658 9.62367 9.14658H18.1925C18.6976 9.14658 19.1819 9.3472 19.539 9.7043C19.8961 10.0614 20.0967 10.5457 20.0967 11.0508V19.791C20.0967 20.296 19.8961 20.7804 19.539 21.1375C19.1819 21.4946 18.6976 21.6952 18.1925 21.6952ZM9.62367 10.0987C9.37116 10.0987 9.12899 10.199 8.95044 10.3775C8.77189 10.5561 8.67158 10.7983 8.67158 11.0508V19.791C8.67158 20.0435 8.77189 20.2857 8.95044 20.4642C9.12899 20.6428 9.37116 20.7431 9.62367 20.7431H18.1925C18.4451 20.7431 18.6872 20.6428 18.8658 20.4642C19.0443 20.2857 19.1446 20.0435 19.1446 19.791V11.0508C19.1446 10.7983 19.0443 10.5561 18.8658 10.3775C18.6872 10.199 18.4451 10.0987 18.1925 10.0987H9.62367ZM17.0405 9.14658H16.0884C16.1081 8.84878 16.0665 8.5501 15.9661 8.26905C15.8657 7.988 15.7086 7.73055 15.5047 7.51265C15.3007 7.29476 15.0542 7.12106 14.7804 7.0023C14.5066 6.88355 14.2113 6.82228 13.9129 6.82228C13.6144 6.82228 13.3191 6.88355 13.0453 7.0023C12.7715 7.12106 12.525 7.29476 12.3211 7.51265C12.1171 7.73055 11.9601 7.988 11.8597 8.26905C11.7593 8.5501 11.7176 8.84878 11.7373 9.14658H10.7852C10.7618 8.72134 10.8253 8.29577 10.9718 7.8959C11.1184 7.49603 11.345 7.13025 11.6377 6.82091C11.9304 6.51157 12.2832 6.26518 12.6744 6.09679C13.0656 5.9284 13.487 5.84155 13.9129 5.84155C14.3388 5.84155 14.7602 5.9284 15.1514 6.09679C15.5425 6.26518 15.8953 6.51157 16.188 6.82091C16.4808 7.13025 16.7073 7.49603 16.8539 7.8959C17.0005 8.29577 17.064 8.72134 17.0405 9.14658Z" fill="#6B6B6B"/>
</g>
<defs>
<clipPath id="clip0_432_7987">
<rect width="15.8537" height="15.8537" fill="white" transform="translate(5.54883 5.84155)"/>
</clipPath>
</defs>
</svg>
