<svg width="27" height="28" viewBox="0 0 27 28" fill="none" xmlns="http://www.w3.org/2000/svg">
<rect x="0.0488281" y="0.292725" width="26.9512" height="26.9512" rx="6" fill="#648864"/>
<g clip-path="url(#clip0_432_7989)">
<path d="M18.2414 21.6952H9.6725C9.16748 21.6952 8.68314 21.4946 8.32604 21.1375C7.96893 20.7804 7.76831 20.296 7.76831 19.791V11.0508C7.76831 10.5457 7.96893 10.0614 8.32604 9.7043C8.68314 9.3472 9.16748 9.14658 9.6725 9.14658H18.2414C18.7464 9.14658 19.2307 9.3472 19.5878 9.7043C19.9449 10.0614 20.1456 10.5457 20.1456 11.0508V19.791C20.1456 20.296 19.9449 20.7804 19.5878 21.1375C19.2307 21.4946 18.7464 21.6952 18.2414 21.6952ZM9.6725 10.0987C9.41999 10.0987 9.17782 10.199 8.99927 10.3775C8.82072 10.5561 8.72041 10.7983 8.72041 11.0508V19.791C8.72041 20.0435 8.82072 20.2857 8.99927 20.4642C9.17782 20.6428 9.41999 20.7431 9.6725 20.7431H18.2414C18.4939 20.7431 18.736 20.6428 18.9146 20.4642C19.0932 20.2857 19.1935 20.0435 19.1935 19.791V11.0508C19.1935 10.7983 19.0932 10.5561 18.9146 10.3775C18.736 10.199 18.4939 10.0987 18.2414 10.0987H9.6725ZM17.0893 9.14658H16.1372C16.1569 8.84878 16.1153 8.5501 16.0149 8.26905C15.9145 7.988 15.7574 7.73055 15.5535 7.51265C15.3495 7.29476 15.103 7.12106 14.8292 7.0023C14.5554 6.88355 14.2601 6.82228 13.9617 6.82228C13.6632 6.82228 13.368 6.88355 13.0942 7.0023C12.8204 7.12106 12.5738 7.29476 12.3699 7.51265C12.1659 7.73055 12.0089 7.988 11.9085 8.26905C11.8081 8.5501 11.7664 8.84878 11.7862 9.14658H10.8341C10.8106 8.72134 10.8741 8.29577 11.0207 7.8959C11.1672 7.49603 11.3938 7.13025 11.6865 6.82091C11.9793 6.51157 12.332 6.26518 12.7232 6.09679C13.1144 5.9284 13.5358 5.84155 13.9617 5.84155C14.3876 5.84155 14.809 5.9284 15.2002 6.09679C15.5914 6.26518 15.9441 6.51157 16.2368 6.82091C16.5296 7.13025 16.7562 7.49603 16.9027 7.8959C17.0493 8.29577 17.1128 8.72134 17.0893 9.14658Z" fill="white"/>
</g>
<defs>
<clipPath id="clip0_432_7989">
<rect width="15.8537" height="15.8537" fill="white" transform="translate(5.59766 5.84155)"/>
</clipPath>
</defs>
</svg>
