<svg width="22" height="22" viewBox="0 0 22 22" fill="none" xmlns="http://www.w3.org/2000/svg">
<path d="M17.5456 22H5.65464C4.95382 22 4.28171 21.7216 3.78616 21.226C3.29061 20.7305 3.01221 20.0584 3.01221 19.3576V7.22879C3.01221 6.52798 3.29061 5.85586 3.78616 5.36031C4.28171 4.86476 4.95382 4.58636 5.65464 4.58636H17.5456C18.2464 4.58636 18.9185 4.86476 19.4141 5.36031C19.9096 5.85586 20.188 6.52798 20.188 7.22879V19.3576C20.188 20.0584 19.9096 20.7305 19.4141 21.226C18.9185 21.7216 18.2464 22 17.5456 22ZM5.65464 5.90758C5.30423 5.90758 4.96818 6.04678 4.7204 6.29455C4.47262 6.54233 4.33342 6.87839 4.33342 7.22879V19.3576C4.33342 19.708 4.47262 20.044 4.7204 20.2918C4.96818 20.5396 5.30423 20.6788 5.65464 20.6788H17.5456C17.896 20.6788 18.2321 20.5396 18.4798 20.2918C18.7276 20.044 18.8668 19.708 18.8668 19.3576V7.22879C18.8668 6.87839 18.7276 6.54233 18.4798 6.29455C18.2321 6.04678 17.896 5.90758 17.5456 5.90758H5.65464ZM15.9469 4.58636H14.6257C14.6531 4.17311 14.5953 3.75864 14.4559 3.36862C14.3166 2.9786 14.0987 2.62135 13.8157 2.31898C13.5326 2.01661 13.1906 1.77556 12.8106 1.61077C12.4306 1.44597 12.0209 1.36095 11.6067 1.36095C11.1926 1.36095 10.7828 1.44597 10.4029 1.61077C10.0229 1.77556 9.68081 2.01661 9.39779 2.31898C9.11477 2.62135 8.89684 2.9786 8.75751 3.36862C8.61817 3.75864 8.56039 4.17311 8.58774 4.58636H7.26653C7.23395 3.99625 7.32206 3.4057 7.52546 2.8508C7.72886 2.2959 8.04328 1.78831 8.44951 1.35905C8.85573 0.929781 9.34523 0.587864 9.88807 0.354192C10.4309 0.120519 11.0157 0 11.6067 0C12.1977 0 12.7825 0.120519 13.3254 0.354192C13.8682 0.587864 14.3577 0.929781 14.7639 1.35905C15.1702 1.78831 15.4846 2.2959 15.688 2.8508C15.8914 3.4057 15.9795 3.99625 15.9469 4.58636Z" fill="#1A1A1A"/>
</svg>
