<svg width="12" height="12" viewBox="0 0 12 12" fill="none" xmlns="http://www.w3.org/2000/svg">
<path d="M9.81782 3.02983C10.0521 2.79551 10.0521 2.41561 9.81782 2.1813C9.5835 1.94698 9.20361 1.94698 8.96929 2.1813L2.18107 8.96952C1.94675 9.20384 1.94675 9.58374 2.18107 9.81805C2.41538 10.0524 2.79528 10.0524 3.02959 9.81805L9.81782 3.02983Z" fill="#1A1A1A"/>
<path d="M9.81796 8.96952L3.02973 2.1813C2.79542 1.94698 2.41552 1.94698 2.1812 2.1813C1.94689 2.41561 1.94689 2.79551 2.1812 3.02983L8.96943 9.81805C9.20374 10.0524 9.58364 10.0524 9.81796 9.81805C10.0523 9.58374 10.0523 9.20384 9.81796 8.96952Z" fill="#1A1A1A"/>
</svg>
