<svg width="36" height="37" viewBox="0 0 36 37" fill="none" xmlns="http://www.w3.org/2000/svg">
<rect x="17.8422" y="0.663261" width="25.2326" height="25.2326" rx="5.76744" transform="rotate(45 17.8422 0.663261)" fill="#648864"/>
<g clip-path="url(#clip0_3_13)">
<path d="M20.686 14.5636L13.7601 14.5636C12.9404 14.5636 12.2759 15.2053 12.2759 15.9968L12.2759 22.6846C12.2759 23.4761 12.9404 24.1178 13.7601 24.1178L20.686 24.1178C21.5056 24.1178 22.1701 23.4761 22.1701 22.6846L22.1701 15.9968C22.1701 15.2053 21.5056 14.5636 20.686 14.5636Z" fill="white"/>
<path d="M18.5004 14.5636L15.953 14.5636L15.953 24.1178L18.5004 24.1178L18.5004 14.5636Z" fill="white"/>
<path d="M20.5162 12.8453C20.5162 13.267 20.3427 13.6714 20.0339 13.9696C19.7251 14.2678 19.3063 14.4353 18.8696 14.4353L17.2378 14.4353L17.2378 12.8453C17.2378 12.4236 17.4113 12.0192 17.72 11.721C18.0288 11.4229 18.4477 11.2553 18.8844 11.2553C19.3185 11.2591 19.7335 11.4283 20.0391 11.726C20.3447 12.0238 20.5162 12.4261 20.5162 12.8453Z" fill="white"/>
<path d="M15.5765 11.2839C16.0132 11.2839 16.432 11.4514 16.7408 11.7496C17.0495 12.0477 17.223 12.4521 17.223 12.8738L17.223 14.4709L15.5765 14.4709C15.359 14.4719 15.1435 14.4312 14.9424 14.3513C14.7413 14.2714 14.5585 14.1538 14.4048 14.0053C14.251 13.8568 14.1292 13.6803 14.0464 13.4861C13.9636 13.2919 13.9215 13.0838 13.9225 12.8738C13.9225 12.6644 13.9653 12.4571 14.0485 12.2637C14.1318 12.0704 14.2537 11.8948 14.4074 11.747C14.5611 11.5993 14.7435 11.4823 14.9441 11.4028C15.1447 11.3234 15.3596 11.2829 15.5765 11.2839Z" fill="white"/>
<path d="M12.2759 17.8006L15.761 17.8006M18.493 17.8006L22.1701 17.8006M13.7601 14.5636L20.686 14.5636C21.5056 14.5636 22.1701 15.2053 22.1701 15.9968L22.1701 22.6846C22.1701 23.4761 21.5056 24.1178 20.686 24.1178L13.7601 24.1178C12.9404 24.1178 12.2759 23.4761 12.2759 22.6846L12.2759 15.9968C12.2759 15.2053 12.9404 14.5636 13.7601 14.5636ZM15.953 14.5636L18.5004 14.5636L18.5004 24.1178L15.953 24.1178L15.953 14.5636ZM20.5162 12.8453C20.5162 13.267 20.3427 13.6714 20.0339 13.9696C19.7251 14.2678 19.3063 14.4353 18.8696 14.4353L17.2378 14.4353L17.2378 12.8453C17.2378 12.4236 17.4113 12.0192 17.72 11.721C18.0288 11.4229 18.4477 11.2553 18.8844 11.2553C19.3185 11.2591 19.7335 11.4283 20.0391 11.726C20.3447 12.0238 20.5162 12.4261 20.5162 12.8453ZM15.5765 11.2839C16.0132 11.2839 16.432 11.4514 16.7408 11.7496C17.0495 12.0477 17.223 12.4521 17.223 12.8738L17.223 14.4709L15.5765 14.4709C15.359 14.4719 15.1435 14.4312 14.9424 14.3513C14.7413 14.2714 14.5585 14.1538 14.4048 14.0053C14.251 13.8568 14.1292 13.6803 14.0464 13.4861C13.9636 13.2919 13.9215 13.0838 13.9225 12.8738C13.9225 12.6644 13.9653 12.4571 14.0485 12.2637C14.1318 12.0704 14.2537 11.8948 14.4074 11.747C14.5611 11.5993 14.7435 11.4823 14.9441 11.4028C15.1447 11.3234 15.3596 11.2829 15.5765 11.2839Z" stroke="#648864" stroke-width="0.791533" stroke-linecap="round" stroke-linejoin="round"/>
</g>
<defs>
<clipPath id="clip0_3_13">
<rect width="14.8412" height="14.8412" fill="white" transform="translate(10.223 10.2659)"/>
</clipPath>
</defs>
</svg>
