<svg width="22" height="22" viewBox="0 0 22 22" fill="none" xmlns="http://www.w3.org/2000/svg">
<path d="M11.0001 20.3133C11.0001 20.3133 20.9001 15.5723 20.9001 8.36732C20.8915 7.19004 20.4839 6.05046 19.7439 5.13479C19.0039 4.21912 17.9752 3.58149 16.8259 3.3261C15.6766 3.0707 14.4747 3.21263 13.4165 3.7287C12.3584 4.24477 11.5065 5.10447 11.0001 6.16732C10.4937 5.10447 9.64184 4.24477 8.58366 3.7287C7.52548 3.21263 6.32356 3.0707 5.17427 3.3261C4.02499 3.58149 2.99629 4.21912 2.25628 5.13479C1.51626 6.05046 1.10867 7.19004 1.1001 8.36732C1.1001 15.5723 11.0001 20.3133 11.0001 20.3133Z" stroke="#1C1C1E" stroke-width="1.46667" stroke-linecap="round" stroke-linejoin="round"/>
</svg>
