<svg width="27" height="27" viewBox="0 0 27 27" fill="none" xmlns="http://www.w3.org/2000/svg">
<rect width="26.9512" height="26.9537" rx="6" fill="#648864"/>
<path d="M13.4757 20.1883C13.4757 20.1883 20.6098 16.7718 20.6098 11.5798C20.6037 10.7314 20.3099 9.91018 19.7767 9.25033C19.2434 8.59048 18.5021 8.131 17.6739 7.94695C16.8457 7.76291 15.9796 7.86519 15.217 8.23708C14.4545 8.60897 13.8406 9.22849 13.4757 9.9944C13.1108 9.22849 12.4969 8.60897 11.7344 8.23708C10.9718 7.86519 10.1057 7.76291 9.27749 7.94695C8.44929 8.131 7.70799 8.59048 7.17472 9.25033C6.64145 9.91018 6.34773 10.7314 6.34155 11.5798C6.34155 16.7718 13.4757 20.1883 13.4757 20.1883Z" fill="white" stroke="white" stroke-width="1.05691" stroke-linecap="round" stroke-linejoin="round"/>
</svg>
