<svg width="27" height="27" viewBox="0 0 27 27" fill="none" xmlns="http://www.w3.org/2000/svg">
<rect x="0.0488281" width="26.9512" height="26.9537" rx="6" fill="#648864"/>
<path d="M13.5245 20.1883C13.5245 20.1883 20.6587 16.7718 20.6587 11.5798C20.6525 10.7314 20.3588 9.91018 19.8255 9.25033C19.2922 8.59048 18.5509 8.131 17.7227 7.94695C16.8945 7.76291 16.0284 7.86519 15.2659 8.23708C14.5033 8.60897 13.8894 9.22849 13.5245 9.9944C13.1596 9.22849 12.5457 8.60897 11.7832 8.23708C11.0206 7.86519 10.1545 7.76291 9.32632 7.94695C8.49812 8.131 7.75682 8.59048 7.22355 9.25033C6.69027 9.91018 6.39656 10.7314 6.39038 11.5798C6.39038 16.7718 13.5245 20.1883 13.5245 20.1883Z" stroke="white" stroke-width="1.05691" stroke-linecap="round" stroke-linejoin="round"/>
</svg>
