<svg width="165" height="126" viewBox="0 0 165 126" fill="none" xmlns="http://www.w3.org/2000/svg">
<g clip-path="url(#clip0_1_18895)">
<path d="M45.6816 101.524H29.3104L48.1247 81.4059L48.1558 81.3718V78.707H27.6968L26.5276 86.2275C26.5276 86.2275 28.9934 81.4031 30.2701 81.4031H44.3794L25.5 101.524V104.186H48.2068L49.3929 96.6683C49.3929 96.6683 46.9753 101.524 45.6816 101.524Z" fill="#1A1A1A"/>
<path d="M79.5241 91.455C79.5241 84.2098 73.3386 78.3381 66.1141 78.3381C58.8896 78.3381 52.7012 84.2098 52.7012 91.455C52.7012 98.7003 58.8867 104.572 66.1141 104.572C73.3414 104.572 79.5241 98.7003 79.5241 91.455ZM55.484 91.455C55.484 85.8984 60.0729 80.9916 66.1141 80.9916C72.1552 80.9916 76.7413 85.8984 76.7413 91.455C76.7413 96.9237 72.1524 101.913 66.1141 101.913C60.0757 101.913 55.4868 96.9237 55.4868 91.455H55.484Z" fill="#1A1A1A"/>
<path d="M105.755 81.9706V101.524H104.289L91.1559 78.707H84.8571V100.925C84.8491 101.575 84.6804 102.214 84.3662 102.783C84.0521 103.352 83.6021 103.834 83.0566 104.186H89.4404C89.4404 104.186 87.6371 103.065 87.6371 100.925V81.3718H89.5791L102.726 104.186H108.535V81.9706C108.524 81.3164 108.685 80.6707 109.001 80.0981C109.317 79.5254 109.777 79.0458 110.335 78.707H103.954C104.513 79.0458 104.973 79.5254 105.289 80.0981C105.605 80.6707 105.766 81.3164 105.755 81.9706Z" fill="#1A1A1A"/>
<path d="M132.124 101.524H120.88C120.204 101.524 119.556 101.255 119.078 100.776C118.6 100.297 118.332 99.6473 118.332 98.9699V92.5732H126.799C128.252 92.5732 129.503 94.3809 129.503 94.3809V88.1602C129.503 88.1602 128.164 89.9084 126.805 89.9084H118.332V83.9487C118.332 83.2645 118.603 82.6084 119.086 82.1246C119.568 81.6408 120.223 81.369 120.905 81.369H131.235C132.546 81.369 135.326 85.5465 135.326 85.5465L133.789 78.7042H113.74C113.74 78.7042 115.541 79.9756 115.541 81.9678V100.868C115.535 101.527 115.367 102.173 115.053 102.751C114.739 103.329 114.288 103.821 113.74 104.183H134.689L136.215 96.6626C136.215 96.6626 133.407 101.524 132.124 101.524Z" fill="#1A1A1A"/>
<path d="M19.8164 52.6237C21.648 51.3551 22.5879 49.5587 22.5737 46.7066C22.5567 43.4486 19.7711 40.8803 16.5212 40.8803H0C0 40.8803 1.80046 41.6579 1.80046 44.1439V63.1155C1.79288 63.7639 1.62431 64.4003 1.30997 64.9671C0.995632 65.5339 0.545427 66.0133 0 66.3621H16.9345C20.5666 66.3621 23.6891 63.4816 23.6665 59.8348C23.6467 56.4322 22.3388 53.9603 19.8164 52.6237ZM4.60024 46.2894C4.59987 45.9289 4.67042 45.5719 4.80786 45.2388C4.9453 44.9057 5.14693 44.603 5.4012 44.3481C5.65548 44.0932 5.95741 43.8911 6.2897 43.7533C6.622 43.6155 6.97814 43.5448 7.33774 43.5451H15.4908C18.4151 43.5451 20.6657 46.0141 19.4541 49.0138C18.7662 50.7166 17.0166 51.3977 15.1822 51.3977H4.60024V46.2894ZM15.7654 63.7001H7.16505C6.48777 63.6956 5.83975 63.4227 5.36243 62.941C4.8851 62.4593 4.61721 61.8079 4.61723 61.1289V54.0682H15.3917C17.8659 54.0682 20.1646 55.3679 20.7704 57.7773C21.5857 61.1318 19.0238 63.6973 15.7654 63.7001Z" fill="#1A1A1A"/>
<path d="M27.4883 66.3621H48.4371L49.9629 58.8416C49.9629 58.8416 47.1688 63.6973 45.8892 63.6973H34.6222C33.9465 63.6973 33.2984 63.4282 32.8206 62.9492C32.3428 62.4702 32.0744 61.8205 32.0744 61.1431V54.7464H40.5416C41.9939 54.7464 43.2452 56.5542 43.2452 56.5542V50.3335C43.2452 50.3335 41.9061 52.0816 40.5473 52.0816H32.0772V46.122C32.0768 45.7831 32.1431 45.4475 32.2723 45.1343C32.4015 44.8212 32.591 44.5367 32.8301 44.297C33.0691 44.0574 33.3529 43.8674 33.6653 43.7379C33.9777 43.6084 34.3125 43.5419 34.6505 43.5423H44.9805C46.2912 43.5423 49.0712 47.7197 49.0712 47.7197L47.534 40.8775H27.4883C27.4883 40.8775 29.2887 42.1517 29.2887 44.1439V63.0445C29.2825 63.703 29.1151 64.3499 28.8012 64.9284C28.4873 65.5068 28.0364 65.9991 27.4883 66.3621Z" fill="#1A1A1A"/>
<path d="M71.7442 43.5423L70.6939 40.8661H64.1828L63.1325 43.531L55.5683 62.582C54.2236 65.4 51.9844 66.3479 51.9844 66.3479H60.8338C60.8338 66.3479 57.9746 64.2705 58.4219 62.9424L60.6668 57.2836L61.417 55.4048L75.481 60.5131L76.4237 62.8856C76.9474 64.2138 74.0117 66.3337 74.0117 66.3337H82.881C82.881 66.3337 80.6304 65.3858 79.2829 62.5394L71.7442 43.5423ZM66.1418 43.5423H68.7462L73.1455 54.6301H73.12L74.0542 57.136L62.4276 52.9018L66.1418 43.5423Z" fill="#1A1A1A"/>
<path d="M109.093 40.8661H102.707C103.275 41.1946 103.744 41.6724 104.061 42.248C104.379 42.8236 104.534 43.4752 104.51 44.1326V55.4389C104.51 61.5433 102.058 64.0747 95.5642 64.0747C89.0701 64.0747 86.6412 61.5433 86.6412 55.4389V44.144C86.6412 42.007 88.4416 40.8775 88.4416 40.8775H82.0664C82.6267 41.215 83.0882 41.6947 83.4043 42.2683C83.7205 42.8418 83.88 43.4888 83.8669 44.144V55.3396C83.8669 64.3585 89.2852 66.7566 95.5755 66.7566C101.866 66.7566 107.293 64.3472 107.293 55.3396V44.1553C107.264 43.4944 107.417 42.8382 107.734 42.2583C108.052 41.6783 108.522 41.1968 109.093 40.8661Z" fill="#1A1A1A"/>
<path d="M137.059 40.8661H112.713V40.9853L111.553 47.7084C111.553 47.7084 114.293 43.5338 115.604 43.5338H121.693C122.8 44.1014 123.496 44.6037 123.496 45.8552V63.0843C123.507 63.7389 123.346 64.385 123.03 64.9578C122.714 65.5305 122.252 66.0099 121.693 66.3479H128.077C127.532 65.9946 127.082 65.5118 126.768 64.9425C126.454 64.3731 126.285 63.7348 126.276 63.0843V45.8808C126.276 44.6264 126.964 44.1298 128.068 43.5452H134.169C135.48 43.5452 138.214 47.7169 138.214 47.7169L137.059 40.9967V40.8661Z" fill="#1A1A1A"/>
<path d="M157.945 40.8803C157.945 40.8803 159.698 42.0779 158.41 44.1468L152.283 54.0086L146.174 44.1468C144.886 42.0779 146.639 40.8803 146.639 40.8803H139.584C139.584 40.8803 142.132 42.0779 143.42 44.1468L150.913 56.1909V63.0928C150.913 65.1645 149.113 66.3621 149.113 66.3621H155.471C155.471 66.3621 153.671 65.1645 153.671 63.0928V56.1909L161.164 44.1468C162.452 42.0779 165 40.8803 165 40.8803H157.945Z" fill="#1A1A1A"/>
<path d="M54.4518 124.361C54.158 124.51 53.8329 124.587 53.5035 124.585C53.0329 124.602 52.5728 124.443 52.2126 124.139C52.0517 124.001 51.9226 123.83 51.8341 123.637C51.7455 123.444 51.6997 123.234 51.6997 123.021C51.6997 122.809 51.7455 122.599 51.8341 122.406C51.9226 122.213 52.0517 122.041 52.2126 121.903C52.5721 121.598 53.0325 121.438 53.5035 121.455C53.8194 121.45 54.1326 121.515 54.4207 121.645C54.6851 121.761 54.9138 121.947 55.0831 122.181L55.587 121.827C55.3615 121.519 55.06 121.275 54.7123 121.12C54.3326 120.948 53.92 120.862 53.5035 120.867C52.859 120.841 52.2288 121.061 51.7398 121.483C51.5219 121.677 51.3475 121.915 51.2281 122.181C51.1086 122.448 51.0469 122.736 51.0469 123.028C51.0469 123.32 51.1086 123.609 51.2281 123.875C51.3475 124.142 51.5219 124.38 51.7398 124.574C52.2311 124.991 52.8602 125.208 53.5035 125.184C53.9474 125.193 54.3872 125.096 54.7859 124.9C55.1601 124.709 55.4752 124.42 55.6974 124.063L55.1879 123.708C54.999 123.982 54.7464 124.206 54.4518 124.361Z" fill="#1A1A1A"/>
<path d="M60.7458 120.856C60.0954 120.83 59.4586 121.047 58.9595 121.466C58.7347 121.654 58.5551 121.891 58.434 122.158C58.3129 122.425 58.2536 122.716 58.2603 123.01C58.2556 123.303 58.3158 123.594 58.4367 123.862C58.5576 124.129 58.7362 124.367 58.9595 124.557C59.4718 124.955 60.1017 125.171 60.7501 125.171C61.3984 125.171 62.0283 124.955 62.5406 124.557C62.7599 124.363 62.9354 124.125 63.0557 123.858C63.176 123.591 63.2382 123.301 63.2382 123.008C63.2382 122.716 63.176 122.426 63.0557 122.159C62.9354 121.892 62.7599 121.654 62.5406 121.46C62.037 121.044 61.3979 120.829 60.7458 120.856ZM62.0735 124.134C61.6906 124.419 61.226 124.574 60.7487 124.574C60.2713 124.574 59.8067 124.419 59.4238 124.134C59.2639 123.994 59.1358 123.821 59.048 123.627C58.9602 123.433 58.9148 123.223 58.9148 123.01C58.9148 122.797 58.9602 122.587 59.048 122.393C59.1358 122.199 59.2639 122.026 59.4238 121.886C59.8052 121.598 60.2697 121.442 60.7472 121.442C61.2247 121.442 61.6893 121.598 62.0707 121.886C62.2326 122.025 62.3626 122.197 62.4517 122.39C62.5409 122.584 62.587 122.795 62.587 123.008C62.587 123.222 62.5409 123.433 62.4517 123.626C62.3626 123.82 62.2326 123.992 62.0707 124.131L62.0735 124.134Z" fill="#1A1A1A"/>
<path d="M69.3288 122.851C68.8813 122.603 68.3725 122.489 67.8624 122.522C67.5309 122.54 67.1987 122.502 66.88 122.408C66.7971 122.384 66.7245 122.333 66.6734 122.263C66.6222 122.194 66.5953 122.109 66.5969 122.022C66.5996 121.932 66.6275 121.844 66.6776 121.769C66.7276 121.693 66.7978 121.634 66.88 121.597C67.1091 121.479 67.3647 121.423 67.6217 121.435C67.9106 121.436 68.1974 121.484 68.471 121.577C68.7622 121.669 69.0387 121.803 69.292 121.974L69.609 121.443C69.315 121.254 68.9957 121.107 68.6607 121.006C68.3311 120.906 67.9887 120.856 67.6444 120.856C67.2135 120.834 66.7864 120.946 66.4214 121.177C66.2794 121.268 66.1631 121.394 66.0838 121.543C66.0045 121.692 65.9648 121.859 65.9685 122.028C65.9547 122.188 65.9862 122.348 66.0593 122.491C66.1324 122.633 66.2442 122.752 66.3818 122.834C66.6649 122.996 67.166 123.084 67.9048 123.092C68.2357 123.081 68.5648 123.145 68.8673 123.279C68.9618 123.329 69.0406 123.403 69.0947 123.495C69.1488 123.587 69.1759 123.692 69.1731 123.799C69.1721 123.915 69.1406 124.028 69.082 124.128C69.0234 124.227 68.9395 124.31 68.839 124.366C68.5754 124.527 68.2697 124.605 67.9615 124.591C67.64 124.587 67.321 124.533 67.0159 124.432C66.6914 124.33 66.3834 124.182 66.1015 123.992L65.793 124.528C66.124 124.738 66.4834 124.9 66.8602 125.008C67.2418 125.12 67.6374 125.177 68.0351 125.178C68.4987 125.199 68.956 125.064 69.3344 124.795C69.4903 124.689 69.6178 124.546 69.7056 124.378C69.7935 124.211 69.8391 124.025 69.8383 123.836C69.8479 123.641 69.8058 123.447 69.7163 123.274C69.6268 123.101 69.4931 122.955 69.3288 122.851Z" fill="#1A1A1A"/>
<path d="M74.9986 123.353L73.3341 120.967H72.8047V125.042H73.4416V122.113L74.9986 124.378L76.5585 122.113V125.042H77.1926V120.967H76.6661L74.9986 123.353Z" fill="#1A1A1A"/>
<path d="M81.0753 123.166H83.1589V122.581H81.0753V121.563H84.2488V120.967H80.4355V125.042H84.4271V124.454H81.0753V123.166Z" fill="#1A1A1A"/>
<path d="M86.4336 121.534H88.1491V125.042H88.7804V121.534H90.4988V120.967H86.4336V121.534Z" fill="#1A1A1A"/>
<path d="M93.6385 120.958H92.9902V125.042H93.6385V120.958Z" fill="#1A1A1A"/>
<path d="M99.9546 124.361C99.6574 124.508 99.3292 124.581 98.9978 124.574C98.5282 124.59 98.0692 124.431 97.7097 124.128C97.5484 123.99 97.4189 123.819 97.3301 123.626C97.2413 123.433 97.1953 123.223 97.1953 123.01C97.1953 122.797 97.2413 122.587 97.3301 122.394C97.4189 122.201 97.5484 122.03 97.7097 121.892C98.0694 121.587 98.5297 121.427 99.0006 121.443C99.3166 121.438 99.6298 121.503 99.9179 121.634C100.183 121.751 100.412 121.936 100.583 122.17L101.087 121.815C100.86 121.508 100.558 121.265 100.209 121.109C99.8299 120.936 99.4172 120.85 99.0006 120.856C98.3562 120.83 97.7259 121.05 97.237 121.472C97.0199 121.666 96.8462 121.904 96.7273 122.171C96.6083 122.437 96.5469 122.725 96.5469 123.017C96.5469 123.309 96.6083 123.597 96.7273 123.864C96.8462 124.13 97.0199 124.368 97.237 124.562C97.7283 124.979 98.3574 125.197 99.0006 125.172C99.4446 125.183 99.8846 125.085 100.283 124.889C100.658 124.698 100.974 124.409 101.197 124.051L100.688 123.697C100.502 123.975 100.25 124.203 99.9546 124.361Z" fill="#1A1A1A"/>
<path d="M107.315 122.851C106.868 122.603 106.359 122.489 105.849 122.522C105.517 122.54 105.185 122.502 104.866 122.408C104.783 122.384 104.711 122.333 104.66 122.263C104.609 122.194 104.582 122.109 104.583 122.022C104.586 121.932 104.614 121.844 104.664 121.769C104.714 121.693 104.784 121.634 104.866 121.597C105.095 121.479 105.351 121.423 105.608 121.435C105.897 121.436 106.184 121.483 106.457 121.577C106.749 121.668 107.025 121.802 107.278 121.974L107.595 121.443C107.301 121.254 106.982 121.107 106.647 121.006C106.317 120.906 105.975 120.856 105.631 120.856C105.2 120.834 104.773 120.946 104.408 121.177C104.266 121.268 104.149 121.394 104.07 121.543C103.991 121.692 103.951 121.859 103.955 122.028C103.941 122.188 103.972 122.348 104.046 122.491C104.119 122.633 104.231 122.752 104.368 122.834C104.651 122.996 105.152 123.084 105.891 123.092C106.222 123.081 106.551 123.145 106.854 123.279C106.948 123.329 107.027 123.403 107.081 123.495C107.135 123.587 107.162 123.692 107.159 123.799C107.158 123.915 107.127 124.028 107.068 124.128C107.01 124.227 106.926 124.31 106.825 124.366C106.562 124.527 106.256 124.605 105.948 124.591C105.626 124.587 105.307 124.533 105.002 124.432C104.678 124.33 104.37 124.182 104.088 123.992L103.779 124.528C104.11 124.738 104.47 124.9 104.847 125.008C105.228 125.12 105.624 125.177 106.021 125.178C106.486 125.199 106.944 125.064 107.324 124.795C107.479 124.688 107.605 124.545 107.693 124.378C107.78 124.21 107.825 124.024 107.825 123.836C107.834 123.641 107.792 123.447 107.703 123.274C107.613 123.101 107.479 122.955 107.315 122.851Z" fill="#1A1A1A"/>
<path d="M37.7057 18.3557L38.2775 17.9386L36.8904 16.0201L37.2839 12.958L36.5054 13.5228L36.2478 15.7307L34.0538 15.3021L33.3008 15.847L36.3242 16.4458L37.7057 18.3557Z" fill="#1A1A1A"/>
<path d="M40.8904 15.4582C41.6203 15.5453 42.3583 15.3861 42.9878 15.0058C43.6174 14.6255 44.1026 14.0457 44.3668 13.3581C44.4666 13.0417 44.498 12.7075 44.459 12.3779C44.42 12.0484 44.3115 11.7309 44.1406 11.4466C43.9698 11.1623 43.7405 10.9177 43.4681 10.7291C43.1957 10.5405 42.8864 10.4122 42.5606 10.3527C41.8306 10.2722 41.0943 10.4351 40.4659 10.8163C39.8375 11.1974 39.3519 11.7756 39.0843 12.4613C38.9769 12.7757 38.9413 13.1103 38.98 13.4403C39.0187 13.7704 39.1308 14.0875 39.3079 14.3684C39.4746 14.6563 39.7031 14.9035 39.9768 15.0919C40.2504 15.2804 40.5625 15.4055 40.8904 15.4582ZM39.7807 12.5947C39.9842 12.0922 40.3447 11.6693 40.8081 11.3895C41.2715 11.1096 41.8129 10.9878 42.3512 11.0424C42.5893 11.0814 42.8161 11.1717 43.016 11.3071C43.2159 11.4426 43.3841 11.6199 43.509 11.8268C43.6339 12.0338 43.7125 12.2654 43.7394 12.5058C43.7662 12.7462 43.7408 12.9895 43.6647 13.2191C43.4618 13.7216 43.102 14.1447 42.6391 14.4251C42.1762 14.7054 41.6352 14.8279 41.0971 14.7742C40.8595 14.7335 40.6334 14.6419 40.4342 14.5059C40.235 14.3699 40.0673 14.1925 39.9424 13.9858C39.8176 13.7791 39.7386 13.5479 39.7106 13.3079C39.6827 13.0679 39.7066 12.8247 39.7807 12.5947Z" fill="#1A1A1A"/>
<path d="M47.2759 12.1719C47.7006 12.2438 48.2771 12.1047 49.0056 11.7547C49.736 11.4056 50.2059 11.0396 50.4211 10.6564C50.5269 10.4476 50.5785 10.2154 50.571 9.98123C50.5636 9.7471 50.4974 9.51863 50.3786 9.31693L49.0226 6.479L48.3743 6.78834L49.6482 9.45883C49.8379 9.85897 49.8747 10.174 49.753 10.4039C49.6312 10.6337 49.2887 10.8835 48.7282 11.1531C48.1677 11.4227 47.7628 11.5305 47.5081 11.4823C47.2533 11.434 47.0296 11.1985 46.84 10.8068L45.5661 8.13635L44.9121 8.44852L46.2681 11.2865C46.3501 11.506 46.485 11.7018 46.6609 11.8563C46.8367 12.0108 47.0481 12.1192 47.2759 12.1719Z" fill="#1A1A1A"/>
<path d="M53.6749 9.54395L52.9813 7.66241L54.8639 6.96712L56.7832 8.40878L57.5193 8.13918L55.6197 6.67765C55.9069 6.52225 56.1274 6.26685 56.2397 5.95965C56.3542 5.66783 56.3542 5.34334 56.2397 5.05152C56.1876 4.88123 56.0976 4.72504 55.9765 4.59475C55.8554 4.46446 55.7063 4.36349 55.5405 4.29947C55.1596 4.18024 54.7486 4.2024 54.3826 4.3619L51.4102 5.46585L52.9955 9.79085L53.6749 9.54395ZM52.316 5.84046L54.6148 4.98908C54.8012 4.90735 55.0097 4.89134 55.2064 4.94368C55.2877 4.97428 55.3609 5.02322 55.4202 5.0867C55.4796 5.15018 55.5237 5.2265 55.549 5.30977C55.5844 5.38999 55.6008 5.47736 55.5968 5.56501C55.5929 5.65266 55.5688 5.7382 55.5263 5.81492C55.4112 5.98382 55.2411 6.10725 55.0451 6.16398L52.7463 7.01536L52.316 5.84046Z" fill="#1A1A1A"/>
<path d="M64.0802 6.34559L63.6556 4.23985L66.829 3.59847L67.2537 5.70138L67.9586 5.55948L67.047 1.03015L66.3421 1.17489L66.696 2.9344L63.5225 3.57861L63.1687 1.81626L62.4609 1.96099L63.3725 6.48748L64.0802 6.34559Z" fill="#1A1A1A"/>
<path d="M74.5825 4.7507L74.5117 4.08946L70.7325 4.5038L70.5768 3.05362L72.9264 2.79537L72.8528 2.1313L70.5032 2.38955L70.3786 1.24303L73.9569 0.854229L73.8833 0.181641L69.5859 0.652736L70.087 5.2445L74.5825 4.7507Z" fill="#1A1A1A"/>
<path d="M76.6612 3.48781L79.0958 3.42538L79.7243 4.58325L80.4971 4.56055L78.0144 0L77.5671 0.0170276L75.3477 4.69677L76.1092 4.6769L76.6612 3.48781ZM77.819 1.07841L78.7617 2.83793L76.9584 2.88333L77.819 1.07841Z" fill="#1A1A1A"/>
<path d="M85.9521 4.16608L82.538 3.98729L82.7446 0.039731L82.0228 0L81.7793 4.61447L85.9181 4.83299L85.9521 4.16608Z" fill="#1A1A1A"/>
<path d="M87.6079 5.04301L88.3213 5.12531L88.7799 1.17492L90.7163 1.40195L90.7899 0.763419L86.2123 0.227051L86.1387 0.868422L88.0665 1.09262L87.6079 5.04301Z" fill="#1A1A1A"/>
<path d="M92.6938 3.60134L95.8672 4.24555L95.4398 6.35129L96.1418 6.49319L97.0619 1.9667L96.357 1.8248L96.0003 3.58432L92.8268 2.93727L93.1864 1.17775L92.4758 1.03302L91.5586 5.55951L92.2663 5.70425L92.6938 3.60134Z" fill="#1A1A1A"/>
<path d="M99.5135 7.42688L100.19 7.62837L100.861 5.35803L103.522 3.80001L102.602 3.52473L100.7 4.66841L99.7003 2.66484L98.8086 2.39807L100.182 5.16505L99.5135 7.42688Z" fill="#1A1A1A"/>
<path d="M111.929 10.7841C112.031 10.591 112.08 10.3744 112.071 10.1562C112.063 9.93794 111.997 9.72581 111.881 9.54112C111.537 9.07562 111.066 8.71906 110.525 8.51379C110.171 8.37132 109.844 8.16982 109.557 7.91783C109.484 7.85276 109.433 7.76545 109.414 7.66915C109.394 7.57286 109.407 7.47284 109.449 7.3843C109.497 7.29476 109.569 7.22029 109.656 7.16917C109.744 7.11806 109.844 7.09232 109.945 7.09483C110.239 7.08145 110.532 7.14502 110.794 7.27929C111.086 7.4163 111.355 7.5993 111.59 7.82134C111.845 8.05431 112.067 8.32287 112.246 8.61879L112.813 8.22432C112.597 7.88998 112.337 7.58641 112.04 7.32186C111.746 7.06511 111.417 6.85198 111.063 6.689C110.629 6.45978 110.134 6.37245 109.648 6.43927C109.462 6.4678 109.287 6.54285 109.138 6.65745C108.989 6.77205 108.871 6.92249 108.795 7.09483C108.707 7.25333 108.664 7.43346 108.672 7.61495C108.68 7.79645 108.739 7.9721 108.841 8.12216C109.05 8.42014 109.532 8.74934 110.29 9.10975C110.635 9.25605 110.943 9.47815 111.19 9.75964C111.267 9.85347 111.314 9.96767 111.327 10.0882C111.339 10.2087 111.317 10.3302 111.261 10.4379C111.205 10.5566 111.12 10.6586 111.012 10.7338C110.905 10.8089 110.78 10.8547 110.65 10.8664C110.303 10.9064 109.952 10.8412 109.642 10.6791C109.311 10.5236 109.007 10.3178 108.739 10.069C108.454 9.8104 108.207 9.51224 108.006 9.18354L107.439 9.58936C107.682 9.96231 107.977 10.2987 108.314 10.5883C108.656 10.8844 109.037 11.1309 109.447 11.3205C109.916 11.5609 110.451 11.6387 110.97 11.5419C111.179 11.5032 111.376 11.4139 111.543 11.2819C111.71 11.1499 111.843 10.9791 111.929 10.7841Z" fill="#1A1A1A"/>
<path d="M114.533 11.7519L115.756 11.5163L116.181 14.6806L116.886 15.0807L116.405 11.3999L118.893 10.9232L118.063 10.4549L114.935 11.0395L115.94 9.25448L115.309 8.8969L113.053 12.9126L113.681 13.2701L114.533 11.7519Z" fill="#1A1A1A"/>
<path d="M120.635 12.0217L118.121 15.9073L118.736 16.3073L121.25 12.4217L120.635 12.0217Z" fill="#1A1A1A"/>
<path d="M121.171 17.9697L123.099 15.3759L123.518 19.7207L123.821 19.9478L126.573 16.2414L126.004 15.8186L124.073 18.421L123.654 14.0647L123.351 13.8377L120.6 17.544L121.171 17.9697Z" fill="#1A1A1A"/>
</g>
<defs>
<clipPath id="clip0_1_18895">
<rect width="165" height="126" fill="white"/>
</clipPath>
</defs>
</svg>
