<svg width="58" height="22" viewBox="0 0 58 22" fill="none" xmlns="http://www.w3.org/2000/svg">
<g clip-path="url(#clip0_202_15143)">
<ellipse cx="29" cy="10.5125" rx="29" ry="10.5125" fill="#648864"/>
<path d="M19.7838 13.865C19.7331 11.6122 19.7343 9.28871 19.7874 6.89444C19.7932 6.63509 19.6371 6.35923 19.3188 6.06688C19.2457 5.9985 19.2592 5.96432 19.3594 5.96432L21.278 5.95547C21.3794 5.95429 21.3936 5.98907 21.3205 6.0598C20.9774 6.38753 20.8 6.66574 20.7882 6.89444C20.7069 8.3633 20.721 11.047 20.8306 14.9455C20.8311 14.9585 20.829 14.9716 20.8243 14.9838C20.8196 14.996 20.8125 15.0071 20.8034 15.0165C20.7944 15.026 20.7835 15.0334 20.7714 15.0385C20.7594 15.0436 20.7465 15.0463 20.7334 15.0463L18.7989 15.0374C18.7411 15.0374 18.6975 15.0121 18.668 14.9614L14.0227 6.99877C13.9933 6.94925 13.949 6.9245 13.8901 6.9245L13.4356 6.92803C13.3814 6.92921 13.3531 6.95692 13.3508 7.01114C13.1822 10.0915 13.1787 12.4557 13.3402 14.1038C13.3626 14.3301 13.5571 14.6007 13.9237 14.9154C13.9337 14.9237 13.9409 14.9349 13.9441 14.9475C13.9474 14.96 13.9467 14.9733 13.9421 14.9856C13.9375 14.9979 13.9292 15.0086 13.9183 15.0163C13.9075 15.024 13.8945 15.0283 13.8813 15.0286L11.9361 15.0197C11.8336 15.0197 11.8183 14.9826 11.8902 14.9083C12.1978 14.5912 12.3476 14.323 12.3393 14.1038C12.2403 11.4277 12.2609 8.75409 12.4012 6.08279C12.4047 6.01324 12.4419 5.97787 12.5126 5.97669L14.5037 5.96962C14.5591 5.96962 14.6004 5.9932 14.6275 6.04035L19.1914 14.0295C19.2261 14.0912 19.2805 14.1396 19.3459 14.1668C19.4113 14.194 19.4839 14.1985 19.5521 14.1795C19.6203 14.1606 19.6803 14.1193 19.7223 14.0623C19.7643 14.0053 19.7859 13.9358 19.7838 13.865Z" fill="white"/>
<path d="M23.8949 9.94116C24.8204 9.95649 25.7463 9.95767 26.6729 9.9447C27.1592 9.93763 27.4032 9.75372 27.7127 9.42305C27.7728 9.35822 27.8029 9.37 27.8029 9.45842L27.8011 11.4018C27.8011 11.489 27.7716 11.5002 27.7127 11.4354C27.4368 11.1383 27.2017 10.9243 26.7649 10.9155C25.8029 10.8978 24.8428 10.8972 23.8843 10.9137C23.823 10.9149 23.7918 10.9456 23.7906 11.0057C23.7824 11.4643 23.7841 11.9187 23.7959 12.369C23.8242 13.3752 23.7535 14.0931 24.9329 14.1002C26.2568 14.1073 27.5795 14.1067 28.901 14.0984C28.924 14.0984 28.9465 14.0931 28.9668 14.0829C28.9871 14.0728 29.0045 14.0581 29.0177 14.0401L30.1176 12.5653C30.1207 12.5614 30.1251 12.5586 30.13 12.5574C30.1349 12.5562 30.14 12.5566 30.1447 12.5586C30.1493 12.5606 30.1531 12.5641 30.1556 12.5685C30.158 12.5729 30.159 12.578 30.1582 12.583L29.6773 14.9631C29.6631 15.0303 29.6219 15.0639 29.5535 15.0639L22.3707 15.0533C22.2823 15.0533 22.2693 15.0215 22.3318 14.9578C22.6619 14.6195 22.8257 14.3348 22.8234 14.1037C22.7927 11.799 22.7909 9.49555 22.8181 7.19324C22.8251 6.68927 22.666 6.42403 22.3548 6.06683C22.2876 5.99021 22.3047 5.95189 22.406 5.95189L29.244 5.94128C29.3089 5.94128 29.3484 5.97252 29.3625 6.035L29.8364 8.17287C29.8588 8.27307 29.837 8.28368 29.771 8.2047C29.3289 7.67775 28.9505 6.89439 28.1583 6.89439C27.1009 6.89557 26.044 6.89675 24.9878 6.89793C24.4378 6.8997 23.9232 7.08183 23.8295 7.64769C23.7788 7.95301 23.77 8.68803 23.803 9.85275C23.8054 9.91051 23.836 9.93998 23.8949 9.94116Z" fill="white"/>
<path d="M35.5893 13.8456L38.0083 6.04385C38.0272 5.98372 38.0685 5.95366 38.1321 5.95366L40.178 5.96074C40.2287 5.96074 40.2629 5.98431 40.2806 6.03147C41.2225 8.65326 42.0713 11.3045 42.8269 13.9852C42.847 14.0548 42.893 14.0902 42.9649 14.0913L43.4529 14.0931C43.5225 14.0943 43.5684 14.0619 43.5908 13.9959C44.3382 11.8444 45.0279 9.67592 45.6597 7.49031C45.9197 6.59025 45.4582 6.51775 44.8852 6.04915C44.8192 5.99492 44.8286 5.96781 44.9135 5.96781L47.7428 5.97842C47.8501 5.97842 47.8583 6.00671 47.7675 6.0633C47.1699 6.4311 46.8993 6.81128 46.7013 7.52037C46.0034 10.0337 45.1941 12.5105 44.2734 14.9507C44.2534 15.0038 44.215 15.0303 44.1585 15.0303L42.1656 15.0338C42.1008 15.0338 42.0595 15.0026 42.0418 14.9401C41.3145 12.2676 40.4963 9.62287 39.5874 7.0058C39.5767 6.97431 39.5563 6.94697 39.529 6.92762C39.5017 6.90828 39.469 6.89789 39.4354 6.89793L38.9314 6.8997C38.8512 6.8997 38.7994 6.93801 38.7758 7.01464L36.2577 14.9454C36.2353 15.0173 36.1858 15.0533 36.1092 15.0533L34.088 15.0568C34.0208 15.0568 33.9778 15.0244 33.9589 14.9596C32.7435 10.8123 31.9231 8.16698 31.4975 7.02348C31.3831 6.7158 31.0554 6.38807 30.5143 6.04031C30.4106 5.97429 30.4206 5.94128 30.5444 5.94128L33.3312 5.94305C33.4149 5.94305 33.4255 5.97134 33.363 6.02793C32.9422 6.40104 32.4011 6.56726 32.6292 7.27988C33.3565 9.53858 34.0391 11.726 34.6769 13.842C34.7066 13.9396 34.7668 14.0252 34.8486 14.0861C34.9305 14.147 35.0297 14.1801 35.1318 14.1805C35.2338 14.1809 35.3333 14.1486 35.4157 14.0883C35.498 14.028 35.5589 13.9429 35.5893 13.8456Z" fill="white"/>
<path d="M4.40108 9.32071C4.39284 9.32109 4.3848 9.31869 4.37822 9.31387C4.37164 9.30905 4.36687 9.30208 4.36466 9.29404C4.36245 9.28599 4.36291 9.27732 4.36598 9.26935C4.36904 9.26139 4.37455 9.25458 4.38163 9.24997C5.04887 8.84327 5.38308 8.23969 5.38425 7.43924C5.38425 7.32136 5.41608 7.31193 5.47974 7.41095C5.87938 8.0381 6.45584 8.37172 7.20913 8.4118C7.2211 8.41282 7.23246 8.41751 7.24166 8.42523C7.25087 8.43294 7.25747 8.44331 7.26056 8.45491C7.26366 8.46651 7.26309 8.47879 7.25895 8.49006C7.25481 8.50134 7.2473 8.51106 7.23743 8.5179C6.63974 8.91282 6.33442 9.47632 6.32145 10.2084C6.31909 10.3381 6.28196 10.3493 6.21005 10.242C5.79037 9.60776 5.18739 9.30067 4.40108 9.32071Z" fill="white"/>
<path d="M50.642 10.774C51.6765 10.6855 52.3767 10.1144 52.84 9.18603C52.8766 9.11294 52.899 9.11706 52.9072 9.19841C53.0133 10.2146 53.5202 10.9502 54.428 11.4052C54.5234 11.4524 54.5187 11.4825 54.4138 11.4954C53.4177 11.6157 52.7098 12.132 52.2901 13.0444C52.2488 13.1329 52.2229 13.1287 52.2123 13.0321C52.1027 12.0076 51.5739 11.2879 50.6261 10.873C50.5023 10.8188 50.5077 10.7857 50.642 10.774Z" fill="white"/>
<path d="M7.64745 12.0136C7.74824 12.5441 7.88263 12.6767 8.21154 13.0693C8.25751 13.1247 8.24454 13.1547 8.17263 13.1595C7.7565 13.183 7.44056 13.3716 7.22483 13.7253C7.21806 13.7359 7.20814 13.7442 7.19649 13.749C7.18483 13.7538 7.17203 13.755 7.1599 13.7522C7.14777 13.7495 7.13692 13.743 7.1289 13.7337C7.12087 13.7245 7.11608 13.7129 7.11519 13.7005C7.07393 13.2738 6.87471 12.9455 6.51751 12.7156C6.41259 12.6484 6.42202 12.6077 6.5458 12.5936C6.97255 12.5453 7.30735 12.3449 7.55019 11.9924C7.59971 11.9216 7.63213 11.9287 7.64745 12.0136Z" fill="white"/>
</g>
<defs>
<clipPath id="clip0_202_15143">
<rect width="58" height="21.0427" fill="white"/>
</clipPath>
</defs>
</svg>
