<svg width="70" height="26" viewBox="0 0 70 26" fill="none" xmlns="http://www.w3.org/2000/svg">
<g clip-path="url(#clip0_59_37091)">
<ellipse cx="35" cy="12.6875" rx="35" ry="12.6875" fill="#648864"/>
<path d="M23.8769 16.7338C23.8157 14.0149 23.8171 11.2106 23.8811 8.32101C23.8883 8.008 23.6997 7.67508 23.3156 7.32223C23.2274 7.23971 23.2437 7.19845 23.3647 7.19845L25.6802 7.18778C25.8026 7.18636 25.8197 7.22833 25.7314 7.31369C25.3174 7.70922 25.1033 8.04499 25.0891 8.32101C24.9909 10.0938 25.008 13.3327 25.1403 18.0378C25.1409 18.0536 25.1383 18.0693 25.1326 18.084C25.127 18.0987 25.1184 18.1122 25.1075 18.1236C25.0965 18.1349 25.0834 18.1439 25.0688 18.1501C25.0543 18.1563 25.0387 18.1594 25.0229 18.1594L22.6882 18.1488C22.6184 18.1488 22.5658 18.1182 22.5302 18.057L16.9238 8.44693C16.8883 8.38717 16.8349 8.35729 16.7638 8.35729L16.2153 8.36156C16.1498 8.36298 16.1157 8.39642 16.1128 8.46186C15.9094 12.1795 15.9051 15.0329 16.1 17.0219C16.1271 17.2951 16.3618 17.6216 16.8043 18.0015C16.8164 18.0115 16.825 18.025 16.829 18.0402C16.833 18.0553 16.8321 18.0714 16.8265 18.0863C16.821 18.1011 16.811 18.114 16.7978 18.1233C16.7847 18.1325 16.7691 18.1377 16.7531 18.1381L14.4055 18.1274C14.2817 18.1274 14.2633 18.0826 14.35 17.993C14.7214 17.6102 14.9021 17.2866 14.8921 17.0219C14.7726 13.7923 14.7975 10.5654 14.9668 7.34144C14.9711 7.25749 15.0159 7.21481 15.1013 7.21339L17.5043 7.20485C17.5712 7.20485 17.621 7.23331 17.6537 7.29022L23.1619 16.9323C23.2038 17.0068 23.2694 17.0652 23.3483 17.098C23.4272 17.1308 23.5149 17.1362 23.5972 17.1134C23.6796 17.0905 23.7519 17.0407 23.8026 16.9719C23.8533 16.9031 23.8794 16.8192 23.8769 16.7338Z" fill="white"/>
<path d="M28.8387 11.9981C29.9556 12.0166 31.0731 12.018 32.1914 12.0024C32.7783 11.9938 33.0728 11.7719 33.4463 11.3728C33.5189 11.2945 33.5552 11.3088 33.5552 11.4155L33.553 13.7609C33.553 13.8662 33.5175 13.8797 33.4463 13.8014C33.1134 13.4429 32.8295 13.1847 32.3024 13.174C31.1414 13.1527 29.9826 13.152 28.8259 13.1719C28.7519 13.1733 28.7142 13.2103 28.7128 13.2829C28.7028 13.8363 28.705 14.3848 28.7192 14.9283C28.7533 16.1426 28.668 17.0091 30.0914 17.0176C31.6892 17.0261 33.2855 17.0254 34.8805 17.0155C34.9082 17.0154 34.9355 17.009 34.9599 16.9968C34.9844 16.9846 35.0054 16.9668 35.0213 16.945L36.3488 15.1652C36.3526 15.1604 36.3578 15.1571 36.3637 15.1556C36.3696 15.1542 36.3759 15.1547 36.3814 15.1571C36.387 15.1595 36.3916 15.1637 36.3946 15.169C36.3976 15.1743 36.3987 15.1805 36.3978 15.1865L35.8174 18.0591C35.8003 18.1402 35.7505 18.1807 35.668 18.1807L26.9991 18.1679C26.8924 18.1679 26.8767 18.1295 26.9521 18.0527C27.3505 17.6443 27.5482 17.3007 27.5454 17.0219C27.5084 14.2404 27.5063 11.4603 27.539 8.68163C27.5475 8.0734 27.3555 7.75328 26.9799 7.32218C26.8988 7.2297 26.9194 7.18346 27.0417 7.18346L35.2945 7.17065C35.3727 7.17065 35.4204 7.20836 35.4375 7.28376L36.0094 9.86395C36.0365 9.98488 36.0101 9.99769 35.9305 9.90236C35.3969 9.26639 34.9402 8.32096 33.9841 8.32096C32.7079 8.32238 31.4324 8.32381 30.1576 8.32523C29.4939 8.32736 28.8728 8.54718 28.7597 9.23011C28.6986 9.5986 28.6879 10.4857 28.7277 11.8914C28.7306 11.9611 28.7676 11.9967 28.8387 11.9981Z" fill="white"/>
<path d="M42.9518 16.7103L45.8714 7.29444C45.8941 7.22187 45.9439 7.18559 46.0207 7.18559L48.49 7.19413C48.5511 7.19413 48.5924 7.22259 48.6137 7.2795C49.7505 10.4437 50.7749 13.6435 51.6869 16.8789C51.7111 16.9628 51.7666 17.0055 51.8534 17.0069L52.4424 17.0091C52.5263 17.0105 52.5818 16.9714 52.6089 16.8917C53.5109 14.2951 54.3432 11.678 55.1058 9.04017C55.4195 7.95389 54.8625 7.86639 54.171 7.30084C54.0914 7.23539 54.1028 7.20267 54.2052 7.20267L57.6198 7.21547C57.7493 7.21547 57.7593 7.24962 57.6497 7.31791C56.9284 7.76181 56.6018 8.22065 56.3628 9.07645C55.5205 12.1098 54.5438 15.099 53.4326 18.0441C53.4084 18.1082 53.3622 18.1402 53.2939 18.1402L50.8887 18.1444C50.8105 18.1444 50.7607 18.1067 50.7393 18.0313C49.8615 14.8059 48.8741 11.6139 47.7771 8.45541C47.7642 8.41741 47.7395 8.38441 47.7066 8.36106C47.6737 8.33771 47.6342 8.32518 47.5936 8.32523L46.9854 8.32736C46.8886 8.32736 46.826 8.3736 46.7976 8.46608L43.7586 18.0377C43.7315 18.1245 43.6718 18.1679 43.5793 18.1679L41.14 18.1722C41.0589 18.1722 41.0069 18.1331 40.9842 18.0548C39.5173 13.0495 38.527 9.85683 38.0134 8.47675C37.8754 8.10541 37.4799 7.70988 36.8268 7.29017C36.7016 7.21049 36.7137 7.17065 36.8631 7.17065L40.2265 7.17279C40.3276 7.17279 40.3404 7.20693 40.265 7.27523C39.757 7.72553 39.104 7.92614 39.3793 8.7862C40.2571 11.5122 41.0809 14.1522 41.8506 16.706C41.8865 16.8238 41.9591 16.9271 42.0579 17.0006C42.1567 17.0741 42.2765 17.114 42.3997 17.1145C42.5228 17.115 42.6429 17.076 42.7423 17.0032C42.8416 16.9305 42.9151 16.8278 42.9518 16.7103Z" fill="white"/>
<path d="M5.31198 11.2491C5.30203 11.2496 5.29233 11.2467 5.28439 11.2409C5.27644 11.2351 5.27069 11.2267 5.26802 11.217C5.26535 11.2072 5.26591 11.1968 5.26961 11.1872C5.27331 11.1776 5.27995 11.1693 5.28851 11.1638C6.09379 10.6729 6.49714 9.94447 6.49857 8.97841C6.49857 8.83614 6.53698 8.82475 6.61381 8.94427C7.09613 9.70118 7.79186 10.1038 8.70101 10.1522C8.71545 10.1534 8.72916 10.1591 8.74027 10.1684C8.75138 10.1777 8.75934 10.1902 8.76307 10.2042C8.76681 10.2182 8.76613 10.233 8.76113 10.2466C8.75614 10.2603 8.74706 10.272 8.73515 10.2802C8.01381 10.7569 7.64532 11.437 7.62967 12.3205C7.62682 12.477 7.582 12.4905 7.49521 12.361C6.98871 11.5956 6.26097 11.225 5.31198 11.2491Z" fill="white"/>
<path d="M61.1198 13.0034C62.3683 12.8967 63.2134 12.2073 63.7726 11.0869C63.8167 10.9987 63.8437 11.0037 63.8537 11.1019C63.9817 12.3283 64.5935 13.2161 65.689 13.7653C65.8043 13.8222 65.7986 13.8585 65.6719 13.8741C64.4697 14.0192 63.6153 14.6424 63.1088 15.7436C63.059 15.8503 63.0277 15.8454 63.0149 15.7287C62.8826 14.4923 62.2445 13.6237 61.1006 13.1229C60.9512 13.0574 60.9576 13.0176 61.1198 13.0034Z" fill="white"/>
<path d="M9.23015 14.4993C9.3518 15.1396 9.514 15.2996 9.91095 15.7734C9.96643 15.8403 9.95078 15.8766 9.864 15.8823C9.36176 15.9107 8.98046 16.1384 8.72009 16.5652C8.71192 16.578 8.69995 16.588 8.68589 16.5938C8.67182 16.5996 8.65637 16.601 8.64173 16.5977C8.62709 16.5944 8.614 16.5866 8.60431 16.5754C8.59463 16.5642 8.58884 16.5502 8.58778 16.5353C8.53798 16.0203 8.29753 15.624 7.86643 15.3466C7.73981 15.2655 7.75119 15.2164 7.90058 15.1993C8.41562 15.141 8.81969 14.8991 9.11277 14.4737C9.17253 14.3884 9.21166 14.3969 9.23015 14.4993Z" fill="white"/>
</g>
<defs>
<clipPath id="clip0_59_37091">
<rect width="70" height="25.3963" fill="white"/>
</clipPath>
</defs>
</svg>
