<svg width="58" height="22" viewBox="0 0 58 22" fill="none" xmlns="http://www.w3.org/2000/svg">
<g clip-path="url(#clip0_64_20493)">
<ellipse cx="29" cy="10.5125" rx="29" ry="10.5125" fill="#648864"/>
<path d="M19.7833 13.865C19.7326 11.6122 19.7338 9.28871 19.7869 6.89444C19.7928 6.63509 19.6366 6.35923 19.3183 6.06688C19.2452 5.9985 19.2587 5.96432 19.3589 5.96432L21.2775 5.95547C21.3789 5.95429 21.3931 5.98907 21.32 6.0598C20.9769 6.38753 20.7995 6.66574 20.7877 6.89444C20.7064 8.3633 20.7205 11.047 20.8302 14.9455C20.8306 14.9585 20.8285 14.9716 20.8238 14.9838C20.8191 14.996 20.812 15.0071 20.803 15.0165C20.7939 15.026 20.783 15.0334 20.771 15.0385C20.7589 15.0436 20.746 15.0463 20.7329 15.0463L18.7984 15.0374C18.7406 15.0374 18.697 15.0121 18.6675 14.9614L14.0222 6.99877C13.9928 6.94925 13.9486 6.9245 13.8896 6.9245L13.4352 6.92803C13.3809 6.92921 13.3526 6.95692 13.3503 7.01114C13.1817 10.0915 13.1782 12.4557 13.3397 14.1038C13.3621 14.3301 13.5566 14.6007 13.9232 14.9154C13.9332 14.9237 13.9404 14.9349 13.9437 14.9475C13.947 14.96 13.9462 14.9733 13.9416 14.9856C13.937 14.9979 13.9287 15.0086 13.9178 15.0163C13.907 15.024 13.894 15.0283 13.8808 15.0286L11.9356 15.0197C11.8331 15.0197 11.8178 14.9826 11.8897 14.9083C12.1974 14.5912 12.3471 14.323 12.3388 14.1038C12.2398 11.4277 12.2604 8.75409 12.4007 6.08279C12.4042 6.01324 12.4414 5.97787 12.5121 5.97669L14.5032 5.96962C14.5586 5.96962 14.5999 5.9932 14.627 6.04035L19.191 14.0295C19.2256 14.0912 19.28 14.1396 19.3454 14.1668C19.4108 14.194 19.4834 14.1985 19.5516 14.1795C19.6199 14.1606 19.6798 14.1193 19.7218 14.0623C19.7638 14.0053 19.7855 13.9358 19.7833 13.865Z" fill="white"/>
<path d="M23.8949 9.94116C24.8204 9.95649 25.7463 9.95767 26.6729 9.9447C27.1592 9.93763 27.4032 9.75372 27.7127 9.42305C27.7728 9.35822 27.8029 9.37 27.8029 9.45842L27.8011 11.4018C27.8011 11.489 27.7716 11.5002 27.7127 11.4354C27.4368 11.1383 27.2017 10.9243 26.7649 10.9155C25.8029 10.8978 24.8428 10.8972 23.8843 10.9137C23.823 10.9149 23.7918 10.9456 23.7906 11.0057C23.7824 11.4643 23.7841 11.9187 23.7959 12.369C23.8242 13.3752 23.7535 14.0931 24.9329 14.1002C26.2568 14.1073 27.5795 14.1067 28.901 14.0984C28.924 14.0984 28.9465 14.0931 28.9668 14.0829C28.9871 14.0728 29.0045 14.0581 29.0177 14.0401L30.1176 12.5653C30.1207 12.5614 30.1251 12.5586 30.13 12.5574C30.1349 12.5562 30.14 12.5566 30.1447 12.5586C30.1493 12.5606 30.1531 12.5641 30.1556 12.5685C30.158 12.5729 30.159 12.578 30.1582 12.583L29.6773 14.9631C29.6631 15.0303 29.6219 15.0639 29.5535 15.0639L22.3707 15.0533C22.2823 15.0533 22.2693 15.0215 22.3318 14.9578C22.6619 14.6195 22.8257 14.3348 22.8234 14.1037C22.7927 11.799 22.7909 9.49555 22.8181 7.19324C22.8251 6.68927 22.666 6.42403 22.3548 6.06683C22.2876 5.99021 22.3047 5.95189 22.406 5.95189L29.244 5.94128C29.3089 5.94128 29.3484 5.97252 29.3625 6.035L29.8364 8.17287C29.8588 8.27307 29.837 8.28368 29.771 8.2047C29.3289 7.67775 28.9505 6.89439 28.1583 6.89439C27.1009 6.89557 26.044 6.89675 24.9878 6.89793C24.4378 6.8997 23.9232 7.08183 23.8295 7.64769C23.7788 7.95301 23.77 8.68803 23.803 9.85275C23.8054 9.91051 23.836 9.93998 23.8949 9.94116Z" fill="white"/>
<path d="M35.5888 13.8456L38.0078 6.04385C38.0267 5.98372 38.068 5.95366 38.1316 5.95366L40.1775 5.96074C40.2282 5.96074 40.2624 5.98431 40.2801 6.03147C41.222 8.65326 42.0708 11.3045 42.8264 13.9852C42.8465 14.0548 42.8925 14.0902 42.9644 14.0913L43.4524 14.0931C43.522 14.0943 43.568 14.0619 43.5904 13.9959C44.3377 11.8444 45.0274 9.67592 45.6593 7.49031C45.9192 6.59025 45.4577 6.51775 44.8847 6.04915C44.8187 5.99492 44.8282 5.96781 44.913 5.96781L47.7423 5.97842C47.8496 5.97842 47.8578 6.00671 47.7671 6.0633C47.1694 6.4311 46.8988 6.81128 46.7008 7.52037C46.0029 10.0337 45.1936 12.5105 44.2729 14.9507C44.2529 15.0038 44.2146 15.0303 44.158 15.0303L42.1651 15.0338C42.1003 15.0338 42.059 15.0026 42.0413 14.9401C41.314 12.2676 40.4958 9.62287 39.5869 7.0058C39.5762 6.97431 39.5558 6.94697 39.5285 6.92762C39.5012 6.90828 39.4685 6.89789 39.4349 6.89793L38.9309 6.8997C38.8507 6.8997 38.7989 6.93801 38.7753 7.01464L36.2572 14.9454C36.2348 15.0173 36.1853 15.0533 36.1087 15.0533L34.0875 15.0568C34.0203 15.0568 33.9773 15.0244 33.9585 14.9596C32.7431 10.8123 31.9226 8.16698 31.497 7.02348C31.3826 6.7158 31.0549 6.38807 30.5138 6.04031C30.4101 5.97429 30.4201 5.94128 30.5439 5.94128L33.3307 5.94305C33.4144 5.94305 33.425 5.97134 33.3625 6.02793C32.9417 6.40104 32.4006 6.56726 32.6287 7.27988C33.3561 9.53858 34.0386 11.726 34.6764 13.842C34.7061 13.9396 34.7663 14.0252 34.8482 14.0861C34.93 14.147 35.0293 14.1801 35.1313 14.1805C35.2333 14.1809 35.3328 14.1486 35.4152 14.0883C35.4975 14.028 35.5584 13.9429 35.5888 13.8456Z" fill="white"/>
<path d="M4.40157 9.32071C4.39333 9.32109 4.38529 9.31869 4.37871 9.31387C4.37213 9.30905 4.36736 9.30208 4.36515 9.29404C4.36293 9.28599 4.3634 9.27732 4.36647 9.26935C4.36953 9.26139 4.37503 9.25458 4.38212 9.24997C5.04936 8.84327 5.38356 8.23969 5.38474 7.43924C5.38474 7.32136 5.41657 7.31193 5.48023 7.41095C5.87987 8.0381 6.45633 8.37172 7.20962 8.4118C7.22159 8.41282 7.23295 8.41751 7.24215 8.42523C7.25136 8.43294 7.25795 8.44331 7.26105 8.45491C7.26414 8.46651 7.26358 8.47879 7.25944 8.49006C7.2553 8.50134 7.24778 8.51106 7.23791 8.5179C6.64023 8.91282 6.33491 9.47632 6.32194 10.2084C6.31958 10.3381 6.28245 10.3493 6.21054 10.242C5.79086 9.60776 5.18787 9.30067 4.40157 9.32071Z" fill="white"/>
<path d="M50.642 10.774C51.6765 10.6856 52.3767 10.1144 52.84 9.18604C52.8766 9.11295 52.899 9.11708 52.9072 9.19842C53.0133 10.2146 53.5202 10.9502 54.428 11.4053C54.5234 11.4524 54.5187 11.4825 54.4138 11.4954C53.4177 11.6157 52.7098 12.132 52.2901 13.0445C52.2488 13.1329 52.2229 13.1287 52.2123 13.0321C52.1027 12.0076 51.5739 11.288 50.6261 10.873C50.5023 10.8188 50.5077 10.7858 50.642 10.774Z" fill="white"/>
<path d="M7.64794 12.0135C7.74873 12.544 7.88312 12.6766 8.21202 13.0692C8.258 13.1246 8.24503 13.1547 8.17312 13.1594C7.75698 13.183 7.44105 13.3716 7.22532 13.7252C7.21855 13.7358 7.20863 13.7441 7.19698 13.7489C7.18532 13.7538 7.17252 13.7549 7.16039 13.7522C7.14826 13.7494 7.13741 13.7429 7.12939 13.7337C7.12136 13.7244 7.11657 13.7128 7.11568 13.7005C7.07442 13.2737 6.8752 12.9454 6.518 12.7156C6.41308 12.6484 6.42251 12.6077 6.54629 12.5935C6.97304 12.5452 7.30784 12.3448 7.55068 11.9923C7.60019 11.9216 7.63261 11.9287 7.64794 12.0135Z" fill="white"/>
</g>
<defs>
<clipPath id="clip0_64_20493">
<rect width="58" height="21.0427" fill="white"/>
</clipPath>
</defs>
</svg>
