<svg width="151" height="57" viewBox="0 0 151 57" fill="none" xmlns="http://www.w3.org/2000/svg">
<path d="M51.6824 36.5573C51.5514 30.7523 51.5545 24.7651 51.6915 18.5956C51.7068 17.9273 51.3031 17.2165 50.4806 16.4632C50.2917 16.287 50.3267 16.1989 50.5857 16.1989L55.5438 16.1761C55.8058 16.1731 55.8424 16.2627 55.6535 16.4449C54.767 17.2894 54.3085 18.0063 54.278 18.5956C54.0678 22.3805 54.1043 29.2958 54.3877 39.3413C54.3889 39.375 54.3833 39.4086 54.3712 39.44C54.3591 39.4715 54.3408 39.5002 54.3174 39.5245C54.2939 39.5487 54.2658 39.568 54.2347 39.5812C54.2036 39.5943 54.1701 39.6011 54.1363 39.6011L49.1371 39.5783C48.9878 39.5783 48.8751 39.513 48.7989 39.3823L36.7944 18.8644C36.7182 18.7369 36.604 18.6731 36.4517 18.6731L35.2772 18.6822C35.1371 18.6852 35.064 18.7566 35.0579 18.8963C34.6223 26.8337 34.6131 32.9258 35.0305 37.1724C35.0884 37.7557 35.591 38.4528 36.5385 39.2639C36.5644 39.2853 36.5828 39.3141 36.5913 39.3465C36.5998 39.3788 36.598 39.4131 36.5861 39.4448C36.5742 39.4765 36.5527 39.5041 36.5246 39.5239C36.4965 39.5437 36.4631 39.5547 36.4288 39.5555L31.4022 39.5327C31.1371 39.5327 31.0975 39.437 31.2833 39.2456C32.0785 38.4285 32.4654 37.7374 32.444 37.1724C32.1881 30.2769 32.2415 23.3875 32.604 16.5042C32.6131 16.3249 32.7091 16.2338 32.8919 16.2308L38.0373 16.2126C38.1805 16.2126 38.2871 16.2733 38.3572 16.3948L50.1516 36.9811C50.2412 37.1402 50.3817 37.2647 50.5506 37.3348C50.7196 37.4049 50.9073 37.4165 51.0836 37.3677C51.2599 37.3188 51.4148 37.2125 51.5233 37.0656C51.6319 36.9187 51.6879 36.7397 51.6824 36.5573Z" fill="#1A1A1A"/>
<path d="M62.3074 26.4464C64.6988 26.4859 67.0918 26.489 69.4863 26.4556C70.743 26.4373 71.3736 25.9635 72.1733 25.1114C72.3287 24.9443 72.4064 24.9747 72.4064 25.2025L72.4018 30.2101C72.4018 30.4349 72.3256 30.4638 72.1733 30.2967C71.4604 29.5312 70.8527 28.9799 69.724 28.9571C67.2381 28.9115 64.7567 28.91 62.28 28.9525C62.1215 28.9556 62.0408 29.0345 62.0378 29.1895C62.0164 30.3711 62.021 31.5421 62.0515 32.7025C62.1246 35.2952 61.9418 37.1451 64.9898 37.1633C68.4109 37.1816 71.8291 37.18 75.2441 37.1588C75.3036 37.1587 75.3619 37.145 75.4143 37.1189C75.4667 37.0928 75.5117 37.0549 75.5457 37.0084L78.3881 33.2083C78.3962 33.1982 78.4075 33.191 78.4202 33.1879C78.4328 33.1848 78.4461 33.1859 78.4581 33.1911C78.47 33.1963 78.4799 33.2052 78.4863 33.2166C78.4926 33.2279 78.495 33.241 78.4932 33.2539L77.2502 39.3869C77.2137 39.56 77.107 39.6466 76.9304 39.6466L58.3683 39.6193C58.1398 39.6193 58.1063 39.5373 58.2678 39.3732C59.1208 38.5014 59.5442 37.7678 59.5381 37.1724C59.4589 31.2338 59.4544 25.2982 59.5244 19.3657C59.5427 18.067 59.1314 17.3836 58.3272 16.4632C58.1535 16.2657 58.1977 16.167 58.4597 16.167L76.1307 16.1396C76.2982 16.1396 76.4003 16.2201 76.4368 16.3811L77.6615 21.89C77.7194 22.1482 77.663 22.1755 77.4924 21.972C76.35 20.6141 75.3721 18.5956 73.3249 18.5956C70.5922 18.5986 67.8611 18.6017 65.1314 18.6047C63.7103 18.6093 62.3805 19.0786 62.1383 20.5367C62.0073 21.3234 61.9844 23.2174 62.0697 26.2186C62.0758 26.3675 62.155 26.4434 62.3074 26.4464Z" fill="#1A1A1A"/>
<path d="M92.5269 36.5072L98.7782 16.4039C98.8269 16.249 98.9336 16.1715 99.0981 16.1715L104.385 16.1898C104.516 16.1898 104.605 16.2505 104.65 16.372C107.084 23.1278 109.278 29.9595 111.231 36.8672C111.282 37.0464 111.401 37.1375 111.587 37.1406L112.848 37.1451C113.028 37.1481 113.147 37.0646 113.205 36.8945C115.136 31.3508 116.918 25.763 118.551 20.1311C119.223 17.8119 118.03 17.6251 116.55 16.4176C116.379 16.2779 116.403 16.208 116.623 16.208L123.934 16.2353C124.212 16.2353 124.233 16.3082 123.998 16.454C122.454 17.4018 121.755 18.3814 121.243 20.2086C119.439 26.6849 117.348 33.067 114.969 39.355C114.917 39.4917 114.818 39.56 114.672 39.56L109.522 39.5692C109.354 39.5692 109.247 39.4887 109.202 39.3277C107.322 32.4413 105.208 25.6263 102.859 18.8827C102.831 18.8015 102.778 18.7311 102.708 18.6812C102.637 18.6314 102.553 18.6046 102.466 18.6047L101.164 18.6093C100.956 18.6093 100.822 18.708 100.761 18.9054L94.2542 39.3413C94.1963 39.5266 94.0684 39.6193 93.8704 39.6193L88.6472 39.6284C88.4735 39.6284 88.3624 39.5449 88.3136 39.3778C85.1727 28.6913 83.0524 21.8748 81.9526 18.9282C81.6571 18.1354 80.8102 17.2909 79.4119 16.3948C79.1438 16.2247 79.1697 16.1396 79.4896 16.1396L86.6914 16.1442C86.9077 16.1442 86.9351 16.2171 86.7736 16.3629C85.6861 17.3243 84.2877 17.7526 84.8772 19.5889C86.7569 25.4091 88.5208 31.0455 90.1689 36.4981C90.2457 36.7496 90.4012 36.9701 90.6128 37.127C90.8244 37.284 91.0808 37.3692 91.3445 37.3702C91.6082 37.3712 91.8653 37.288 92.0781 37.1327C92.2909 36.9774 92.4482 36.7582 92.5269 36.5072Z" fill="#1A1A1A"/>
<path d="M11.9312 24.8471C11.9099 24.8481 11.8891 24.8419 11.8721 24.8295C11.8551 24.8171 11.8428 24.7991 11.8371 24.7784C11.8313 24.7576 11.8325 24.7353 11.8405 24.7148C11.8484 24.6942 11.8626 24.6767 11.8809 24.6648C13.6052 23.6168 14.4689 22.0616 14.4719 19.999C14.4719 19.6952 14.5542 19.6709 14.7187 19.9261C15.7514 21.5421 17.2412 22.4018 19.1878 22.5051C19.2188 22.5077 19.2481 22.5198 19.2719 22.5396C19.2957 22.5595 19.3127 22.5862 19.3207 22.6161C19.3287 22.646 19.3273 22.6777 19.3166 22.7067C19.3059 22.7358 19.2865 22.7608 19.261 22.7784C17.7164 23.7961 16.9274 25.2481 16.8939 27.1345C16.8878 27.4686 16.7918 27.4975 16.606 27.221C15.5214 25.5868 13.9632 24.7955 11.9312 24.8471Z" fill="#1A1A1A"/>
<path d="M131.428 28.5926C134.102 28.3648 135.911 26.8931 137.109 24.5009C137.203 24.3126 137.261 24.3232 137.282 24.5328C137.556 27.1513 138.866 29.0468 141.212 30.2193C141.459 30.3408 141.447 30.4183 141.176 30.4517C138.601 30.7615 136.772 32.092 135.687 34.4432C135.581 34.671 135.514 34.6604 135.486 34.4113C135.203 31.7715 133.837 29.917 131.387 28.8478C131.067 28.7081 131.081 28.623 131.428 28.5926Z" fill="#1A1A1A"/>
<path d="M20.321 31.7867C20.5814 33.1537 20.9287 33.4954 21.7787 34.507C21.8975 34.6497 21.864 34.7272 21.6782 34.7393C20.6028 34.8001 19.7863 35.2861 19.2288 36.1974C19.2113 36.2247 19.1857 36.246 19.1556 36.2585C19.1255 36.2709 19.0924 36.2738 19.061 36.2668C19.0297 36.2597 19.0016 36.243 18.9809 36.2191C18.9602 36.1952 18.9478 36.1653 18.9455 36.1336C18.8389 35.034 18.324 34.188 17.4009 33.5957C17.1298 33.4225 17.1542 33.3177 17.474 33.2813C18.5769 33.1567 19.4421 32.6403 20.0696 31.7321C20.1976 31.5498 20.2814 31.568 20.321 31.7867Z" fill="#1A1A1A"/>
</svg>
