<svg width="15" height="15" viewBox="0 0 15 15" fill="none" xmlns="http://www.w3.org/2000/svg">
<path d="M7.54287 15H7.45498C4.97764 14.9487 2.96113 13.0497 2.82227 10.5612C2.79619 10.0936 2.85947 9.60937 2.96553 9.1623C3.11748 8.52187 3.32197 7.87177 3.579 7.21201C3.99072 6.15497 4.45645 5.12226 4.97617 4.11386C5.66143 2.78437 6.50635 1.29521 7.47813 0.0225529C7.49121 0.00556073 7.5043 0.00546307 7.51738 0.0222599C8.2501 0.955951 8.85596 1.9954 9.43281 3.02958C10.1467 4.30947 10.7773 5.62949 11.3248 6.98964C11.7083 7.94238 12.0191 8.87372 12.1554 9.8458C12.1765 9.99677 12.1854 10.1663 12.182 10.3544C12.1606 11.5277 11.7411 12.6287 10.9451 13.4827C10.0426 14.4507 8.9085 14.9564 7.54287 15Z" fill="#1A1A1A"/>
</svg>
