<svg width="26" height="26" viewBox="0 0 26 26" fill="none" xmlns="http://www.w3.org/2000/svg">
<path d="M14.1251 2.89772C11.5608 3.7809 9.21777 5.20791 7.2564 7.08102C5.29503 8.95413 3.7617 11.2291 2.76147 13.75M15.0456 5.43181C12.8519 6.18048 10.8454 7.39331 9.16285 8.98762C7.4803 10.5819 6.16124 12.5202 5.29558 14.6704M18.5342 17.8864C21.0554 15.1409 22.8144 11.7835 23.6365 8.14772C23.8193 7.58685 23.7768 6.9769 23.5181 6.44676C23.2594 5.91662 22.8047 5.50783 22.2501 5.30681L21.5797 5.07954C21.0173 4.89334 20.4045 4.93406 19.8717 5.19301C19.339 5.45196 18.9284 5.90869 18.7274 6.4659L17.8524 8.99999C17.6696 9.56085 17.7121 10.1708 17.9708 10.701C18.2295 11.2311 18.6842 11.6399 19.2388 11.8409C18.5312 13.307 17.5824 14.6438 16.4319 15.7954C15.2748 16.9467 13.9297 17.892 12.4547 18.5909C12.2471 18.0319 11.8282 17.5769 11.2883 17.324C10.7483 17.071 10.1306 17.0403 9.56829 17.2386L7.06831 18.1364C6.50726 18.3417 6.04961 18.7596 5.79441 19.2998C5.5392 19.84 5.50696 20.4589 5.70466 21.0227L5.93194 21.6591C6.13943 22.2207 6.56016 22.6778 7.10274 22.931C7.64533 23.1843 8.26591 23.2131 8.82966 23.0114C12.4308 22.1116 15.7606 20.3531 18.5342 17.8864Z" stroke="#1C1C1E" stroke-width="1.66667" stroke-linecap="round" stroke-linejoin="round"/>
</svg>
