<svg width="59" height="63" viewBox="0 0 59 63" fill="none" xmlns="http://www.w3.org/2000/svg">
<g filter="url(#filter0_d_0_204)">
<rect x="29.2658" y="0.890373" width="40.6977" height="40.6977" rx="9.30233" transform="rotate(45 29.2658 0.890373)" fill="#648864"/>
<path d="M34.5622 23.3105L23.3914 23.3105C22.0693 23.3105 20.9976 24.3454 20.9976 25.622L20.9976 36.4089C20.9976 37.6855 22.0693 38.7204 23.3914 38.7204L34.5622 38.7204C35.8842 38.7204 36.9559 37.6855 36.9559 36.4089L36.9559 25.622C36.9559 24.3454 35.8842 23.3105 34.5622 23.3105Z" fill="white"/>
<path d="M31.0371 23.3105L26.9284 23.3105L26.9284 38.7204L31.0371 38.7204L31.0371 23.3105Z" fill="white"/>
<path d="M34.2883 20.539C34.2883 21.2192 34.0085 21.8714 33.5104 22.3524C33.0124 22.8333 32.3369 23.1035 31.6325 23.1035L29.0006 23.1035L29.0006 20.539C29.0006 19.8589 29.2804 19.2066 29.7784 18.7257C30.2765 18.2447 30.952 17.9745 31.6564 17.9745C32.3566 17.9806 33.026 18.2535 33.5189 18.7337C34.0118 19.214 34.2883 19.8628 34.2883 20.539Z" fill="white"/>
<path d="M26.321 18.0205C27.0254 18.0205 27.7009 18.2907 28.1989 18.7717C28.697 19.2526 28.9768 19.9049 28.9768 20.585L28.9768 23.161L26.321 23.161C25.9703 23.1625 25.6227 23.0969 25.2983 22.968C24.9739 22.8391 24.6792 22.6494 24.4312 22.4099C24.1832 22.1704 23.9867 21.8858 23.8532 21.5726C23.7197 21.2594 23.6518 20.9237 23.6534 20.585C23.6534 20.2473 23.7224 19.9129 23.8567 19.601C23.9909 19.2891 24.1875 19.0059 24.4354 18.7676C24.6833 18.5293 24.9775 18.3406 25.3011 18.2124C25.6246 18.0842 25.9713 18.019 26.321 18.0205Z" fill="white"/>
<path d="M20.9976 28.5315L26.6188 28.5315M31.0252 28.5315L36.9559 28.5315M23.3914 23.3105L34.5622 23.3105C35.8842 23.3105 36.9559 24.3454 36.9559 25.622L36.9559 36.4089C36.9559 37.6855 35.8842 38.7204 34.5622 38.7204L23.3914 38.7204C22.0693 38.7204 20.9976 37.6855 20.9976 36.4089L20.9976 25.622C20.9976 24.3454 22.0693 23.3105 23.3914 23.3105ZM26.9284 23.3105L31.0371 23.3105L31.0371 38.7204L26.9284 38.7204L26.9284 23.3105ZM34.2883 20.539C34.2883 21.2192 34.0085 21.8714 33.5104 22.3524C33.0124 22.8333 32.3369 23.1035 31.6325 23.1035L29.0006 23.1035L29.0006 20.539C29.0006 19.8589 29.2804 19.2066 29.7784 18.7257C30.2765 18.2447 30.952 17.9745 31.6564 17.9745C32.3566 17.9806 33.026 18.2535 33.5189 18.7337C34.0118 19.214 34.2883 19.8628 34.2883 20.539ZM26.321 18.0205C27.0254 18.0205 27.7009 18.2907 28.1989 18.7717C28.697 19.2526 28.9768 19.9049 28.9768 20.585L28.9768 23.161L26.321 23.161C25.9703 23.1625 25.6227 23.0969 25.2983 22.968C24.9739 22.8391 24.6792 22.6494 24.4312 22.4099C24.1832 22.1704 23.9867 21.8858 23.8532 21.5726C23.7197 21.2594 23.6518 20.9237 23.6534 20.585C23.6534 20.2473 23.7224 19.9129 23.8567 19.601C23.9909 19.2891 24.1875 19.0059 24.4354 18.7676C24.6833 18.5293 24.9775 18.3406 25.3011 18.2124C25.6246 18.0842 25.9713 18.019 26.321 18.0205Z" stroke="#648864" stroke-width="1.27667" stroke-linecap="round" stroke-linejoin="round"/>
</g>
<defs>
<filter id="filter0_d_0_204" x="0.341393" y="4.74353" width="57.8489" height="57.8489" filterUnits="userSpaceOnUse" color-interpolation-filters="sRGB">
<feFlood flood-opacity="0" result="BackgroundImageFix"/>
<feColorMatrix in="SourceAlpha" type="matrix" values="0 0 0 0 0 0 0 0 0 0 0 0 0 0 0 0 0 0 127 0" result="hardAlpha"/>
<feOffset dy="4"/>
<feGaussianBlur stdDeviation="2"/>
<feComposite in2="hardAlpha" operator="out"/>
<feColorMatrix type="matrix" values="0 0 0 0 0 0 0 0 0 0 0 0 0 0 0 0 0 0 0.25 0"/>
<feBlend mode="normal" in2="BackgroundImageFix" result="effect1_dropShadow_0_204"/>
<feBlend mode="normal" in="SourceGraphic" in2="effect1_dropShadow_0_204" result="shape"/>
</filter>
</defs>
</svg>
