<svg width="22" height="22" viewBox="0 0 22 22" fill="none" xmlns="http://www.w3.org/2000/svg">
<path d="M10.8969 10.8705C13.5243 10.8705 15.6542 8.74057 15.6542 6.11319C15.6542 3.4858 13.5243 1.35588 10.8969 1.35588C8.2695 1.35588 6.13958 3.4858 6.13958 6.11319C6.13958 8.74057 8.2695 10.8705 10.8969 10.8705Z" stroke="#1C1C1E" stroke-width="1.46667" stroke-linecap="round" stroke-linejoin="round"/>
<path d="M16.3083 20.6111C16.9328 20.5977 17.5428 20.4207 18.0774 20.0976C18.612 19.7746 19.0524 19.3169 19.3546 18.7702C19.6568 18.2236 19.8102 17.6072 19.7995 16.9827C19.7888 16.3582 19.6143 15.7475 19.2935 15.2115C18.447 13.8753 17.2764 12.7748 15.8905 12.0122C14.5047 11.2496 12.9485 10.8497 11.3667 10.8497C9.78488 10.8497 8.22871 11.2496 6.84285 12.0122C5.45698 12.7748 4.28638 13.8753 3.43983 15.2115C3.11906 15.7475 2.94458 16.3582 2.93387 16.9827C2.92317 17.6072 3.07657 18.2236 3.37878 18.7702C3.68099 19.3169 4.12141 19.7746 4.65598 20.0976C5.19055 20.4207 5.80056 20.5977 6.42502 20.6111H16.3083Z" stroke="#1C1C1E" stroke-width="1.46667" stroke-linecap="round" stroke-linejoin="round"/>
</svg>
